{"glyphs":{"0":{"ha":753,"x_min":7,"x_max":773,"o":"m 382 997 l 397 997 q 686 859 562 997 q 773 620 773 751 l 773 376 q 633 87 773 209 q 397 0 527 0 l 382 0 q 94 140 216 0 q 7 376 7 246 l 7 620 q 162 923 7 798 q 382 997 266 997 m 374 988 l 372 988 q 96 848 210 988 q 25 635 25 755 l 25 406 q 195 102 25 216 q 378 52 281 52 q 627 155 521 52 q 731 404 731 260 l 731 637 q 596 913 731 802 q 387 988 499 988 l 382 988 q 378 989 380 988 q 374 988 376 988 m 353 954 l 368 954 q 604 825 508 954 q 654 659 654 753 l 654 432 q 513 177 654 271 q 361 135 444 135 q 129 248 222 135 q 66 426 66 327 l 66 663 q 189 899 66 805 q 353 954 265 954 m 248 653 l 248 435 q 329 320 248 351 q 357 317 348 317 l 364 317 q 445 355 410 317 q 472 410 465 375 q 474 446 474 427 l 474 644 q 443 736 474 711 q 419 758 441 741 q 361 773 390 773 q 255 703 290 773 q 248 653 248 682 m 379 690 q 431 647 417 690 q 433 635 433 640 l 433 406 q 395 353 433 369 q 380 351 389 351 l 376 351 q 326 391 341 351 q 323 408 323 398 l 323 633 q 362 688 323 673 q 379 690 373 690 m 367 380 q 387 360 369 363 l 393 360 q 413 380 410 362 l 413 617 q 393 637 411 633 l 389 637 q 367 620 374 637 l 367 380 z "},"1":{"ha":452,"x_min":7,"x_max":473,"o":"m 290 997 l 302 997 q 397 964 346 997 q 437 925 416 951 q 473 824 473 875 l 473 170 q 431 64 473 118 q 364 13 395 25 q 304 0 326 0 l 284 0 q 164 54 221 0 q 121 126 130 94 q 113 191 113 151 l 113 469 q 22 557 52 496 q 7 627 7 597 l 7 635 q 46 749 7 690 q 148 923 127 891 q 290 997 206 997 m 282 988 l 276 988 q 159 926 210 988 q 37 713 54 746 q 25 652 25 685 q 72 546 25 595 q 132 511 103 519 l 132 195 q 199 77 132 127 q 281 52 239 52 q 407 120 358 52 q 431 205 431 156 l 431 840 q 353 970 431 923 q 288 988 316 988 l 285 988 q 284 989 284 988 l 282 988 m 260 954 l 267 954 q 347 901 317 954 q 354 862 354 883 l 354 228 q 293 140 354 166 q 263 135 276 135 q 178 196 205 135 q 173 239 173 210 l 173 590 q 156 588 167 588 q 83 627 114 588 q 66 678 66 651 l 66 682 q 104 767 66 711 q 195 922 180 901 q 260 954 225 954 z "},"2":{"ha":744,"x_min":7,"x_max":764,"o":"m 368 997 l 380 997 q 669 851 552 997 q 744 629 744 752 q 622 355 744 478 q 698 320 662 349 q 749 252 739 283 q 764 190 764 218 l 764 170 q 723 64 764 118 q 663 18 689 27 q 595 0 626 0 l 182 0 q 28 95 81 0 q 7 176 7 140 l 7 189 q 100 346 7 268 q 204 448 202 448 l 204 450 l 201 450 q 189 448 194 450 q 28 541 88 448 q 7 633 7 582 q 144 916 7 797 q 368 997 246 997 m 359 988 l 355 988 q 106 869 212 988 q 26 659 26 774 l 26 656 q 25 651 26 652 q 91 526 25 575 q 174 501 130 501 q 306 579 258 501 q 325 659 325 612 q 364 690 336 690 q 401 659 391 690 q 403 652 403 656 l 403 650 q 340 574 401 627 q 58 294 60 298 q 25 203 25 254 q 73 92 25 144 q 189 52 111 52 l 550 52 q 650 74 622 52 q 722 202 722 121 q 641 335 722 288 q 561 351 612 351 l 541 351 l 541 352 q 636 454 630 439 q 701 646 701 545 l 701 653 q 572 917 701 810 q 371 988 480 988 l 368 988 q 364 989 366 988 l 359 988 m 340 954 l 355 954 q 570 842 479 954 q 625 677 625 768 l 625 673 q 505 442 625 547 l 380 317 l 547 317 q 642 256 618 317 q 646 227 646 240 l 646 224 q 589 141 646 170 q 547 135 572 135 l 163 135 q 76 188 98 135 q 66 226 66 208 l 66 233 q 120 316 66 271 q 418 612 418 610 q 444 675 444 644 q 388 764 444 732 q 347 773 368 773 q 257 717 288 773 q 246 656 246 694 q 230 621 241 636 q 157 585 199 585 q 72 644 99 585 q 66 675 66 661 q 188 905 66 815 q 340 954 257 954 m 367 629 l 367 629 q 366 609 367 622 q 385 629 378 621 q 378 637 385 633 l 374 637 q 367 629 367 636 z "},"3":{"ha":682,"x_min":7,"x_max":702,"o":"m 332 997 l 352 997 q 595 876 492 997 q 664 678 664 789 l 664 675 q 642 558 664 616 q 702 368 702 467 l 702 353 q 567 77 702 192 q 350 0 469 0 l 332 0 q 147 58 243 0 q 75 121 117 77 q 7 265 7 203 l 7 279 q 60 401 7 344 q 183 454 118 454 l 183 454 q 164 537 164 492 l 164 539 q 165 565 164 551 q 64 644 97 588 q 37 737 37 688 l 37 743 q 111 898 37 815 q 203 965 157 943 q 332 997 275 997 m 329 988 l 323 988 q 135 911 224 988 q 56 760 56 833 q 105 648 56 696 q 183 612 134 621 q 191 609 191 612 q 182 559 182 583 q 267 423 182 471 q 326 409 300 409 l 338 409 q 361 383 353 409 l 361 380 q 338 351 361 360 l 330 351 q 301 376 311 351 q 214 439 274 420 q 174 445 191 445 q 55 385 105 445 q 25 296 25 342 q 128 123 25 212 q 321 53 224 53 l 326 53 q 332 52 329 53 q 339 53 336 53 l 341 53 q 578 163 475 53 q 660 382 660 256 q 595 576 660 490 l 595 578 q 622 699 622 635 q 485 946 622 850 q 341 988 413 988 l 336 988 q 332 989 334 988 q 329 988 331 988 m 306 954 l 322 954 q 513 842 435 954 q 546 726 546 786 q 506 594 546 654 l 506 593 q 583 406 583 515 l 583 405 q 469 184 583 271 q 316 135 400 135 q 103 237 191 135 q 66 317 66 285 l 66 323 q 122 404 66 374 q 156 411 142 411 q 243 351 214 411 q 312 317 270 317 l 317 317 q 398 376 370 317 q 403 406 403 395 q 346 488 403 459 q 296 493 331 493 q 246 522 268 500 q 224 584 224 548 q 281 669 224 641 q 312 674 298 674 l 321 674 q 359 701 341 674 q 364 722 364 710 l 364 725 q 327 771 364 758 q 315 773 318 773 q 264 736 280 773 q 186 693 235 693 q 115 730 146 693 q 97 783 97 755 l 97 787 q 144 880 97 826 q 229 938 190 924 q 306 954 271 954 z "},"4":{"ha":774,"x_min":7,"x_max":795,"o":"m 526 997 l 537 997 q 672 930 613 997 q 711 821 711 879 l 711 480 q 787 382 767 441 q 795 336 795 353 l 795 317 q 766 228 795 275 q 711 174 748 201 q 644 39 711 98 q 541 0 592 0 l 521 0 q 425 35 475 0 q 382 78 402 53 q 356 141 359 115 q 353 146 355 146 l 201 146 q 71 189 117 146 q 24 250 36 222 q 7 323 7 289 l 7 332 q 61 460 7 393 q 397 937 378 912 q 526 997 455 997 m 25 349 q 85 228 25 281 q 185 199 123 199 l 368 199 q 373 173 371 199 q 416 94 386 121 q 520 52 462 52 q 627 98 581 52 q 669 211 669 139 l 669 213 q 690 227 672 216 q 753 351 753 274 q 702 462 753 414 q 669 484 688 473 l 669 836 q 574 979 669 935 q 519 989 543 989 q 398 926 448 989 q 46 425 390 914 q 25 349 25 387 m 498 954 l 509 954 q 580 911 547 954 q 593 859 593 888 l 593 463 l 594 463 q 661 424 630 463 q 676 374 676 400 l 676 373 q 616 288 676 315 q 593 283 602 283 l 593 233 q 527 138 593 161 q 503 135 513 135 q 418 191 446 135 q 412 226 412 208 l 412 283 l 161 283 q 70 349 92 283 q 66 371 66 361 l 66 375 q 102 451 66 408 q 379 846 102 452 q 437 928 428 916 q 498 954 466 954 m 304 471 l 412 471 l 412 624 q 304 471 408 620 z "},"5":{"ha":723,"x_min":7,"x_max":743,"o":"m 256 997 l 528 997 q 639 951 584 997 q 699 821 699 895 l 699 814 q 616 665 699 726 q 743 388 743 546 l 743 375 q 585 71 743 195 q 370 0 486 0 l 350 0 q 163 56 261 0 q 94 110 131 77 q 7 275 7 204 l 7 292 q 45 397 7 342 q 68 421 59 412 q 39 532 39 452 q 79 810 39 618 q 102 899 90 874 q 208 989 134 961 q 256 997 236 997 m 60 571 q 102 439 60 482 l 102 437 q 35 359 59 416 q 25 304 25 332 q 123 136 25 227 q 288 58 199 75 q 338 53 318 53 l 345 53 q 352 52 349 53 q 359 53 355 53 l 359 53 q 627 186 513 53 q 701 401 701 281 l 701 403 q 547 694 701 580 l 547 695 q 612 734 589 707 q 656 840 656 778 q 572 974 656 926 q 484 989 545 989 l 275 989 q 177 969 205 989 q 109 886 130 943 q 81 740 102 856 q 60 571 60 642 m 229 954 l 494 954 q 573 899 543 954 q 580 863 580 882 q 528 782 580 812 q 492 773 511 773 l 312 773 q 304 717 304 721 l 305 717 q 313 718 310 718 l 340 718 q 573 593 478 718 q 625 427 625 522 q 481 175 625 270 q 335 135 412 135 q 102 248 198 135 q 66 328 66 297 l 66 334 q 102 404 66 374 q 159 422 128 422 q 242 364 212 422 q 331 317 275 317 l 337 317 q 433 377 395 317 q 444 427 444 403 q 385 525 444 489 q 334 537 360 537 q 248 498 286 537 q 195 478 222 478 l 191 478 q 109 532 138 478 q 101 568 101 551 q 146 889 101 583 q 182 939 155 917 q 229 954 207 954 m 352 454 q 401 413 388 454 q 403 402 403 408 q 366 353 403 368 q 353 351 359 351 l 351 351 q 302 385 315 351 q 285 408 294 396 q 338 452 325 452 q 352 454 345 454 m 337 383 q 359 360 348 360 l 365 360 q 385 381 380 360 q 365 401 380 401 l 363 401 q 337 383 350 401 z "},"6":{"ha":747,"x_min":7,"x_max":768,"o":"m 418 997 l 425 997 q 567 922 507 997 q 600 814 600 872 q 568 715 600 766 q 746 511 690 649 q 768 390 768 447 l 768 373 q 629 86 768 208 q 393 0 522 0 l 380 0 q 93 138 214 0 q 7 373 7 245 l 7 391 q 85 614 7 503 q 276 926 251 888 q 418 997 335 997 m 25 401 q 171 117 25 230 q 374 52 262 52 q 663 202 549 52 q 726 404 726 290 q 576 690 726 576 q 514 724 522 724 q 543 775 514 726 q 557 836 557 806 l 557 842 q 493 962 557 913 q 412 988 454 988 l 406 988 q 287 926 334 988 q 83 595 277 913 q 25 401 25 509 m 386 954 l 395 954 q 467 911 436 954 q 481 866 481 888 l 481 860 q 458 800 481 834 l 406 714 q 543 652 492 697 q 649 425 649 560 q 521 185 649 279 q 357 135 448 135 q 111 271 206 135 q 66 424 66 340 l 66 428 q 124 603 66 521 q 320 922 304 897 q 386 954 350 954 m 248 427 q 321 322 248 355 q 353 317 340 317 l 359 317 q 457 378 421 317 q 467 423 467 401 l 467 431 q 404 528 467 491 q 362 536 381 536 l 351 536 q 260 479 296 536 q 248 427 248 453 m 376 454 q 427 413 411 454 q 427 402 427 406 q 391 353 427 370 q 378 351 383 351 l 371 351 q 329 380 346 351 q 324 397 324 389 l 324 407 q 357 451 324 434 q 376 454 370 454 m 367 380 l 367 378 q 384 360 371 360 l 389 360 q 408 378 408 364 l 408 380 q 395 399 408 393 q 386 401 392 401 q 368 387 372 401 q 367 380 367 384 z "},"7":{"ha":756,"x_min":7,"x_max":777,"o":"m 175 997 l 603 997 q 745 920 686 997 q 777 824 777 869 l 777 812 q 743 707 777 768 q 425 77 436 94 q 281 0 370 0 l 270 0 q 160 42 214 0 q 97 177 97 100 l 97 186 q 136 300 97 231 l 304 637 l 195 637 q 22 741 77 637 q 7 806 7 781 l 7 827 q 60 946 7 889 q 137 991 100 981 q 175 997 163 997 m 25 839 q 102 708 25 756 q 179 690 134 690 l 340 690 l 342 689 q 123 250 123 255 q 115 203 115 226 q 180 78 115 126 q 264 52 222 52 q 410 160 367 52 q 725 787 681 696 q 734 837 734 815 l 734 841 q 666 965 734 915 q 622 985 649 977 q 562 989 602 989 l 197 989 q 102 970 130 989 q 25 839 25 923 m 153 954 l 572 954 q 646 907 618 954 q 658 863 658 886 q 619 767 658 836 q 326 182 412 353 q 246 135 300 135 q 174 172 205 135 q 157 221 157 199 l 157 228 q 186 307 157 255 l 419 773 l 154 773 q 75 825 104 773 q 66 863 66 843 l 66 866 q 123 948 66 920 q 153 954 138 954 z "},"8":{"ha":703,"x_min":7,"x_max":723,"o":"m 357 997 l 373 997 q 591 903 495 997 q 685 678 685 808 l 685 677 q 663 558 685 614 q 723 368 723 468 l 723 352 q 585 75 723 190 q 371 0 488 0 l 359 0 q 83 136 198 0 q 7 352 7 233 l 7 368 q 67 558 7 469 q 45 677 45 614 l 45 678 q 182 941 45 838 q 357 997 265 997 m 348 988 l 344 988 q 150 905 237 988 q 63 699 63 819 q 90 577 63 639 l 90 576 q 25 378 25 490 q 159 115 25 220 q 353 52 246 52 q 618 186 512 52 q 681 381 681 271 q 616 576 681 490 q 643 701 643 635 q 511 943 643 848 q 362 988 439 988 l 358 988 q 353 989 355 988 l 348 988 m 328 954 l 343 954 q 537 838 459 954 q 567 726 567 783 q 526 594 567 654 q 604 404 604 515 q 471 171 604 259 q 335 135 408 135 q 100 271 189 135 q 66 401 66 332 l 66 408 q 144 594 66 513 l 144 595 q 104 726 104 653 q 170 884 104 817 q 328 954 240 954 m 286 720 q 323 675 286 689 q 332 674 329 674 l 338 674 q 384 713 372 674 q 385 722 385 718 l 385 725 q 347 772 385 758 q 335 773 336 773 q 286 731 298 773 l 286 720 m 248 406 q 272 344 248 370 q 333 317 298 317 l 337 317 q 418 372 389 317 q 424 405 422 384 q 368 487 424 458 q 337 492 351 492 l 332 492 q 254 439 281 492 q 248 406 248 422 m 357 409 q 380 389 372 409 q 382 379 382 384 q 358 351 382 360 l 350 351 q 324 374 334 351 l 323 380 q 347 409 323 401 l 357 409 z "},"9":{"ha":747,"x_min":7,"x_max":768,"o":"m 382 997 l 395 997 q 676 865 556 997 q 768 624 768 757 l 768 606 q 696 394 768 499 q 497 69 513 94 q 361 0 440 0 l 349 0 q 222 57 281 0 q 174 183 174 109 q 206 281 174 232 q 104 361 166 298 q 7 610 7 473 l 7 624 q 139 905 7 787 q 382 997 247 997 m 372 988 l 369 988 q 111 869 220 988 q 25 640 25 770 q 168 356 25 469 q 231 319 203 332 l 237 317 q 213 275 237 314 q 194 203 194 242 l 194 202 q 283 64 194 110 q 343 52 317 52 q 484 146 435 52 q 690 484 673 454 q 726 640 726 558 q 579 924 726 812 q 384 988 487 988 l 379 988 q 376 989 377 988 q 372 988 374 988 m 351 954 l 365 954 q 598 829 503 954 q 649 667 649 754 q 591 489 649 568 q 392 164 411 190 q 326 135 364 135 q 245 182 275 135 q 234 227 234 205 q 261 296 234 256 l 311 376 q 224 404 262 383 q 148 460 197 414 q 66 659 66 547 l 66 666 q 178 892 66 801 q 351 954 257 954 m 248 663 q 309 564 248 600 q 354 553 333 553 l 361 553 q 435 585 401 553 q 467 659 467 618 l 467 668 q 412 759 467 723 q 358 773 386 773 q 255 705 290 773 q 248 663 248 681 m 376 690 q 425 650 413 690 q 427 639 427 648 q 391 589 427 604 q 376 587 383 587 l 374 587 q 326 625 341 587 q 323 639 324 637 q 354 686 323 668 q 376 690 362 690 m 367 618 l 367 617 q 382 596 367 603 l 389 596 q 408 614 408 600 l 408 618 q 389 637 404 637 l 388 637 q 368 623 372 637 q 367 618 367 622 z "},"\u0000":{"ha":163,"x_min":0,"x_max":0,"o":""},"\u001d":{"ha":163,"x_min":0,"x_max":0,"o":""}," ":{"ha":475,"x_min":0,"x_max":0,"o":""}," ":{"ha":475,"x_min":0,"x_max":0,"o":""},"!":{"ha":345,"x_min":7,"x_max":365,"o":"m 176 997 l 195 997 q 304 952 250 997 q 349 892 336 921 q 365 827 365 854 l 365 410 q 315 294 365 351 q 362 203 359 243 q 365 183 365 192 l 365 166 q 283 27 365 86 q 195 0 236 0 l 176 0 q 59 50 116 0 q 7 166 7 104 l 7 183 q 48 284 7 233 q 57 294 57 294 q 7 410 7 350 l 7 827 q 48 933 7 880 q 100 976 80 967 q 176 997 142 997 m 172 988 l 166 988 q 56 931 106 988 q 25 835 25 890 l 25 445 q 92 317 25 361 l 92 314 q 31 237 52 291 q 25 195 25 214 q 101 70 25 115 q 173 52 138 52 q 302 121 253 52 q 323 195 323 155 q 256 315 323 267 l 256 316 q 323 442 323 365 l 323 840 q 241 973 323 926 q 181 988 208 988 l 175 988 q 174 989 174 988 l 172 988 m 151 954 l 160 954 q 241 897 212 954 q 247 865 247 880 l 247 464 q 193 382 247 412 q 155 374 176 374 q 73 431 100 374 q 66 462 66 447 l 66 867 q 116 945 66 916 q 151 954 134 954 m 152 304 l 160 304 q 243 245 215 304 q 247 220 247 229 l 247 219 q 188 140 247 167 q 155 135 170 135 q 74 184 103 135 q 66 216 66 200 l 66 222 q 115 295 66 268 q 152 304 132 304 z "},"\"":{"ha":512,"x_min":7,"x_max":534,"o":"m 158 997 l 174 997 q 271 955 222 997 q 368 997 317 997 l 382 997 q 496 937 444 997 q 534 830 534 884 l 534 643 q 477 516 534 573 q 382 476 431 476 l 368 476 q 271 518 317 476 q 174 476 222 476 l 158 476 q 54 526 104 476 q 7 643 7 582 l 7 830 q 56 949 7 892 q 158 997 105 997 m 153 988 l 145 988 q 72 956 111 988 q 24 842 24 910 l 24 673 q 92 545 24 591 q 154 526 124 526 q 259 585 216 526 l 260 585 q 363 526 301 526 q 479 605 437 526 q 492 670 492 638 l 492 846 q 431 968 492 921 q 370 988 399 988 l 364 988 q 363 989 363 988 l 361 988 l 354 988 q 276 952 317 988 q 260 931 260 933 l 259 931 q 186 985 231 972 q 161 988 170 988 l 155 988 q 155 989 155 988 l 153 988 m 135 955 l 140 955 q 207 892 186 955 q 210 869 210 881 l 210 695 q 164 614 210 641 q 137 608 150 608 q 69 665 92 608 q 65 692 65 680 l 65 869 q 111 950 65 923 q 135 955 123 955 m 344 955 l 348 955 q 416 892 395 955 q 418 866 418 879 l 418 698 q 367 611 418 635 q 346 608 353 608 q 278 665 300 608 q 274 695 274 679 l 274 869 q 320 950 274 923 q 344 955 331 955 z "},"#":{"ha":985,"x_min":7,"x_max":1006,"o":"m 422 997 l 435 997 q 552 950 498 997 q 579 918 574 928 l 581 918 q 679 990 611 966 q 722 997 704 997 l 736 997 q 850 951 795 997 q 910 817 910 893 q 909 795 910 814 q 908 794 908 795 q 996 694 966 766 q 1006 644 1006 664 l 1006 625 q 950 504 1006 562 q 920 479 939 492 q 968 358 968 428 q 871 197 968 255 q 793 178 830 178 l 779 178 q 761 109 768 122 q 722 51 750 81 q 603 0 665 0 l 591 0 q 476 44 531 0 q 446 79 458 62 l 445 79 q 393 28 425 48 q 303 0 348 0 l 290 0 q 186 37 238 0 q 117 174 117 99 l 117 192 q 22 283 54 219 q 7 347 7 319 l 7 367 q 68 493 7 435 q 93 511 85 507 l 93 511 q 45 633 45 567 q 131 787 45 728 q 246 815 173 815 q 284 922 258 886 q 382 991 323 972 q 422 997 408 997 m 418 988 l 412 988 q 308 940 359 988 q 272 868 281 910 q 258 806 260 806 l 233 806 q 136 784 166 806 q 64 656 64 736 q 138 526 64 575 l 138 525 q 64 480 102 518 q 25 379 25 437 q 103 248 25 296 q 138 235 115 241 l 138 233 q 135 201 136 218 q 197 80 135 130 q 284 52 241 52 q 404 113 355 52 q 429 163 420 132 q 433 185 433 182 l 435 185 l 435 184 q 470 104 435 151 q 515 68 496 76 q 583 52 553 52 q 711 123 662 52 q 730 172 722 142 q 743 231 741 231 l 783 231 q 899 293 848 231 q 926 379 926 334 q 850 510 926 460 l 850 511 q 934 566 907 527 q 964 656 964 606 q 895 782 964 734 q 863 798 878 793 l 863 800 q 868 839 867 820 q 801 964 868 913 q 726 988 760 988 l 722 988 q 719 989 720 988 q 715 988 717 988 l 711 988 q 602 934 653 988 q 576 886 584 910 q 570 857 570 860 l 568 857 q 547 917 568 878 q 463 982 518 963 q 427 988 440 988 l 421 988 q 420 989 420 988 l 418 988 m 401 955 q 478 911 446 955 q 492 865 492 888 q 475 771 492 852 l 589 771 q 618 904 612 889 q 675 950 635 936 q 696 954 685 954 l 705 954 q 783 902 753 954 q 791 865 791 880 q 773 771 791 850 l 779 771 q 848 755 830 771 q 887 680 887 726 q 827 594 887 622 q 798 590 810 590 l 736 590 q 715 495 734 590 l 753 495 q 844 436 817 495 q 850 404 848 427 q 798 322 850 352 q 744 313 781 313 l 677 313 q 647 184 654 203 q 568 135 616 135 q 477 203 503 135 q 475 220 475 214 l 475 228 q 491 313 475 237 l 378 313 q 350 190 356 206 q 267 135 321 135 q 185 188 213 135 q 176 224 176 205 l 176 227 q 192 313 176 237 l 170 313 q 94 340 116 313 q 66 404 66 365 l 66 406 q 122 488 66 458 q 162 495 139 495 l 231 495 l 251 590 l 195 590 q 111 647 139 590 q 105 677 105 662 l 105 684 q 151 759 105 729 q 213 771 167 771 l 290 771 q 322 908 312 892 q 401 955 353 955 m 436 590 l 416 495 l 530 495 l 550 590 l 436 590 z "},"$":{"ha":718,"x_min":7,"x_max":739,"o":"m 361 1126 l 383 1126 q 519 1059 455 1126 q 555 998 548 1023 q 645 926 589 982 q 739 692 739 814 l 739 671 q 694 556 739 614 q 679 541 691 555 q 739 352 739 453 l 739 328 q 646 94 739 203 q 564 26 591 38 q 551 11 554 22 q 458 -87 524 -54 q 383 -106 416 -106 l 361 -106 q 252 -65 309 -106 q 196 7 205 -24 q 184 24 189 24 q 26 217 73 92 q 7 328 7 275 l 7 349 q 60 472 7 412 q 66 478 62 472 l 66 479 q 7 667 7 568 l 7 692 q 96 922 7 812 q 168 985 144 971 q 192 1003 191 998 q 240 1074 197 1027 q 338 1123 294 1119 q 361 1126 353 1126 m 357 1116 l 352 1116 q 235 1057 289 1116 q 205 1000 207 1017 q 121 937 163 979 q 26 704 26 837 q 100 497 26 583 q 26 359 26 444 q 124 126 26 229 q 204 67 173 81 q 246 -3 212 34 q 360 -51 296 -51 q 501 31 448 -51 q 515 67 509 47 q 583 114 547 82 q 693 362 693 217 q 621 570 693 484 q 693 708 693 622 q 564 968 693 859 q 515 1000 534 989 q 496 1042 515 1008 q 410 1109 467 1088 q 370 1116 382 1116 l 364 1116 q 360 1117 362 1116 q 357 1116 359 1116 m 336 1080 l 345 1080 q 431 1021 398 1080 q 439 982 439 998 q 585 848 535 944 q 611 728 611 793 q 553 642 611 674 q 513 633 534 633 q 431 680 463 633 q 415 743 415 701 q 393 785 413 762 q 340 805 369 805 q 271 757 294 805 q 266 730 266 743 q 297 680 266 690 q 408 642 334 664 q 528 580 495 609 q 611 389 611 509 q 513 180 611 265 q 441 138 473 149 q 436 112 438 138 q 404 62 426 79 q 340 39 378 39 q 254 91 286 39 q 242 138 244 111 q 93 280 142 176 q 71 382 71 333 l 71 390 q 129 477 71 446 q 170 486 149 486 q 262 417 233 486 q 269 366 266 397 q 342 313 291 313 q 413 368 392 313 q 415 382 415 377 l 415 397 q 377 444 415 431 q 241 491 352 454 q 71 728 71 557 l 71 739 q 153 924 71 838 q 243 982 202 968 l 243 983 q 306 1074 243 1042 q 336 1080 323 1080 m 359 715 l 361 715 q 372 703 370 715 l 372 701 l 371 699 q 349 709 349 707 q 359 715 353 715 m 348 368 q 372 359 353 368 q 360 350 368 350 l 359 350 q 348 361 352 350 l 348 368 z "},"%":{"ha":864,"x_min":7,"x_max":888,"o":"m 623 1065 l 629 1065 q 772 1002 705 1065 q 827 864 827 941 l 827 855 q 787 732 827 804 q 676 504 688 530 q 743 482 713 496 q 820 423 774 468 q 888 256 888 345 l 888 239 q 777 34 888 120 q 627 -14 710 -14 q 454 53 530 -14 q 396 -24 443 19 q 276 -64 341 -64 l 263 -64 q 139 -17 201 -64 q 75 85 92 23 q 66 134 68 104 q 105 263 66 197 l 218 496 l 217 496 q 105 549 152 510 q 7 745 7 633 l 7 761 q 118 968 7 880 q 267 1013 185 1013 q 439 949 363 1013 q 440 949 440 949 q 538 1047 472 1015 q 623 1065 582 1065 m 434 913 q 254 1003 363 1003 l 252 1003 q 54 886 127 1003 q 28 777 28 835 q 146 577 28 651 q 257 551 199 551 q 258 551 257 551 q 97 218 118 265 q 88 165 88 191 q 172 18 88 71 q 257 -5 214 -5 q 422 117 372 -5 q 433 136 431 136 q 501 77 477 87 q 614 46 552 46 q 800 142 726 46 q 840 273 840 200 q 774 431 840 364 q 614 498 708 498 l 610 498 q 768 823 610 499 q 779 885 779 854 q 714 1020 779 966 q 616 1055 665 1055 l 606 1055 q 494 1010 547 1055 q 449 940 460 973 q 434 913 435 913 m 584 1016 l 595 1016 q 678 968 643 1016 q 693 913 693 941 q 659 821 693 881 l 328 144 q 236 89 299 89 q 150 137 184 89 q 135 185 135 165 l 135 196 q 172 290 135 223 q 505 970 488 940 q 569 1014 522 1000 q 584 1016 578 1016 m 232 964 l 234 964 q 343 920 297 964 q 392 812 392 871 l 392 801 q 298 659 392 711 q 232 646 264 646 q 90 736 141 646 q 75 799 75 771 l 75 814 q 136 932 75 878 q 232 964 179 964 m 180 804 q 220 753 180 768 q 231 752 226 752 l 236 752 q 272 768 256 752 q 287 806 287 783 q 255 854 287 838 q 232 859 245 859 q 180 817 195 859 l 180 804 m 595 459 q 742 361 692 459 q 753 300 753 331 q 666 157 753 209 q 593 140 634 140 q 464 209 516 140 q 435 300 435 250 q 510 435 435 382 q 595 459 548 459 m 541 301 q 585 246 541 258 q 594 245 594 246 l 595 246 l 600 246 q 646 283 630 246 q 648 295 648 290 l 648 303 q 608 352 648 338 q 595 354 597 353 q 542 311 555 354 q 541 301 541 306 z "},"&":{"ha":935,"x_min":7,"x_max":956,"o":"m 407 1065 l 428 1065 q 685 947 575 1065 q 760 732 760 856 q 752 662 760 701 q 862 566 827 633 q 884 475 884 519 q 847 340 884 427 q 945 229 914 307 q 956 174 956 193 l 956 152 q 920 47 956 102 q 809 -30 883 -7 q 768 -36 783 -36 l 747 -36 q 586 16 677 -36 l 585 16 q 400 -36 488 -36 l 377 -36 q 147 50 256 -36 q 75 126 91 100 q 7 336 7 225 l 7 350 q 113 606 7 484 q 84 739 84 675 l 84 750 q 161 951 84 857 q 241 1018 212 1004 q 407 1065 322 1065 m 104 766 q 140 623 104 700 q 27 365 27 509 q 153 102 27 212 q 373 21 253 21 q 572 80 477 21 q 606 61 574 80 q 734 22 679 22 l 739 22 q 744 21 743 22 q 892 111 839 21 q 909 189 909 146 q 829 330 909 275 q 789 346 813 338 l 789 348 q 837 495 837 452 l 837 502 q 770 631 837 577 q 701 661 736 655 q 698 664 698 663 q 712 749 712 709 l 712 760 q 566 1015 712 926 q 405 1056 492 1056 q 151 925 247 1056 q 104 766 104 849 m 375 1017 l 397 1017 q 576 935 496 1017 q 628 787 628 872 l 628 781 q 494 568 628 654 q 538 507 518 533 l 540 507 q 579 594 566 585 q 649 626 612 626 l 656 626 q 737 579 703 626 q 753 529 753 553 l 753 523 q 682 345 749 471 q 745 312 714 312 q 800 282 767 311 q 825 216 825 250 l 825 213 q 755 117 825 146 q 725 113 734 113 q 555 189 647 113 q 355 113 462 113 q 115 246 210 113 q 73 391 73 315 l 73 398 q 203 637 73 530 q 150 791 150 719 l 150 795 q 247 977 150 905 q 375 1017 311 1017 m 350 793 q 380 732 351 774 q 427 780 427 762 q 427 786 427 780 l 427 793 q 386 818 427 818 q 350 793 350 818 m 273 392 q 326 319 273 343 q 357 314 340 314 q 418 336 387 314 q 317 472 368 400 q 273 392 273 435 z "},"'":{"ha":304,"x_min":7,"x_max":325,"o":"m 158 998 l 174 998 q 286 939 234 998 q 325 831 325 886 l 325 644 q 277 526 325 581 q 174 477 229 477 l 158 477 q 47 534 99 477 q 7 644 7 588 l 7 831 q 56 949 7 893 q 158 998 104 998 m 153 989 l 145 989 q 72 956 111 989 q 24 843 24 911 l 24 674 q 92 545 24 592 q 154 527 124 527 q 260 589 220 527 q 283 669 283 627 l 283 848 q 224 967 283 919 q 161 989 191 989 l 155 989 q 155 990 155 989 l 153 989 m 135 956 l 139 956 q 205 899 184 956 q 210 869 210 884 l 210 697 q 158 612 210 637 q 137 608 144 608 q 71 661 94 608 q 65 695 65 676 l 65 869 q 111 951 65 924 q 135 956 123 956 z "},"(":{"ha":429,"x_min":7,"x_max":450,"o":"m 297 997 l 307 997 q 410 946 363 997 q 450 839 450 895 l 450 833 q 386 703 450 760 q 302 503 302 614 l 302 493 q 391 288 302 384 q 420 256 409 273 q 450 157 450 208 l 450 154 q 394 33 450 85 q 306 0 355 0 l 298 0 q 199 45 250 0 q 134 113 153 87 q 77 202 98 161 q 7 487 7 344 l 7 510 q 79 799 7 656 q 141 894 102 844 q 215 966 183 942 q 297 997 257 997 m 22 515 q 127 169 22 326 q 186 99 143 144 q 281 44 245 44 q 293 43 281 43 q 407 127 371 43 q 415 175 415 151 q 385 268 415 223 l 349 305 q 267 517 267 401 q 373 753 267 652 q 415 854 415 795 q 368 960 415 913 q 292 990 333 990 q 193 940 244 990 q 134 874 154 902 q 22 515 22 714 m 273 962 l 280 962 q 344 913 319 962 q 353 876 353 894 q 311 795 353 827 q 203 536 203 682 q 310 279 203 394 q 345 233 340 253 q 353 192 353 210 q 315 121 353 151 q 275 111 299 111 q 193 168 246 111 q 127 254 155 208 q 56 530 56 387 l 56 543 q 154 860 56 714 q 217 930 170 884 q 273 962 252 962 z "},")":{"ha":505,"x_min":75,"x_max":517,"o":"m 218 997 l 227 997 q 353 926 286 997 q 425 834 401 876 q 476 732 452 793 q 517 510 517 618 l 517 487 q 427 166 517 321 q 363 81 406 130 q 282 15 302 21 q 227 0 255 0 l 218 0 q 94 80 139 0 q 75 154 75 117 l 75 157 q 123 280 75 226 q 166 326 149 302 q 223 498 223 409 q 127 714 223 621 q 97 752 106 734 q 75 833 75 791 l 75 840 q 123 955 75 901 q 218 997 168 997 m 90 853 q 149 737 90 787 q 239 518 239 640 l 239 513 q 139 286 239 389 q 94 210 107 260 q 90 174 90 187 q 141 66 90 113 q 212 43 174 43 q 305 87 258 43 q 376 167 355 134 q 483 515 483 323 l 483 515 q 353 898 483 733 q 294 955 318 937 q 213 990 254 990 q 122 945 161 990 q 90 853 90 901 m 196 962 l 202 962 q 269 920 228 962 q 328 852 309 882 q 420 535 420 711 q 318 209 420 353 q 227 119 275 152 q 199 111 212 111 q 125 176 144 111 q 123 190 123 185 l 123 197 q 149 264 123 233 q 207 330 192 304 q 273 536 273 427 q 155 805 273 689 q 123 874 123 832 l 123 878 q 155 945 123 911 q 196 962 176 962 z "},"*":{"ha":484,"x_min":7,"x_max":501,"o":"m 187 996 l 197 996 q 254 982 225 996 q 319 996 281 996 q 424 947 375 996 q 457 861 457 903 l 457 860 q 501 762 501 816 l 501 752 q 459 656 501 701 q 454 631 457 656 q 438 589 448 606 q 357 526 411 545 q 319 519 338 519 l 309 519 q 254 534 281 519 q 192 519 224 519 q 113 544 151 519 q 66 596 77 572 q 54 626 60 606 q 49 657 51 637 q 9 731 22 679 q 7 753 7 743 l 7 764 q 50 861 7 816 q 88 951 50 907 q 187 996 135 996 m 66 880 l 66 868 q 22 777 22 830 l 22 775 q 65 684 22 721 l 65 682 q 64 676 65 678 q 110 587 64 627 q 180 562 145 562 q 245 579 216 562 q 304 561 272 561 q 406 618 366 561 q 423 672 423 648 l 423 683 q 467 773 467 720 l 467 776 q 424 867 467 829 l 424 873 q 370 970 424 932 q 307 989 338 989 q 245 972 273 989 l 244 972 q 186 989 215 989 l 180 989 q 86 939 125 989 q 66 880 66 907 m 166 962 l 174 962 q 231 920 208 962 q 292 962 250 962 q 357 921 332 962 q 363 892 363 905 l 363 892 q 355 859 363 878 l 355 859 q 385 846 372 856 q 406 795 406 823 l 406 794 q 370 734 406 754 q 354 730 364 732 q 362 699 362 713 l 362 694 q 321 635 362 659 q 293 627 304 627 q 231 669 251 627 q 170 628 209 628 l 168 628 q 105 667 130 628 q 97 696 97 683 q 106 731 97 713 q 73 746 93 731 q 54 793 54 767 l 54 798 q 85 852 54 832 q 106 859 98 859 q 98 894 98 880 q 136 954 98 930 q 166 962 151 962 z "},"+":{"ha":808,"x_min":7,"x_max":833,"o":"m 409 908 l 431 908 q 536 867 481 908 q 602 729 602 807 l 602 678 l 633 678 q 757 643 717 678 q 810 585 793 616 q 833 504 833 541 l 833 484 q 794 381 833 434 q 655 313 734 313 l 602 313 l 602 260 q 517 109 602 170 q 429 81 471 81 l 409 81 q 303 123 358 81 q 252 191 262 163 q 237 276 237 223 l 237 313 l 185 313 q 41 387 102 313 q 7 484 7 437 l 7 504 q 66 631 7 571 q 119 665 91 651 q 207 678 152 678 l 237 678 l 237 713 q 290 854 237 804 q 386 905 321 890 q 409 908 403 908 m 404 899 l 400 899 q 298 852 345 899 q 256 755 256 805 l 256 671 q 255 669 256 669 l 191 669 q 74 627 112 669 q 50 600 65 622 q 26 517 26 561 q 105 384 26 431 q 170 366 139 366 l 255 366 q 256 364 256 366 l 256 279 q 321 161 256 214 q 408 134 363 134 q 533 200 484 134 q 559 296 559 236 l 559 364 q 562 366 560 366 l 646 366 q 758 422 707 366 q 791 517 791 465 q 703 656 791 606 q 626 669 673 669 l 562 669 q 559 671 559 669 l 559 738 q 491 875 559 830 q 416 899 453 899 l 412 899 q 408 900 410 899 q 404 899 406 899 m 387 865 l 394 865 q 476 806 448 865 q 482 767 482 789 l 482 634 l 612 634 q 692 599 667 634 q 713 543 713 575 l 713 540 q 659 458 713 488 q 608 450 642 450 l 482 450 l 482 319 q 415 222 482 245 q 390 219 400 219 q 323 249 351 219 q 298 324 298 272 l 298 450 l 170 450 q 75 506 98 450 q 67 542 67 519 l 67 544 q 125 628 67 600 q 168 634 142 634 l 298 634 l 298 762 q 332 843 298 819 q 387 865 355 865 z "},",":{"ha":345,"x_min":7,"x_max":365,"o":"m 176 334 l 195 334 q 301 294 248 334 q 365 168 365 237 l 365 155 q 243 -102 365 -3 q 146 -144 189 -144 l 138 -144 q 46 -91 85 -144 q 28 -24 28 -59 q 47 52 28 7 q 11 121 22 79 q 7 153 7 140 l 7 168 q 81 303 7 243 q 176 334 132 334 m 170 326 l 168 326 q 52 264 100 326 q 25 182 25 227 q 72 79 25 123 l 72 78 q 47 -5 47 33 q 86 -79 47 -51 q 127 -92 107 -92 l 132 -92 q 264 -4 190 -92 q 323 183 323 73 q 245 309 323 262 q 182 326 210 326 l 178 326 q 174 326 176 326 q 170 326 172 326 m 152 292 l 160 292 q 239 240 212 292 q 247 207 247 226 q 152 9 247 79 q 116 -9 130 -7 l 110 -9 q 88 18 93 -9 l 88 23 q 112 87 88 43 q 122 129 122 113 q 66 205 66 155 l 66 210 q 109 279 66 251 q 152 292 129 292 z "},"-":{"ha":648,"x_min":7,"x_max":668,"o":"m 178 676 l 497 676 q 591 643 541 676 q 663 542 645 604 q 668 503 668 515 l 668 484 q 636 389 668 439 q 541 320 602 340 q 497 312 514 312 l 178 312 q 59 364 118 312 q 7 484 7 423 l 7 503 q 49 611 7 556 q 112 659 90 653 q 178 676 146 676 m 26 515 q 104 383 26 431 q 197 364 132 364 l 454 364 q 557 389 526 364 q 625 517 625 435 q 547 649 625 600 q 452 668 517 668 l 200 668 q 99 646 127 668 q 33 563 56 623 q 26 515 26 538 m 177 633 l 440 633 q 517 609 496 633 q 548 540 548 583 q 495 458 548 486 q 452 449 479 449 l 161 449 q 96 474 121 449 q 67 538 67 502 l 67 543 q 120 625 67 595 q 177 633 135 633 z "},"­":{"ha":648,"x_min":7,"x_max":668,"o":"m 178 676 l 497 676 q 591 643 541 676 q 663 542 645 604 q 668 503 668 515 l 668 484 q 636 389 668 439 q 541 320 602 340 q 497 312 514 312 l 178 312 q 59 364 118 312 q 7 484 7 423 l 7 503 q 49 611 7 556 q 112 659 90 653 q 178 676 146 676 m 26 515 q 104 383 26 431 q 197 364 132 364 l 454 364 q 557 389 526 364 q 625 517 625 435 q 547 649 625 600 q 452 668 517 668 l 200 668 q 99 646 127 668 q 33 563 56 623 q 26 515 26 538 m 177 633 l 440 633 q 517 609 496 633 q 548 540 548 583 q 495 458 548 486 q 452 449 479 449 l 161 449 q 96 474 121 449 q 67 538 67 502 l 67 543 q 120 625 67 595 q 177 633 135 633 z "},".":{"ha":1049,"x_min":68,"x_max":973,"o":"m 68 -56 l 68 1104 l 973 1104 l 973 -56 l 68 -56 m 112 -15 l 928 -15 l 928 1063 l 112 1063 l 112 -15 m 178 932 l 197 932 q 225 896 217 932 q 227 872 227 880 l 227 869 l 211 869 l 211 871 q 197 894 208 894 l 176 894 q 163 875 168 894 q 174 856 167 856 q 183 854 174 854 l 199 854 q 231 817 218 854 q 233 783 233 802 q 207 715 233 731 q 197 713 201 713 l 184 713 q 151 754 160 713 l 151 791 l 162 791 q 173 757 162 772 q 183 751 179 751 l 199 751 q 212 762 204 751 q 218 783 218 775 l 218 785 q 197 816 214 816 q 193 817 197 817 l 177 817 q 151 846 157 817 l 151 901 q 178 932 157 932 m 256 932 l 271 932 l 271 874 l 285 874 l 285 836 l 271 836 l 271 725 q 284 690 271 698 q 290 689 287 689 l 290 652 l 287 652 q 257 698 264 652 q 256 711 256 702 l 256 836 l 244 836 l 244 874 l 256 874 l 256 932 m 441 932 l 456 932 l 456 713 l 441 713 l 441 718 q 430 713 434 713 l 414 713 q 386 757 389 713 l 386 832 q 406 873 386 859 l 412 874 l 427 874 q 441 869 436 874 l 441 932 m 474 932 l 489 932 l 489 894 l 474 894 l 474 932 m 587 932 l 680 932 l 680 894 l 640 894 l 640 713 l 625 713 l 625 894 l 587 894 l 587 932 m 541 875 l 545 875 q 569 861 564 875 q 578 825 578 849 l 578 764 q 557 715 578 726 q 551 713 555 713 l 535 713 q 507 758 511 713 l 507 830 q 527 873 507 860 q 541 875 533 875 m 875 875 l 879 875 q 903 861 898 875 q 909 848 909 854 l 909 741 q 885 713 901 713 l 869 713 q 841 757 846 713 l 841 830 q 861 873 841 860 q 875 875 867 875 m 300 874 l 316 874 l 316 773 q 328 751 316 755 l 345 751 q 357 777 355 751 l 357 874 l 372 874 l 372 713 l 357 713 l 357 718 q 345 713 350 713 l 329 713 q 300 751 307 713 l 300 874 m 474 874 l 489 874 l 489 713 l 474 713 l 474 874 m 671 874 l 686 874 l 686 779 q 702 751 686 751 l 713 751 q 728 772 726 751 l 728 874 l 743 874 l 743 703 q 718 652 742 658 l 671 652 l 671 690 l 710 690 q 728 713 728 690 l 728 718 q 709 712 722 712 l 706 712 q 679 728 685 712 q 671 773 671 738 l 671 874 m 758 874 l 772 874 l 772 869 q 783 874 778 874 l 799 874 q 827 828 823 874 l 827 769 q 808 718 827 728 q 797 715 805 715 l 788 715 q 772 720 778 715 l 772 656 l 758 656 l 758 874 m 522 814 l 522 773 q 534 751 522 756 l 551 751 q 563 774 563 755 l 563 813 q 546 837 563 837 l 536 837 q 526 830 529 837 q 522 814 522 823 m 772 773 q 787 753 772 755 l 795 753 q 811 764 807 753 q 812 774 812 771 l 812 814 q 799 837 810 837 l 787 837 q 772 817 774 837 l 772 773 m 856 814 l 856 773 q 869 751 856 756 l 885 751 q 897 774 897 755 l 897 813 q 880 837 897 837 l 871 837 q 860 830 863 837 q 856 814 856 823 m 400 814 l 400 772 q 413 751 403 751 l 429 751 q 441 780 441 751 l 441 805 q 432 835 441 829 l 428 836 l 413 836 q 400 814 400 832 m 319 696 l 325 696 l 325 684 l 329 684 q 336 673 336 684 l 336 651 l 330 651 l 330 671 q 328 676 330 675 l 327 676 q 325 670 325 676 l 325 651 l 319 651 l 319 696 m 530 696 l 535 696 l 535 684 l 539 684 q 546 669 546 684 l 546 651 l 540 651 l 540 675 l 536 676 l 535 673 l 535 651 l 530 651 l 530 696 m 621 696 l 627 696 l 627 684 l 630 684 l 630 676 l 627 676 l 627 665 q 631 660 627 660 l 631 651 l 630 651 q 621 663 623 651 l 621 676 l 619 676 l 619 684 l 621 684 l 621 696 m 305 684 l 313 684 q 316 677 315 684 l 316 675 l 311 673 q 309 676 311 676 l 309 676 q 307 673 307 676 l 307 664 l 307 660 l 309 660 q 311 663 311 660 l 316 661 l 316 659 q 309 651 315 651 q 300 660 300 652 l 300 675 q 305 684 300 681 m 345 684 l 349 684 q 356 667 356 684 q 347 651 356 651 q 340 661 340 652 l 340 675 q 345 684 340 682 m 364 684 l 370 684 q 376 675 376 681 l 376 660 q 367 651 376 652 q 359 665 359 651 l 359 671 q 364 684 359 682 m 382 684 l 389 684 q 392 672 392 680 l 390 672 q 393 662 393 667 q 386 651 393 651 q 378 661 378 652 l 378 665 l 382 665 l 382 666 q 378 672 378 667 l 378 676 q 382 684 378 682 m 400 684 l 408 684 q 412 676 412 681 l 412 666 l 402 666 l 402 661 q 404 660 402 660 l 406 660 l 406 664 l 412 664 l 412 661 q 404 651 412 651 q 396 669 396 651 l 396 669 q 400 684 396 681 m 426 684 l 431 684 l 431 667 l 432 660 l 436 660 l 437 664 l 437 684 l 442 684 l 442 649 q 437 640 442 642 l 431 640 q 427 653 427 640 l 429 653 q 426 665 426 656 l 426 684 m 451 684 l 458 684 q 463 671 463 682 l 463 665 q 455 651 463 651 q 446 660 446 652 l 446 675 q 451 684 446 681 m 466 684 l 472 684 l 472 661 q 473 660 473 660 l 476 660 l 477 664 l 477 684 l 482 684 l 482 651 l 475 651 q 466 667 466 651 l 466 684 m 486 684 l 497 684 l 497 676 q 492 671 492 676 l 492 651 l 486 651 l 486 684 m 515 684 l 522 684 q 527 675 527 682 q 521 673 524 673 q 519 676 521 676 l 517 676 q 517 675 517 676 l 517 661 q 517 660 517 660 l 521 660 l 521 663 l 523 663 q 527 659 527 661 q 517 651 527 652 q 510 669 510 651 l 510 669 q 515 684 510 681 m 553 684 l 559 684 q 564 669 564 684 l 564 662 q 566 656 566 656 l 564 650 l 562 650 q 561 652 561 650 q 556 650 558 650 l 555 650 q 549 662 549 654 q 551 671 549 668 l 551 672 l 549 672 l 549 676 q 553 684 549 682 m 568 684 l 578 684 l 578 676 q 573 671 573 676 l 573 651 l 568 651 l 568 684 m 585 684 l 593 684 q 597 673 597 682 l 597 662 q 599 658 597 659 q 596 650 597 650 l 594 650 q 593 652 594 652 q 589 650 591 650 q 582 660 583 650 l 582 665 q 585 672 582 669 l 582 672 l 582 675 q 585 684 583 684 m 605 684 l 612 684 q 616 675 616 682 q 611 673 614 673 q 609 676 611 676 l 608 676 q 607 675 607 676 l 607 661 q 608 660 607 660 l 610 660 q 611 663 611 660 l 613 663 q 616 659 616 661 q 608 651 616 651 q 601 669 601 651 q 605 684 601 681 m 639 684 l 643 684 q 650 675 650 684 l 650 666 l 640 666 l 640 661 q 641 660 640 660 l 642 660 q 644 664 644 660 l 650 664 q 641 651 650 651 q 634 661 634 652 l 634 675 q 639 684 634 682 m 654 684 l 665 684 l 665 676 q 659 671 659 676 l 659 651 l 654 651 l 654 684 m 347 676 l 345 673 l 345 661 q 347 660 345 660 l 348 660 q 350 661 350 660 l 350 675 l 347 676 m 364 670 l 364 666 q 367 660 364 661 l 370 660 l 370 664 l 370 673 q 368 676 370 675 l 367 676 q 364 670 364 676 m 384 676 l 384 673 l 387 673 l 387 676 l 384 676 m 402 675 l 406 675 q 404 676 406 676 l 404 676 q 402 675 402 676 m 452 673 l 452 664 l 452 660 l 455 660 q 457 666 457 661 l 457 670 q 455 676 457 676 l 454 676 q 452 673 453 676 m 555 675 l 555 673 l 557 673 l 557 676 l 556 676 q 555 675 555 676 m 587 675 l 587 673 l 591 673 l 591 676 l 589 676 q 587 675 587 676 m 641 676 l 640 675 l 644 675 l 644 675 l 641 676 m 384 665 l 384 661 q 386 660 384 660 l 387 660 q 388 662 387 662 q 387 665 387 664 l 384 665 m 555 664 l 555 661 q 556 659 555 659 q 557 661 557 659 l 557 665 l 556 665 q 555 664 555 665 m 587 664 l 587 663 l 588 659 l 589 659 q 591 665 591 660 l 589 665 q 587 664 587 665 m 432 651 l 432 649 q 434 648 433 648 l 434 648 q 437 650 435 648 l 437 651 l 432 651 m 492 536 l 494 536 l 501 536 l 501 524 q 503 438 503 476 l 498 437 l 494 437 q 492 530 492 485 l 492 532 l 492 536 m 830 536 l 831 536 l 840 536 q 840 527 840 530 q 842 438 840 490 l 834 437 l 831 437 q 829 524 830 476 q 830 536 830 532 m 536 533 l 538 533 q 543 525 538 532 q 541 505 541 513 l 541 492 q 551 453 541 463 l 551 453 q 575 532 566 453 l 576 532 q 585 530 585 530 q 581 471 581 490 q 589 450 581 450 q 591 437 591 439 l 585 437 q 572 458 576 437 l 571 458 q 553 439 564 439 l 549 439 q 531 481 536 439 q 530 496 530 484 l 530 503 q 536 533 530 520 m 742 533 l 746 533 q 765 514 754 533 q 773 484 773 499 l 773 478 q 746 439 773 453 q 736 437 741 437 l 732 437 q 708 466 711 437 l 708 472 q 735 532 708 506 q 742 533 741 533 m 169 530 l 175 530 q 194 503 194 527 q 172 470 194 480 q 153 465 163 467 l 153 440 l 153 440 q 143 442 149 440 l 143 465 l 140 465 l 136 466 q 140 479 136 473 l 143 479 l 143 479 q 139 507 143 507 q 135 514 135 511 q 169 530 147 530 m 718 472 l 718 467 q 735 450 718 452 q 760 469 750 450 q 764 481 764 474 l 764 483 q 746 519 764 501 q 744 520 744 519 q 720 486 732 520 q 718 472 718 479 m 152 512 q 153 480 153 488 q 153 479 153 480 q 178 490 173 483 q 184 503 184 497 q 174 517 184 515 l 170 517 q 152 512 152 515 m 274 514 q 293 481 287 514 q 283 478 292 481 q 274 500 279 500 q 260 450 262 494 q 261 439 261 440 q 251 438 254 438 q 242 497 242 485 q 252 498 250 498 l 252 498 q 254 485 252 495 l 255 485 q 274 514 262 514 m 364 510 q 387 488 378 510 q 388 477 388 482 l 388 475 q 364 439 388 450 q 358 438 361 438 q 340 464 340 441 q 357 508 340 498 q 364 510 358 509 m 416 510 q 441 450 429 510 q 441 445 441 450 q 433 440 436 440 q 418 494 423 482 q 406 447 412 486 q 402 440 405 447 l 397 440 q 391 479 393 440 q 390 494 390 488 q 399 496 395 496 q 401 482 401 484 l 402 482 q 416 510 407 510 m 804 510 q 827 445 814 510 q 819 440 821 440 q 802 494 808 485 q 789 444 798 486 q 787 440 787 440 l 783 440 q 776 494 778 440 q 786 496 780 496 q 787 481 787 483 l 787 481 q 804 510 792 510 m 320 509 q 332 497 332 505 l 332 496 q 326 491 332 495 l 325 491 q 316 496 322 496 q 305 488 307 496 q 325 484 305 485 q 338 461 338 477 q 325 438 338 444 l 319 437 l 316 437 q 293 452 300 437 l 293 453 q 299 460 294 455 l 300 460 q 319 450 308 450 q 328 461 328 453 q 314 471 326 471 q 295 486 295 471 l 295 488 q 320 509 295 509 m 618 509 q 632 496 627 509 l 632 496 q 623 491 625 491 q 615 496 623 495 q 604 489 607 496 l 604 488 q 623 484 604 485 q 636 460 636 478 q 620 437 636 442 l 614 437 q 591 452 599 437 l 591 453 q 597 460 596 460 l 598 460 q 616 450 606 450 q 626 461 626 453 q 615 471 626 469 q 595 479 598 471 q 593 488 593 486 q 618 509 593 509 m 847 508 l 847 508 q 857 507 856 507 q 856 489 856 494 l 856 483 q 865 459 857 459 l 865 459 q 878 505 878 468 l 878 505 l 888 505 l 888 503 q 892 443 892 450 q 872 405 892 412 q 869 405 871 405 l 865 405 q 850 418 853 405 q 849 425 849 421 l 849 425 q 851 435 849 435 l 852 435 q 860 431 858 431 l 859 425 q 865 418 859 419 l 867 418 q 882 447 882 418 q 882 461 882 450 l 881 461 q 863 445 876 445 l 863 445 q 846 477 850 445 l 846 488 q 847 508 846 495 m 224 507 q 240 492 240 505 l 240 488 q 214 464 240 475 l 207 464 q 218 453 207 456 q 233 465 226 453 l 235 465 q 241 455 241 457 q 220 440 229 440 l 216 440 q 195 471 198 440 q 217 507 195 498 l 224 507 m 462 507 l 469 507 q 488 477 488 501 q 487 453 487 463 q 488 442 487 453 q 479 437 482 437 l 479 437 l 477 444 q 462 439 469 439 l 457 439 q 442 453 442 441 l 442 458 q 464 482 442 479 q 477 478 471 481 l 477 479 q 466 496 475 496 q 454 489 460 496 l 452 489 q 446 496 450 490 l 446 498 q 462 507 454 507 m 667 507 q 683 492 683 505 q 654 464 683 472 l 650 464 l 650 463 q 661 453 654 453 q 676 465 667 453 l 677 465 q 683 457 677 465 q 669 442 683 451 q 663 440 666 440 l 658 440 q 638 470 642 440 q 659 507 638 497 l 667 507 m 350 465 q 358 452 351 452 l 360 452 q 378 476 376 457 l 378 478 q 364 496 374 496 l 363 496 q 351 474 354 496 q 350 465 350 469 m 207 478 q 229 490 220 478 l 229 492 q 223 493 224 493 q 207 480 212 493 l 207 478 m 650 478 l 652 478 q 673 491 663 478 q 667 493 669 493 l 665 493 q 650 479 654 493 l 650 478 m 452 457 l 452 455 q 459 451 452 453 q 476 463 471 451 q 463 467 471 467 q 452 457 452 465 m 419 369 q 429 346 428 369 l 429 344 l 425 343 l 424 343 q 418 357 422 357 q 413 345 414 357 q 414 342 414 343 q 415 315 414 335 q 421 317 418 317 l 423 317 l 423 307 l 416 305 q 419 258 419 267 l 412 258 q 409 302 409 295 l 408 302 q 401 301 405 301 l 401 313 q 408 314 406 313 q 406 349 406 328 q 418 369 408 369 l 419 369 m 553 369 q 564 344 562 369 l 559 343 l 557 343 l 557 344 q 553 357 557 354 q 547 347 547 354 q 549 316 547 342 q 549 315 549 316 q 556 317 553 317 l 557 317 l 557 312 l 557 307 q 549 305 557 307 l 551 303 q 553 258 551 295 l 546 258 q 543 302 546 262 q 535 301 537 301 l 535 313 l 543 313 q 541 349 541 345 q 553 369 541 369 m 481 357 l 484 357 l 488 357 l 488 351 q 490 262 488 310 l 482 262 q 481 331 481 306 l 481 357 m 498 357 l 499 357 l 505 357 l 505 337 q 507 262 505 315 l 499 262 q 497 354 497 307 l 497 356 q 498 357 497 357 m 359 355 q 366 354 364 354 q 364 326 364 334 l 366 326 l 374 327 l 374 315 q 364 314 373 315 l 367 264 l 366 262 l 360 262 q 357 313 358 282 l 348 313 l 348 324 l 355 325 l 357 325 l 357 337 q 359 355 357 355 m 674 355 q 682 354 676 355 q 680 334 680 345 l 680 326 l 682 326 l 690 327 l 690 315 l 688 315 l 680 314 l 684 264 l 680 262 l 676 262 q 674 313 674 304 l 664 313 l 665 319 l 665 324 l 672 325 l 673 325 l 673 326 q 674 355 673 340 m 773 355 q 781 354 775 355 q 780 331 780 342 l 780 326 l 781 326 l 789 327 l 789 321 l 789 315 q 780 314 789 315 l 780 310 q 783 264 780 300 l 781 262 l 775 262 l 772 313 l 764 313 l 764 324 l 771 325 l 772 325 l 773 355 m 274 353 l 281 353 q 296 338 290 353 q 292 332 292 334 l 290 332 q 276 342 284 342 q 252 324 264 342 q 246 301 246 311 l 246 298 q 262 274 246 278 q 268 273 264 273 q 289 287 289 275 l 289 294 q 281 296 286 296 l 274 296 l 274 307 q 296 301 293 307 q 298 295 298 296 q 296 275 296 278 q 299 258 296 268 q 294 254 298 258 l 293 254 q 289 269 290 254 q 269 261 285 264 l 268 261 q 239 296 242 261 l 239 298 q 269 352 239 338 l 274 353 m 587 332 q 610 306 603 332 l 610 296 q 587 262 610 273 l 583 262 q 566 275 572 262 q 565 287 565 283 l 565 290 q 578 328 565 317 q 587 332 583 332 m 640 332 q 663 268 650 332 l 662 268 q 656 265 659 265 q 640 319 646 311 q 624 265 635 314 l 623 264 l 620 264 q 614 316 616 264 l 619 317 l 621 317 q 623 295 623 307 l 623 295 q 640 332 629 332 m 330 329 q 344 315 344 326 q 345 314 345 315 q 321 290 345 298 q 311 288 317 288 l 311 287 q 322 275 311 279 l 323 275 q 338 286 330 275 l 340 286 q 345 280 340 285 l 345 279 q 325 264 335 264 l 321 264 q 302 286 308 264 l 302 296 q 320 328 302 319 q 330 329 323 329 m 734 329 l 742 329 q 758 310 753 329 q 760 298 760 299 q 758 280 760 294 q 760 264 760 277 l 755 262 l 753 262 l 751 270 q 734 262 745 262 l 732 262 q 718 276 718 264 l 718 281 q 738 303 720 303 q 752 298 746 303 l 752 300 q 740 319 752 317 l 738 319 q 726 314 734 319 l 726 314 q 722 319 725 314 l 722 320 q 734 329 728 329 m 430 328 q 437 326 431 328 q 447 275 437 275 q 466 320 460 283 q 467 328 467 323 l 467 328 q 474 326 469 328 q 472 295 472 309 l 472 287 q 475 274 472 281 q 472 267 472 269 l 471 267 q 465 284 466 269 l 464 284 q 451 264 461 274 l 445 264 q 431 315 431 264 l 431 322 l 430 328 m 572 290 q 582 274 573 274 l 583 274 q 601 291 593 274 q 603 298 603 296 q 588 319 599 319 l 585 319 q 572 290 575 319 m 310 298 q 336 313 326 298 q 329 317 335 317 l 327 317 q 310 298 314 317 m 724 279 q 732 274 726 274 l 736 274 q 751 286 745 274 q 739 292 745 292 l 738 292 q 724 279 724 290 m 344 200 q 355 197 345 200 q 352 135 353 172 q 359 88 352 112 q 351 81 351 81 l 350 81 q 346 90 348 81 l 345 90 q 330 79 345 85 q 298 108 308 79 q 296 127 296 116 q 319 166 296 159 l 322 166 q 342 155 332 166 l 342 156 q 344 200 342 161 m 214 196 l 224 193 q 223 168 223 177 l 223 159 q 233 161 232 161 q 235 144 235 147 l 233 144 q 223 144 227 144 q 227 82 225 101 q 215 81 218 81 l 215 81 q 212 141 212 123 l 210 142 l 201 142 l 201 159 l 211 159 l 211 165 q 214 196 211 196 m 457 196 l 458 196 l 468 193 q 467 162 467 174 l 467 159 q 477 161 476 161 l 478 151 l 478 144 q 467 143 467 144 q 471 82 467 127 q 459 81 462 81 l 459 81 q 456 142 456 132 l 444 142 l 444 159 l 455 159 q 457 196 455 182 m 370 194 q 378 184 376 194 l 378 184 q 372 173 378 176 l 368 173 q 362 184 362 176 q 370 194 363 194 m 412 166 q 439 140 429 166 q 441 129 441 133 l 441 123 q 414 82 441 96 q 406 81 412 81 q 384 109 387 81 l 384 118 q 404 165 384 153 q 412 166 411 166 m 543 166 l 546 166 q 553 164 553 166 l 553 163 q 566 166 559 166 q 589 136 583 166 q 589 127 589 129 q 568 83 587 92 l 563 83 l 556 83 l 557 77 q 557 50 557 73 l 546 50 q 543 166 543 140 m 621 166 q 647 142 636 166 q 650 126 650 134 q 624 82 650 97 q 614 81 618 81 q 593 99 600 81 q 592 115 592 107 q 612 165 592 151 q 621 166 620 166 m 758 166 q 784 142 774 166 q 787 130 787 137 l 787 124 q 760 82 787 95 q 751 81 758 81 q 730 109 732 81 l 730 118 q 750 165 730 153 q 758 166 757 166 m 821 166 q 840 127 833 166 l 840 127 q 859 166 846 166 l 859 166 q 886 86 876 166 l 885 86 q 876 83 878 83 l 876 83 q 859 149 863 149 q 847 94 852 134 q 840 87 845 87 q 833 97 835 87 q 820 149 824 149 q 809 85 809 109 q 798 83 802 83 l 798 83 l 789 154 q 801 158 798 158 q 804 137 802 153 l 805 137 q 821 166 811 166 m 175 165 q 191 151 191 162 l 191 151 q 183 144 191 149 l 181 144 q 172 150 181 149 l 172 150 q 158 143 163 150 l 158 140 q 179 136 158 136 q 197 111 197 128 l 197 107 q 182 81 197 88 q 176 79 179 79 l 170 79 q 143 96 154 79 q 151 107 143 100 l 153 107 q 173 95 158 95 q 185 109 185 95 q 171 121 185 119 q 149 129 153 121 q 146 137 146 134 l 146 142 q 175 165 146 165 m 484 165 q 494 162 492 162 q 493 139 493 146 l 493 135 q 501 105 493 113 l 505 105 q 519 154 519 117 l 519 161 l 531 161 l 531 160 q 536 90 536 100 l 536 83 q 517 43 536 54 q 507 40 511 40 q 487 54 492 40 q 486 60 486 56 l 486 66 q 488 76 486 76 l 498 71 l 497 66 l 497 63 q 505 56 497 58 l 507 56 q 524 79 521 56 q 525 87 525 81 l 525 100 l 524 109 l 524 109 q 504 89 517 89 l 503 89 q 482 123 487 89 q 481 136 481 128 l 481 142 q 484 165 481 165 m 701 164 l 706 164 q 716 158 710 164 q 724 146 724 150 q 715 137 716 137 l 715 137 q 703 147 708 147 l 702 147 q 690 128 694 144 l 687 114 q 696 98 687 99 l 699 98 q 722 109 706 98 l 722 109 q 726 94 726 95 q 694 81 709 81 q 675 113 679 81 q 688 156 675 136 q 701 164 696 164 m 364 163 l 372 163 l 376 162 q 376 157 376 160 q 378 83 376 111 l 366 83 l 366 88 q 364 163 364 134 m 237 162 q 249 158 249 159 l 249 144 q 257 99 249 99 l 260 99 q 277 136 272 112 q 281 162 280 143 l 282 162 q 292 158 292 161 q 290 118 290 130 l 290 111 q 294 98 290 104 q 287 85 294 94 l 287 85 q 279 102 279 94 l 278 102 q 259 83 271 83 l 257 83 q 237 146 237 83 l 237 162 m 308 124 q 328 97 308 101 l 330 97 q 340 115 338 97 l 340 117 q 326 149 340 141 l 322 150 l 321 150 q 308 126 309 150 l 308 124 m 395 114 q 406 97 395 99 l 408 97 q 428 117 418 97 q 429 123 429 119 l 429 129 q 413 150 425 150 l 412 150 q 395 114 397 150 m 553 144 q 555 99 553 142 l 560 98 q 578 127 575 98 q 566 150 576 150 l 566 150 q 553 144 559 150 m 604 114 l 604 111 q 614 97 604 99 l 615 97 q 635 115 626 97 q 638 127 638 120 q 619 150 634 150 q 604 114 606 150 m 741 114 q 752 97 741 97 l 754 97 q 774 117 764 97 q 775 124 775 121 l 775 129 q 758 150 770 150 l 758 150 q 741 114 744 150 m 663 104 q 671 95 669 104 l 671 92 q 663 83 669 83 q 655 93 656 83 q 663 104 656 104 z "},"/":{"ha":568,"x_min":7,"x_max":589,"o":"m 408 1031 l 413 1031 q 552 961 494 1031 q 589 854 589 910 l 589 850 q 564 743 589 817 q 349 52 357 73 q 303 -11 338 24 q 191 -54 249 -54 l 176 -54 q 63 -7 121 -54 q 7 122 7 50 l 7 126 q 32 233 7 160 q 248 927 231 878 q 332 1013 276 986 q 408 1031 370 1031 m 25 145 q 90 23 25 73 q 173 -3 132 -3 q 290 54 241 -3 q 322 124 309 76 q 545 850 541 832 q 547 875 547 865 q 484 996 547 947 q 403 1022 444 1022 l 395 1022 q 285 970 334 1022 q 249 894 264 948 l 39 211 q 25 145 25 175 m 375 988 l 387 988 q 451 955 420 988 q 471 897 471 928 q 449 816 471 882 q 237 130 243 149 q 157 80 206 80 q 71 141 98 80 q 66 167 66 157 l 66 172 q 96 281 66 189 q 300 937 288 902 q 336 976 313 964 q 375 988 359 988 z "},":":{"ha":345,"x_min":7,"x_max":365,"o":"m 176 347 l 195 347 q 301 307 248 347 q 365 180 365 250 l 365 166 q 283 27 365 86 q 195 0 236 0 l 176 0 q 62 47 118 0 q 7 166 7 102 l 7 180 q 66 302 7 247 q 176 347 121 347 m 172 338 l 168 338 q 52 278 102 338 q 25 194 25 239 q 66 96 25 138 q 168 52 112 52 l 170 52 q 174 52 172 52 q 178 52 176 52 l 182 52 q 298 115 247 52 q 323 195 323 151 q 245 321 323 274 q 182 338 210 338 l 175 338 q 174 338 174 338 l 172 338 m 152 304 l 160 304 q 243 245 215 304 q 247 220 247 229 l 247 218 q 188 140 247 167 q 155 135 170 135 q 71 191 99 135 q 66 218 66 205 l 66 222 q 117 296 66 269 q 152 304 133 304 m 176 814 l 195 814 q 301 774 248 814 q 365 648 365 717 l 365 633 q 283 494 365 553 q 195 467 236 467 l 176 467 q 62 515 118 467 q 7 633 7 570 l 7 648 q 66 770 7 714 q 176 814 121 814 m 172 805 l 168 805 q 52 745 102 805 q 25 661 25 707 q 66 564 25 606 q 168 519 112 519 l 170 519 q 174 519 172 519 q 178 519 176 519 l 182 519 q 298 582 247 519 q 323 663 323 618 q 245 789 323 741 q 182 805 210 805 l 175 805 q 174 806 174 805 l 172 805 m 152 771 l 160 771 q 243 712 215 771 q 247 687 247 696 l 247 685 q 188 607 247 634 q 155 602 170 602 q 71 658 99 602 q 66 685 66 673 l 66 690 q 117 763 66 736 q 152 771 133 771 z "},";":{"ha":345,"x_min":7,"x_max":365,"o":"m 176 334 l 195 334 q 301 294 248 334 q 365 168 365 237 l 365 155 q 243 -102 365 -3 q 146 -144 189 -144 l 138 -144 q 46 -91 85 -144 q 28 -24 28 -59 q 47 52 28 7 q 11 121 22 79 q 7 153 7 140 l 7 168 q 81 303 7 243 q 176 334 132 334 m 170 326 l 168 326 q 52 264 100 326 q 25 182 25 227 q 72 79 25 123 l 72 78 q 47 -5 47 33 q 86 -79 47 -51 q 127 -92 107 -92 l 132 -92 q 264 -4 190 -92 q 323 183 323 73 q 245 309 323 262 q 182 326 210 326 l 178 326 q 174 326 176 326 q 170 326 172 326 m 152 292 l 160 292 q 239 240 212 292 q 247 207 247 226 q 152 9 247 79 q 116 -9 130 -7 l 110 -9 q 88 18 93 -9 l 88 23 q 112 87 88 43 q 122 129 122 113 q 66 205 66 155 l 66 210 q 109 279 66 251 q 152 292 129 292 m 176 814 l 195 814 q 301 774 248 814 q 365 648 365 717 l 365 633 q 283 494 365 553 q 195 467 236 467 l 176 467 q 62 515 118 467 q 7 633 7 570 l 7 648 q 66 770 7 714 q 176 814 121 814 m 172 805 l 168 805 q 52 745 102 805 q 25 661 25 707 q 66 564 25 606 q 168 519 112 519 l 170 519 q 174 519 172 519 q 178 519 176 519 l 182 519 q 298 582 247 519 q 323 663 323 618 q 245 789 323 741 q 182 805 210 805 l 175 805 q 174 806 174 805 l 172 805 m 152 771 l 160 771 q 243 712 215 771 q 247 687 247 696 l 247 685 q 188 607 247 634 q 155 602 170 602 q 71 658 99 602 q 66 685 66 673 l 66 690 q 117 763 66 736 q 152 771 133 771 z "},";":{"ha":345,"x_min":7,"x_max":365,"o":"m 176 334 l 195 334 q 301 294 248 334 q 365 168 365 237 l 365 155 q 243 -102 365 -3 q 146 -144 189 -144 l 138 -144 q 46 -91 85 -144 q 28 -24 28 -59 q 47 52 28 7 q 11 121 22 79 q 7 153 7 140 l 7 168 q 81 303 7 243 q 176 334 132 334 m 170 326 l 168 326 q 52 264 100 326 q 25 182 25 227 q 72 79 25 123 l 72 78 q 47 -5 47 33 q 86 -79 47 -51 q 127 -92 107 -92 l 132 -92 q 264 -4 190 -92 q 323 183 323 73 q 245 309 323 262 q 182 326 210 326 l 178 326 q 174 326 176 326 q 170 326 172 326 m 152 292 l 160 292 q 239 240 212 292 q 247 207 247 226 q 152 9 247 79 q 116 -9 130 -7 l 110 -9 q 88 18 93 -9 l 88 23 q 112 87 88 43 q 122 129 122 113 q 66 205 66 155 l 66 210 q 109 279 66 251 q 152 292 129 292 m 176 814 l 195 814 q 301 774 248 814 q 365 648 365 717 l 365 633 q 283 494 365 553 q 195 467 236 467 l 176 467 q 62 515 118 467 q 7 633 7 570 l 7 648 q 66 770 7 714 q 176 814 121 814 m 172 805 l 168 805 q 52 745 102 805 q 25 661 25 707 q 66 564 25 606 q 168 519 112 519 l 170 519 q 174 519 172 519 q 178 519 176 519 l 182 519 q 298 582 247 519 q 323 663 323 618 q 245 789 323 741 q 182 805 210 805 l 175 805 q 174 806 174 805 l 172 805 m 152 771 l 160 771 q 243 712 215 771 q 247 687 247 696 l 247 685 q 188 607 247 634 q 155 602 170 602 q 71 658 99 602 q 66 685 66 673 l 66 690 q 117 763 66 736 q 152 771 133 771 z "},"<":{"ha":749,"x_min":7,"x_max":765,"o":"m 567 862 l 573 862 q 710 803 648 862 q 765 672 765 741 l 765 661 q 697 515 765 582 q 673 499 674 499 l 673 498 q 754 395 728 467 q 765 337 765 366 l 765 330 q 684 171 765 237 q 573 136 633 136 l 561 136 q 433 178 513 136 q 94 334 120 319 q 7 494 7 395 l 7 504 q 106 670 7 610 q 506 852 467 837 q 567 862 537 862 m 27 521 q 104 385 27 433 q 496 203 127 370 q 555 193 529 193 q 707 296 661 193 q 719 358 719 325 q 675 469 719 415 q 585 522 640 502 l 585 524 q 675 577 640 544 q 719 690 719 629 q 647 826 719 772 q 559 852 602 852 l 550 852 q 448 820 511 852 l 109 665 q 27 521 27 617 m 529 815 l 541 815 q 606 787 574 815 q 635 718 635 756 q 587 632 635 664 q 410 550 573 623 l 410 549 q 594 464 569 477 q 635 382 635 430 q 587 296 635 331 q 538 283 562 283 q 448 314 507 283 q 115 467 147 452 q 72 545 72 496 l 72 554 q 152 649 72 621 q 508 811 482 802 q 529 815 521 815 z "},"=":{"ha":648,"x_min":7,"x_max":668,"o":"m 178 886 l 497 886 q 591 853 541 886 q 663 752 645 814 q 668 713 668 725 l 668 694 q 636 600 668 649 q 541 530 602 551 q 497 522 514 522 l 178 522 q 59 574 118 522 q 7 694 7 633 l 7 713 q 49 821 7 766 q 112 869 90 863 q 178 886 146 886 m 26 725 q 104 593 26 642 q 197 574 132 574 l 454 574 q 557 600 526 574 q 625 728 625 646 q 547 859 625 810 q 452 878 517 878 l 200 878 q 99 856 127 878 q 33 773 56 833 q 26 725 26 749 m 177 844 l 440 844 q 517 819 496 844 q 548 750 548 793 q 495 668 548 696 q 452 659 479 659 l 161 659 q 96 684 121 659 q 67 748 67 712 l 67 753 q 120 835 67 805 q 177 844 135 844 m 178 446 l 497 446 q 591 412 541 446 q 663 311 645 373 q 668 273 668 284 l 668 253 q 636 159 668 208 q 541 90 602 110 q 497 81 514 81 l 178 81 q 59 134 118 81 q 7 253 7 193 l 7 273 q 49 380 7 326 q 112 429 90 422 q 178 446 146 446 m 26 284 q 104 153 26 201 q 197 134 132 134 l 454 134 q 557 159 526 134 q 625 287 625 205 q 547 418 625 370 q 452 437 517 437 l 200 437 q 99 415 127 437 q 33 332 56 393 q 26 284 26 308 m 177 403 l 440 403 q 517 378 496 403 q 548 309 548 352 q 495 227 548 256 q 452 218 479 218 l 161 218 q 96 243 121 218 q 67 307 67 271 l 67 313 q 120 394 67 364 q 177 403 135 403 z "},">":{"ha":743,"x_min":7,"x_max":763,"o":"m 198 862 l 206 862 q 335 821 259 862 q 674 665 634 686 q 763 505 763 603 l 763 494 q 675 335 763 395 q 442 227 651 320 q 250 142 265 142 q 211 137 232 137 l 198 137 q 33 235 92 137 q 7 332 7 281 l 7 338 q 75 483 7 416 q 99 499 89 494 l 99 500 q 18 603 44 531 q 7 661 7 634 l 7 667 q 81 821 7 758 q 198 862 138 862 m 27 688 q 81 568 27 623 q 160 525 110 544 l 160 522 q 88 484 110 502 q 27 358 27 430 q 94 223 27 277 q 190 193 138 193 q 312 234 236 193 q 647 389 622 374 q 717 523 717 437 q 592 684 717 640 q 240 844 260 838 q 195 852 217 852 l 186 852 q 68 798 121 852 q 27 688 27 750 m 167 814 l 178 814 q 292 769 201 814 q 592 631 568 644 q 634 549 634 604 q 555 451 634 478 q 198 288 213 293 q 168 284 180 284 q 74 362 98 284 q 72 377 72 373 l 72 384 q 125 471 72 439 q 296 551 291 547 q 110 637 134 623 q 72 714 72 672 l 72 723 q 116 800 72 764 q 167 814 144 814 z "},"?":{"ha":645,"x_min":7,"x_max":665,"o":"m 329 997 l 343 997 q 603 862 494 997 q 665 675 665 774 l 665 657 q 591 458 665 556 q 536 406 555 419 q 530 397 536 397 q 489 376 529 395 l 489 374 q 467 279 489 317 q 504 178 504 230 l 504 168 q 419 25 504 83 q 334 0 374 0 l 315 0 q 197 50 255 0 q 152 123 162 89 q 145 176 145 149 q 178 274 145 227 q 153 367 153 314 l 153 374 q 175 500 153 441 l 174 500 q 62 543 112 500 q 7 660 7 598 l 7 675 q 133 928 7 821 q 329 997 224 997 m 321 988 l 315 988 q 105 894 199 988 q 25 692 25 805 q 106 564 25 608 q 162 552 136 552 q 218 564 191 552 l 218 562 q 172 410 172 488 l 172 379 q 205 295 172 336 l 205 294 q 164 203 164 249 l 164 196 q 163 195 164 195 l 164 193 l 164 188 q 226 79 164 126 q 313 52 267 52 q 441 121 392 52 q 462 195 462 155 q 416 298 462 253 q 446 382 446 338 l 446 400 q 454 420 446 414 q 493 440 492 439 q 509 454 493 444 q 623 690 623 550 q 488 940 623 844 q 332 988 414 988 l 328 988 q 325 989 326 988 q 321 988 323 988 m 299 954 l 313 954 q 502 855 423 954 q 547 714 547 794 q 452 522 547 600 q 398 489 434 510 q 374 450 375 466 q 370 393 370 447 q 334 342 359 357 q 295 331 315 331 l 288 331 q 220 376 245 331 q 212 416 212 393 q 332 633 212 559 q 389 715 389 659 q 330 794 389 770 q 308 796 317 796 l 305 796 q 230 746 255 796 q 223 699 223 730 q 194 653 214 667 q 143 635 175 635 q 71 687 96 635 q 66 713 66 701 l 66 719 q 181 920 66 840 q 299 954 239 954 m 321 713 l 326 713 q 349 690 346 713 l 349 689 q 322 662 349 671 q 294 644 309 654 l 293 644 l 293 644 q 301 698 301 674 q 321 713 311 713 m 292 304 l 299 304 q 378 254 349 304 q 386 218 386 237 q 330 141 386 169 q 295 135 309 135 q 211 188 239 135 q 205 220 205 205 q 258 297 205 270 q 292 304 273 304 z "},"@":{"ha":1106,"x_min":7,"x_max":1126,"o":"m 536 1017 l 562 1017 q 993 837 852 1017 q 1093 474 1093 699 q 1072 355 1093 418 q 1123 279 1107 332 q 1126 252 1126 262 l 1126 243 q 1048 103 1126 181 q 963 33 1005 59 q 564 -68 791 -68 l 536 -68 q 235 31 378 -68 q 101 168 153 93 q 7 463 7 307 l 7 486 q 104 786 7 646 q 186 878 125 818 q 323 969 263 945 q 536 1017 429 1017 m 531 1008 l 525 1008 q 222 901 363 1008 q 25 496 25 739 q 236 81 25 245 q 537 -16 370 -16 q 964 100 798 -16 q 1035 167 994 122 q 1084 267 1084 223 l 1084 269 q 1022 364 1084 332 q 1050 492 1050 430 l 1050 501 q 783 969 1050 863 q 551 1008 677 1008 l 545 1008 q 538 1009 542 1008 q 531 1008 535 1008 m 511 975 l 530 975 q 911 800 806 975 q 974 528 974 693 l 974 516 q 895 323 974 419 q 771 255 831 255 q 673 312 713 255 q 661 337 663 328 q 475 250 581 250 q 277 379 350 250 q 250 498 250 437 q 373 746 250 650 q 512 792 437 792 q 678 714 610 792 q 685 705 685 706 l 686 705 q 721 753 686 740 q 731 753 727 753 q 776 720 764 753 q 777 711 777 715 q 744 378 777 698 q 772 347 748 347 q 844 404 798 347 q 883 519 883 465 l 883 523 q 743 841 883 768 q 517 884 659 884 q 265 780 372 884 q 157 523 157 673 l 157 519 q 308 226 157 341 q 518 157 401 157 q 931 325 831 157 q 964 338 946 338 q 1006 309 991 338 q 1008 291 1008 298 q 945 200 1008 264 q 785 108 871 135 q 520 66 667 66 q 137 275 285 66 q 66 513 66 388 l 66 528 q 234 873 66 730 q 511 975 358 975 m 341 498 q 408 361 341 412 q 476 340 439 340 q 624 440 566 340 q 648 545 648 490 q 572 686 648 637 q 517 701 544 701 l 512 701 q 365 600 423 701 q 341 498 341 552 m 524 618 l 535 618 q 603 555 578 618 q 607 521 607 537 q 534 385 607 431 q 492 375 514 375 q 422 437 446 375 q 417 474 417 458 q 487 607 417 557 q 524 618 509 618 m 460 455 l 460 448 q 497 385 463 397 l 506 383 q 580 448 550 383 q 589 495 589 477 q 551 566 589 548 l 538 566 q 472 511 504 566 q 460 455 460 486 z "},"A":{"ha":922,"x_min":7,"x_max":942,"o":"m 469 997 l 478 997 q 616 928 557 997 q 676 807 627 921 q 933 237 916 279 q 942 182 942 209 l 942 176 q 880 43 942 102 q 769 0 825 0 l 757 0 q 623 65 684 0 q 571 167 606 83 q 559 190 561 189 l 389 190 q 345 93 388 189 q 305 44 332 71 q 191 0 252 0 l 184 0 q 43 71 102 0 q 7 176 7 121 l 7 181 q 39 290 7 229 q 318 907 300 869 q 420 989 351 964 q 469 997 447 997 m 461 988 l 458 988 q 342 928 392 988 q 282 802 328 908 q 34 251 39 264 q 25 198 25 228 q 66 99 25 146 q 128 60 98 68 q 171 52 144 54 q 302 122 254 52 q 357 242 311 140 l 568 242 q 616 137 570 240 q 662 81 627 110 q 750 52 704 52 q 854 94 807 52 q 900 200 900 141 q 873 294 900 243 q 591 916 602 896 q 505 983 564 962 q 468 988 483 988 l 464 988 q 463 989 463 988 l 461 988 m 440 954 l 450 954 q 519 916 489 954 q 568 812 529 901 q 817 260 817 263 q 823 227 823 246 q 774 146 823 174 q 730 135 754 135 q 656 178 687 135 q 589 326 647 194 l 302 326 q 237 182 297 318 q 157 135 206 135 q 75 188 104 135 q 66 224 66 208 l 66 232 q 98 316 66 251 l 364 905 q 440 954 395 954 m 445 644 l 363 462 l 527 462 q 446 644 446 642 l 445 644 z "},"B":{"ha":718,"x_min":7,"x_max":739,"o":"m 177 997 l 385 997 q 557 943 475 997 q 701 675 701 838 l 701 672 q 675 552 701 606 q 739 365 739 470 l 739 349 q 585 62 739 178 q 392 0 493 0 l 177 0 q 82 33 132 0 q 12 134 33 66 q 7 170 7 158 l 7 827 q 60 946 7 889 q 132 989 97 979 q 177 997 160 997 m 25 836 l 25 206 q 119 62 25 106 q 197 52 143 52 l 342 52 q 488 73 440 52 q 598 144 540 91 q 696 376 696 242 l 696 377 q 628 570 696 494 l 628 570 q 656 661 656 629 q 659 696 658 661 q 566 909 659 820 q 469 970 517 953 q 334 989 426 989 l 198 989 q 96 966 125 989 q 25 836 25 922 m 153 954 l 355 954 q 544 848 466 954 q 583 718 583 792 q 526 590 583 633 q 594 515 582 547 q 620 399 620 470 q 494 175 620 262 q 343 135 434 135 l 165 135 q 71 197 94 135 q 66 226 66 209 l 66 865 q 123 948 66 921 q 153 954 138 954 m 247 773 l 247 640 l 350 640 q 410 682 400 640 q 411 698 411 690 l 411 711 q 370 771 411 762 q 354 773 366 773 l 247 773 m 326 690 l 368 690 q 371 680 371 690 l 371 675 q 369 674 371 674 l 326 674 q 323 675 323 674 l 323 688 q 326 690 323 690 m 247 496 l 247 317 l 366 317 q 445 373 419 317 q 450 406 448 382 q 393 492 450 467 q 362 496 378 496 l 247 496 m 326 412 l 383 412 q 408 393 401 412 q 409 381 409 386 q 389 352 409 358 q 383 351 388 351 l 326 351 q 323 353 323 351 l 323 411 q 326 412 323 412 z "},"C":{"ha":918,"x_min":7,"x_max":938,"o":"m 488 997 l 509 997 q 802 892 662 997 q 938 686 938 776 l 938 671 q 893 557 938 612 q 825 510 850 517 q 787 499 798 499 l 787 498 q 863 467 823 494 q 931 370 912 432 q 938 326 938 347 l 938 311 q 803 105 938 221 q 509 0 661 0 l 488 0 q 195 105 330 0 q 105 199 126 166 q 7 488 7 332 l 7 509 q 71 747 7 632 q 141 841 90 783 q 245 926 210 908 q 488 997 361 997 m 484 988 l 476 988 q 180 869 313 988 q 25 519 25 726 q 218 138 25 290 q 476 53 340 53 l 479 53 q 487 52 484 53 q 494 53 490 53 l 502 53 q 730 122 612 53 q 819 193 764 141 q 857 239 856 237 q 896 341 896 289 q 815 475 896 428 q 748 492 779 492 q 610 409 661 492 q 488 351 564 351 l 487 351 q 372 401 419 351 q 323 520 323 451 q 418 675 323 620 q 490 690 450 690 q 625 610 576 690 q 746 549 675 549 l 752 549 q 871 615 819 549 q 896 701 896 656 q 827 838 896 764 q 757 901 779 888 q 566 982 683 958 q 502 988 525 988 l 490 988 q 487 989 488 988 q 484 988 486 988 m 463 954 l 481 954 q 679 895 578 954 q 755 833 711 876 q 817 746 810 773 q 819 724 819 734 l 819 722 q 764 640 819 668 q 732 633 749 633 l 726 633 q 642 690 675 633 q 467 773 576 773 q 277 660 350 773 q 248 543 248 608 q 340 359 248 433 q 467 317 397 317 l 471 317 q 615 371 556 317 q 660 426 644 400 q 729 457 688 457 l 730 457 q 812 405 783 457 q 819 368 819 383 l 819 366 q 780 284 819 329 q 715 220 753 251 q 467 135 602 135 q 137 313 267 135 q 66 540 66 416 l 66 549 q 251 890 66 755 q 463 954 349 954 m 367 505 l 367 492 q 433 377 367 425 q 494 360 463 360 l 502 360 q 610 422 571 360 q 659 471 631 452 q 731 498 695 493 q 714 502 731 499 q 644 538 671 514 q 608 577 615 564 q 499 637 570 637 q 376 551 416 637 q 367 505 367 526 z "},"D":{"ha":823,"x_min":7,"x_max":844,"o":"m 177 997 l 357 997 q 650 893 514 997 q 747 795 713 840 q 844 510 844 661 l 844 487 q 729 179 844 320 q 646 100 665 111 q 357 0 512 0 l 177 0 q 82 33 132 0 q 12 134 33 66 q 7 170 7 157 l 7 827 q 39 922 7 873 q 136 991 75 971 q 177 997 164 997 m 25 833 l 25 206 q 73 92 25 136 q 148 54 111 59 q 195 52 165 52 l 296 52 q 479 75 421 52 q 570 115 500 78 q 658 182 604 134 q 802 517 802 324 l 802 524 q 640 874 802 728 q 460 972 551 949 q 293 989 407 989 l 198 989 q 96 966 125 989 q 25 833 25 922 m 153 954 l 323 954 q 652 779 518 954 q 725 544 725 675 q 607 257 725 378 q 496 176 543 196 q 296 135 420 135 l 165 135 q 69 202 92 135 q 66 224 66 214 l 66 866 q 121 947 66 920 q 153 954 136 954 m 247 773 l 247 317 l 317 317 q 512 427 439 317 q 544 538 544 481 l 544 552 q 447 732 544 658 q 305 773 393 773 l 247 773 m 326 690 q 448 645 404 690 q 503 520 503 594 q 416 371 503 427 q 335 351 378 351 l 326 351 q 323 353 323 351 l 323 688 q 326 690 323 690 m 366 635 l 366 361 q 410 375 389 364 q 456 414 427 381 q 484 492 484 452 l 484 505 q 408 623 484 576 q 366 635 380 635 z "},"E":{"ha":691,"x_min":7,"x_max":711,"o":"m 175 997 l 542 997 q 651 953 596 997 q 694 895 686 918 q 711 827 711 857 l 711 808 q 660 690 711 748 q 616 659 629 664 l 616 659 q 675 610 638 650 q 711 509 711 558 l 711 490 q 669 382 711 435 q 615 340 637 351 l 615 338 q 691 264 660 317 q 711 190 711 222 l 711 170 q 670 64 711 117 q 542 0 610 0 l 175 0 q 82 33 133 0 q 12 132 29 73 q 7 170 7 159 l 7 827 q 60 946 7 889 q 136 991 100 981 q 175 997 163 997 m 25 833 l 25 206 q 117 63 25 107 q 197 52 141 52 l 498 52 q 590 69 564 52 q 669 203 669 117 q 584 337 669 290 q 522 350 552 350 l 326 350 q 323 352 323 350 l 323 370 q 326 372 324 372 l 506 372 q 613 405 576 372 q 669 522 669 451 q 585 656 669 609 q 500 671 559 671 l 326 671 q 323 673 323 671 l 323 689 q 326 690 324 690 l 529 690 q 627 735 579 690 q 669 842 669 779 q 620 950 669 904 q 548 986 587 979 q 498 989 530 989 l 197 989 q 102 970 130 989 q 25 833 25 925 m 153 954 l 507 954 q 587 898 558 954 q 593 863 593 882 q 537 780 593 808 q 488 773 525 773 l 248 773 l 248 637 l 488 637 q 567 609 545 637 q 593 547 593 584 l 593 545 q 539 463 593 491 q 500 456 524 456 l 248 456 l 248 316 l 503 316 q 589 256 562 316 q 593 227 593 240 q 529 138 593 165 q 496 135 513 135 l 165 135 q 96 159 120 135 q 66 224 66 186 l 66 866 q 123 948 66 920 q 153 954 138 954 z "},"F":{"ha":691,"x_min":7,"x_max":711,"o":"m 175 997 l 542 997 q 651 953 596 997 q 694 895 686 918 q 711 827 711 857 l 711 808 q 669 701 711 754 q 585 646 627 656 l 585 645 q 633 591 623 613 q 658 509 658 548 l 658 490 q 616 382 658 437 q 555 336 582 348 q 458 319 522 319 l 366 319 l 366 187 q 249 11 366 63 q 195 0 216 0 l 175 0 q 82 33 133 0 q 12 132 29 73 q 7 170 7 159 l 7 827 q 60 946 7 889 q 136 991 100 981 q 175 997 163 997 m 25 833 l 25 206 q 117 63 25 107 q 166 53 145 53 l 171 53 q 174 52 173 53 q 178 53 176 53 l 183 53 q 288 104 238 53 q 319 167 311 133 q 323 221 323 182 l 323 370 q 326 372 324 372 l 452 372 q 553 400 520 372 q 616 522 616 446 q 547 648 616 600 q 449 671 515 671 l 326 671 q 323 673 323 671 l 323 689 q 326 690 324 690 l 529 690 q 627 735 579 690 q 669 842 669 779 q 620 950 669 904 q 548 986 587 979 q 498 989 530 989 l 197 989 q 102 970 130 989 q 25 833 25 925 m 153 954 l 507 954 q 587 898 558 954 q 593 863 593 882 q 537 780 593 808 q 488 773 525 773 l 248 773 l 248 637 l 434 637 q 508 614 488 637 q 539 547 539 587 l 539 545 q 478 460 539 486 q 450 456 463 456 l 248 456 l 248 244 q 229 173 248 190 q 156 135 201 135 q 72 193 101 135 q 66 224 66 210 l 66 866 q 123 948 66 920 q 153 954 138 954 z "},"G":{"ha":937,"x_min":7,"x_max":957,"o":"m 488 997 l 509 997 q 822 876 680 997 q 874 811 867 834 q 895 726 895 774 q 872 641 895 684 l 873 641 q 950 541 927 607 q 957 498 957 511 l 957 343 q 892 163 957 250 q 823 98 848 114 q 719 41 769 60 q 513 0 614 0 l 488 0 q 197 104 332 0 q 108 195 136 157 q 7 488 7 330 l 7 510 q 71 747 7 631 q 129 827 93 785 q 214 905 195 897 q 277 945 248 930 q 488 997 381 997 m 483 988 l 476 988 q 170 861 307 988 q 25 519 25 719 q 222 136 25 288 q 487 52 342 52 q 801 150 664 52 q 915 380 915 239 l 915 507 q 826 647 915 601 q 814 652 814 650 q 852 753 852 697 q 771 890 852 829 q 496 988 646 988 l 490 988 q 487 989 488 988 q 483 988 485 988 m 461 954 l 476 954 q 757 831 637 954 q 777 777 777 803 q 724 694 777 724 q 687 686 707 686 l 685 686 q 613 720 644 686 q 468 773 551 773 q 279 663 351 773 q 247 544 247 609 q 351 351 247 425 q 467 317 404 317 l 473 317 q 640 368 568 317 q 657 398 657 384 l 657 454 l 485 454 q 404 508 433 454 q 396 539 398 519 q 454 620 396 589 q 485 625 471 625 l 750 625 q 831 570 802 625 q 838 534 838 551 l 838 404 q 601 152 838 222 q 467 135 536 135 q 130 321 263 135 q 66 541 66 422 l 66 549 q 245 886 66 752 q 461 954 347 954 m 490 690 q 580 661 537 690 l 580 659 l 500 659 q 386 600 435 659 q 356 522 356 560 l 356 509 q 402 412 356 458 q 511 371 444 371 l 587 371 l 587 370 q 489 351 539 351 l 487 351 q 375 397 422 351 q 323 519 323 450 q 418 675 323 620 q 490 690 450 690 z "},"H":{"ha":745,"x_min":7,"x_max":765,"o":"m 177 997 l 197 997 q 303 954 248 997 q 366 811 366 899 l 366 680 l 406 680 l 406 811 q 508 979 406 925 q 576 997 540 996 l 597 997 q 684 969 636 997 q 758 869 736 935 q 765 827 765 843 l 765 170 q 721 62 765 115 q 629 4 675 14 q 597 0 604 0 l 576 0 q 479 35 530 0 q 406 187 406 92 l 406 319 l 366 319 l 366 187 q 255 13 366 67 q 193 0 222 0 l 177 0 q 67 45 122 0 q 22 106 33 77 q 7 170 7 143 l 7 827 q 60 946 7 889 q 151 994 91 979 q 177 997 172 997 m 174 988 l 168 988 q 49 922 100 988 q 25 833 25 885 l 25 206 q 112 66 25 110 q 174 52 144 52 q 300 121 250 52 q 323 220 323 153 l 323 370 q 326 372 324 372 l 422 372 q 425 370 425 372 l 425 224 q 442 132 425 160 q 529 59 472 79 q 567 53 551 53 l 570 53 q 574 52 572 53 q 577 53 575 53 l 582 53 q 691 109 642 53 q 723 203 723 150 l 723 840 q 640 974 723 927 q 582 988 608 988 l 576 988 q 574 989 574 988 l 573 988 l 567 988 q 455 929 505 988 q 431 886 441 911 q 425 816 425 863 l 425 673 q 422 671 425 671 l 326 671 q 323 673 323 671 l 323 820 q 300 918 323 888 q 216 983 277 961 q 182 988 195 988 l 176 988 q 175 989 175 988 l 174 988 m 153 954 l 160 954 q 239 901 210 954 q 248 848 248 885 l 248 637 l 466 637 l 466 857 q 502 935 466 909 q 553 954 525 954 l 559 954 q 642 895 614 954 q 646 863 646 878 l 646 227 q 589 141 646 168 q 556 135 572 135 q 472 192 503 135 q 466 233 466 210 l 466 456 l 248 456 l 248 244 q 233 178 248 195 q 157 135 203 135 q 72 193 101 135 q 66 224 66 210 l 66 866 q 120 947 66 918 q 153 954 137 954 z "},"I":{"ha":345,"x_min":7,"x_max":366,"o":"m 177 997 l 195 997 q 308 950 252 997 q 366 827 366 892 l 366 170 q 321 60 366 115 q 261 16 290 28 q 195 0 223 0 l 177 0 q 67 45 122 0 q 22 105 33 78 q 7 170 7 144 l 7 827 q 56 941 7 886 q 153 994 90 980 q 177 997 170 997 m 171 988 l 166 988 q 56 931 106 988 q 25 835 25 891 l 25 209 q 127 60 25 100 q 166 53 151 53 l 171 53 q 174 52 173 53 q 178 53 176 53 l 182 53 q 292 110 242 53 q 323 205 323 149 l 323 836 q 231 978 323 934 q 182 988 203 988 l 178 988 q 174 989 176 988 q 171 988 173 988 m 153 954 l 160 954 q 240 899 211 954 q 247 861 247 882 l 247 229 q 195 144 247 171 q 157 135 177 135 q 72 194 100 135 q 66 227 66 209 l 66 866 q 121 947 66 920 q 153 954 136 954 z "},"J":{"ha":654,"x_min":7,"x_max":675,"o":"m 484 997 l 505 997 q 613 953 559 997 q 663 884 656 911 q 675 829 675 852 l 675 326 q 541 66 675 174 q 349 0 451 0 l 333 0 q 73 134 182 0 q 7 326 7 223 l 7 344 q 51 453 7 398 q 111 496 95 494 q 177 513 123 507 l 197 513 q 279 488 234 513 q 316 459 296 477 l 316 811 q 418 980 316 925 q 484 997 454 996 m 481 988 l 475 988 q 368 934 417 988 q 336 862 344 905 q 334 819 334 841 l 334 353 q 331 350 334 352 l 328 350 q 322 379 322 350 q 303 431 317 406 q 221 498 273 479 q 182 505 200 505 l 178 505 q 174 505 176 505 q 171 505 173 505 l 168 505 q 57 448 107 505 q 25 353 25 408 q 168 98 25 197 q 328 52 243 52 q 585 192 486 52 q 633 357 633 264 l 633 837 q 551 972 633 926 q 490 988 519 988 l 484 988 q 484 989 484 988 l 481 988 m 460 954 l 469 954 q 547 905 517 954 q 556 865 556 886 l 556 382 q 452 180 556 258 q 311 135 390 135 q 96 263 175 135 q 66 376 66 317 l 66 381 q 115 460 66 433 q 153 471 133 471 l 161 471 q 241 414 211 471 q 249 361 245 403 q 311 316 269 316 q 371 356 351 316 q 376 379 376 366 l 376 859 q 441 951 376 927 q 460 954 452 954 z "},"K":{"ha":730,"x_min":7,"x_max":750,"o":"m 177 997 l 197 997 q 304 953 249 997 q 360 862 345 918 q 479 971 469 971 q 562 997 522 997 l 573 997 q 721 916 663 997 q 750 823 750 869 l 750 814 q 673 667 750 732 q 501 494 501 495 q 639 363 512 485 q 727 268 720 289 q 750 182 750 228 l 750 174 q 682 38 750 98 q 578 0 630 0 l 562 0 q 457 41 510 0 l 359 132 q 300 41 345 80 q 197 0 245 0 l 177 0 q 82 33 132 0 q 12 134 33 66 q 7 170 7 157 l 7 827 q 60 946 7 889 q 151 994 91 979 q 177 997 172 997 m 174 988 l 168 988 q 49 922 100 988 q 25 833 25 885 l 25 206 q 112 66 25 109 q 174 52 144 52 q 296 116 248 52 q 321 178 317 146 q 323 218 323 178 l 324 218 l 466 85 q 558 52 509 52 q 687 125 638 52 q 708 200 708 162 q 646 325 708 274 l 446 516 l 446 517 q 675 745 671 740 q 708 842 708 785 q 645 962 708 911 q 563 988 604 988 q 562 989 562 988 l 561 988 l 552 988 q 425 916 487 988 l 324 816 l 323 816 l 323 821 q 294 926 323 895 q 254 966 279 949 q 182 988 216 988 l 176 988 q 175 989 175 988 l 174 988 m 153 954 l 160 954 q 239 901 210 954 q 248 848 248 885 l 248 699 q 490 939 445 895 q 537 954 515 954 l 546 954 q 625 899 595 954 q 631 862 631 881 q 586 781 631 819 l 343 540 q 613 281 591 304 q 631 226 631 256 q 570 140 631 168 q 541 135 551 135 q 469 170 501 135 l 248 382 l 248 241 q 224 167 248 187 q 157 135 197 135 q 72 193 100 135 q 66 224 66 210 l 66 866 q 121 947 66 920 q 153 954 136 954 z "},"L":{"ha":670,"x_min":7,"x_max":690,"o":"m 177 997 l 197 997 q 302 955 248 997 q 366 818 366 898 l 366 359 l 509 359 q 673 257 616 359 q 690 191 690 217 l 690 170 q 648 64 690 117 q 598 22 622 35 q 520 0 554 0 l 177 0 q 67 45 122 0 q 22 105 33 78 q 7 170 7 144 l 7 827 q 39 922 7 873 q 137 991 75 971 q 177 997 164 997 m 174 988 l 168 988 q 49 922 100 988 q 25 833 25 885 l 25 206 q 123 60 25 104 q 195 52 148 52 l 478 52 q 583 79 552 52 q 648 203 648 126 q 572 332 648 283 q 500 350 538 350 l 326 350 q 323 352 323 350 l 323 827 q 290 934 323 898 q 209 985 265 968 q 182 988 194 988 l 176 988 q 175 989 175 988 l 174 988 m 153 954 l 160 954 q 239 903 209 954 q 248 851 248 886 l 248 316 l 482 316 q 568 256 540 316 q 572 227 572 238 l 572 226 q 521 145 572 174 q 473 135 505 135 l 165 135 q 96 159 120 135 q 66 224 66 186 l 66 866 q 121 947 66 920 q 153 954 136 954 z "},"M":{"ha":862,"x_min":7,"x_max":882,"o":"m 182 997 l 191 997 q 336 917 278 997 q 387 798 351 895 q 444 654 417 726 l 445 654 q 546 907 534 883 q 591 958 557 928 q 699 997 641 997 l 707 997 q 837 938 781 997 q 882 825 882 884 l 882 170 q 838 62 882 116 q 742 3 792 13 q 713 0 721 0 l 694 0 q 572 56 631 0 q 569 60 572 60 q 444 2 519 2 q 321 60 370 2 l 320 60 q 254 13 277 18 q 195 0 222 0 l 176 0 q 70 42 125 0 q 19 111 29 82 q 7 170 7 147 l 7 825 q 62 949 7 890 q 182 997 117 997 m 25 837 l 25 206 q 67 98 25 140 q 174 52 114 52 q 286 103 238 52 q 308 136 307 127 l 309 136 q 433 54 352 54 l 433 54 q 557 136 513 54 l 557 136 q 602 83 566 111 q 691 52 642 52 q 822 128 772 52 q 840 203 840 163 l 840 842 q 781 960 840 910 q 697 988 737 988 l 685 988 q 569 926 618 988 q 521 813 554 905 l 433 595 l 432 595 q 304 916 315 892 q 221 981 274 963 q 180 988 201 988 l 168 988 q 66 943 113 988 q 25 837 25 898 m 153 954 l 165 954 q 223 926 193 954 q 269 827 236 916 l 415 458 l 416 458 q 594 908 581 880 q 645 950 611 938 q 665 954 659 954 l 677 954 q 758 898 730 954 q 764 863 764 882 l 764 226 q 700 139 764 165 q 673 135 682 135 q 590 191 619 135 q 583 234 583 207 l 583 463 l 582 463 q 483 181 492 203 q 420 138 457 138 l 412 138 q 337 208 359 138 q 248 462 248 460 l 248 462 l 248 241 q 225 168 248 189 q 156 135 197 135 q 72 193 101 135 q 66 224 66 210 l 66 866 q 119 947 66 918 q 153 954 140 954 z "},"N":{"ha":714,"x_min":7,"x_max":734,"o":"m 189 997 q 313 944 256 997 q 376 841 338 922 q 380 863 377 841 q 424 941 393 906 q 517 994 459 979 q 546 997 536 997 l 564 997 q 677 950 621 997 q 722 884 715 909 q 734 827 734 852 l 734 175 q 680 53 734 110 q 553 2 626 2 q 434 48 490 2 q 389 113 404 79 l 366 158 q 361 138 364 158 q 300 41 344 76 q 195 0 247 0 l 176 0 q 82 33 133 0 q 37 78 56 53 q 7 168 7 127 l 7 822 q 79 961 7 901 q 189 997 128 997 m 540 988 l 534 988 q 437 944 484 988 q 400 883 409 913 q 394 827 394 861 l 394 741 l 392 741 q 292 931 304 916 q 176 988 242 988 q 51 922 99 988 q 25 836 25 884 l 25 208 q 127 60 25 100 q 167 53 151 53 l 171 53 q 174 52 173 53 q 178 53 176 53 l 183 53 q 290 106 239 53 q 315 153 310 134 q 323 218 323 171 l 323 302 l 326 302 q 404 149 338 277 q 445 92 416 119 q 543 54 490 54 l 543 54 q 671 126 622 54 q 692 201 692 165 l 692 837 q 652 941 692 899 q 551 988 604 988 l 547 988 q 543 989 545 988 q 540 988 542 988 m 158 954 q 235 908 204 954 l 434 522 l 435 522 l 435 865 q 460 926 435 900 q 522 954 488 954 l 529 954 q 606 907 576 954 q 616 865 616 886 l 616 230 q 551 141 616 167 q 528 138 539 138 l 522 138 q 449 180 479 138 q 248 569 248 568 l 248 569 l 248 241 q 224 166 248 187 q 156 135 195 135 q 75 188 104 135 q 66 226 66 204 l 66 865 q 117 944 66 913 q 158 954 138 954 z "},"O":{"ha":971,"x_min":7,"x_max":991,"o":"m 488 997 l 511 997 q 798 896 664 997 q 894 797 869 833 q 991 510 991 664 l 991 488 q 928 250 991 365 q 869 170 905 212 q 785 92 808 106 q 511 0 656 0 l 488 0 q 197 104 332 0 q 100 205 127 165 q 7 488 7 336 l 7 510 q 111 805 7 669 q 210 902 167 872 q 488 997 339 997 m 484 988 l 477 988 q 204 890 330 988 q 25 519 25 743 q 179 172 25 315 q 478 53 312 53 l 481 53 q 488 52 484 53 q 495 53 491 53 l 498 53 q 755 138 635 53 q 864 250 821 188 q 949 516 949 369 l 949 524 q 756 902 949 749 q 498 988 635 988 l 491 988 q 488 989 489 988 q 484 988 486 988 m 463 954 l 478 954 q 801 779 669 954 q 873 543 873 675 q 686 198 873 332 q 470 135 588 135 q 132 321 261 135 q 66 539 66 421 l 66 549 q 225 871 66 740 q 463 954 332 954 m 248 545 q 352 351 248 425 q 467 317 404 317 l 473 317 q 657 422 585 317 q 691 541 691 477 l 691 547 q 582 743 691 669 q 469 773 531 773 q 287 675 359 773 q 248 545 248 616 m 488 690 q 635 594 582 690 q 650 528 650 559 l 650 524 q 651 520 650 522 q 650 517 650 519 l 650 513 q 567 371 650 430 q 488 351 530 351 q 376 397 422 351 q 324 511 324 450 l 324 530 q 389 656 324 599 q 488 690 432 690 m 367 498 q 445 371 367 415 q 494 360 471 360 l 505 360 q 618 435 573 360 q 631 499 631 464 q 557 624 631 580 q 499 637 531 637 q 383 567 426 637 q 367 498 367 537 z "},"P":{"ha":681,"x_min":7,"x_max":701,"o":"m 177 997 l 385 997 q 631 862 527 997 q 701 648 701 762 l 701 630 q 562 340 701 459 q 367 277 482 277 l 367 200 q 341 87 367 125 q 244 9 308 32 q 197 0 214 0 l 177 0 q 82 33 132 0 q 12 134 33 66 q 7 170 7 157 l 7 827 q 60 946 7 889 q 151 994 91 979 q 177 997 172 997 m 25 833 l 25 206 q 112 66 25 109 q 174 52 144 52 q 302 123 253 52 q 323 196 323 162 l 323 328 q 326 330 324 330 l 355 330 q 574 428 492 330 q 659 660 659 524 q 550 916 659 812 q 451 975 496 962 q 337 989 416 989 l 198 989 q 96 966 125 989 q 25 833 25 922 m 153 954 l 353 954 q 517 869 446 954 q 583 684 583 792 q 467 450 583 538 q 347 413 414 413 l 248 413 l 248 227 q 189 141 248 168 q 157 135 172 135 q 73 191 101 135 q 66 224 66 209 l 66 866 q 121 947 66 920 q 153 954 136 954 m 248 773 l 248 594 l 340 594 q 383 620 370 594 q 402 684 402 650 q 362 770 402 739 q 342 773 353 773 l 248 773 m 326 690 l 352 690 q 361 659 361 680 q 352 629 361 639 l 326 629 q 323 631 323 629 l 323 688 q 326 690 324 690 z "},"Q":{"ha":1034,"x_min":7,"x_max":1054,"o":"m 489 997 l 511 997 q 817 880 677 997 q 894 797 881 819 q 962 672 945 726 q 991 510 991 591 l 991 487 q 974 361 991 429 q 1044 286 1017 342 q 1054 241 1054 256 l 1054 224 q 1003 120 1054 168 q 749 12 872 12 q 657 26 702 12 q 508 0 581 0 l 489 0 q 197 104 332 0 q 100 205 127 165 q 7 488 7 336 l 7 510 q 111 805 7 669 q 213 905 168 874 q 489 997 342 997 m 484 988 l 477 988 q 204 890 330 988 q 25 519 25 743 q 179 172 25 315 q 478 53 312 53 l 481 53 q 488 52 484 53 q 495 53 491 53 l 496 53 q 646 80 565 53 l 646 80 q 735 65 690 65 q 981 175 857 65 q 1012 251 1012 210 l 1012 254 q 954 353 1012 317 q 925 365 932 365 q 949 520 949 443 l 949 522 q 819 847 949 709 q 720 926 762 903 q 498 988 614 988 l 491 988 q 488 989 489 988 q 484 988 486 988 m 463 954 l 478 954 q 793 791 662 954 q 873 543 873 683 q 774 277 873 393 l 774 277 q 850 328 802 288 q 876 334 864 334 l 878 334 q 934 293 918 334 q 935 277 935 284 q 893 218 935 244 q 718 149 802 149 l 717 149 q 629 168 669 149 q 469 135 549 135 q 132 320 263 135 q 66 539 66 422 l 66 549 q 225 871 66 740 q 463 954 332 954 m 248 545 q 275 435 248 491 l 275 435 q 379 475 325 475 l 391 475 q 538 401 469 475 q 585 350 551 387 q 682 477 651 389 q 691 541 691 510 l 691 547 q 582 743 691 669 q 470 773 530 773 q 275 657 348 773 q 248 545 248 603 m 489 690 q 635 594 582 690 q 650 528 650 559 l 650 514 q 609 408 650 457 l 608 408 q 525 477 547 467 q 401 509 471 509 l 397 509 q 326 496 363 509 q 325 513 325 501 l 325 530 q 389 656 325 599 q 489 690 432 690 m 368 514 l 368 514 q 415 517 390 517 q 616 433 530 517 q 631 499 631 463 q 557 624 631 580 q 499 637 531 637 q 376 553 418 637 q 368 514 368 527 m 389 360 l 382 360 q 353 352 371 360 l 353 350 q 463 317 412 317 q 408 357 425 357 q 391 361 408 358 l 389 360 z "},"R":{"ha":685,"x_min":7,"x_max":705,"o":"m 175 997 l 382 997 q 568 928 478 997 q 701 636 701 814 q 612 389 701 496 l 612 388 q 694 242 682 271 q 705 188 705 211 l 705 174 q 663 63 705 118 q 532 0 604 0 l 520 0 q 404 47 458 0 q 361 104 380 70 q 355 116 355 115 l 354 116 q 302 42 346 83 q 195 0 249 0 l 175 0 q 82 33 132 0 q 39 77 54 54 q 7 168 7 125 l 7 827 q 52 938 7 882 q 123 986 92 976 q 175 997 157 997 m 25 835 l 25 205 q 119 62 25 106 q 167 53 146 53 l 171 53 q 174 52 173 53 q 178 53 176 53 l 182 53 q 286 102 238 53 q 323 203 323 144 l 323 228 l 326 228 q 401 104 384 125 q 514 52 449 52 q 637 116 586 52 q 663 202 663 159 q 631 296 663 248 q 562 415 562 414 q 659 659 659 516 q 539 924 659 819 q 475 964 502 954 q 338 989 432 989 l 197 989 q 102 970 130 989 q 25 835 25 924 m 153 954 l 354 954 q 494 895 426 954 q 583 684 583 808 q 467 451 583 540 q 583 253 577 269 q 587 227 587 238 q 530 142 587 169 q 496 135 512 135 q 410 195 441 135 q 279 413 291 396 l 248 413 l 248 224 q 186 140 248 167 q 157 135 167 135 q 73 192 100 135 q 66 223 66 207 l 66 866 q 122 948 66 919 q 153 954 138 954 m 248 773 l 248 594 l 337 594 q 379 614 369 594 q 401 681 401 642 l 401 686 q 365 768 401 738 q 342 773 355 773 l 248 773 m 326 690 l 352 690 q 360 659 357 690 q 352 629 360 640 l 326 629 q 323 631 323 629 l 323 688 q 326 690 324 690 z "},"S":{"ha":741,"x_min":7,"x_max":761,"o":"m 338 997 l 538 997 q 632 964 583 997 q 702 865 682 928 q 707 827 707 838 l 707 808 q 652 686 707 745 q 576 644 610 650 l 616 620 q 749 433 711 551 q 761 346 761 387 l 761 332 q 618 62 761 171 q 427 0 530 0 l 176 0 q 82 33 132 0 q 13 130 32 69 q 7 170 7 157 l 7 190 q 60 309 7 250 q 157 357 110 352 q 174 359 168 359 l 180 359 q 182 361 182 359 q 121 403 173 362 q 63 471 70 453 q 16 577 34 511 q 7 652 7 614 l 7 666 q 137 926 7 817 q 338 997 231 997 m 25 678 q 108 469 25 564 q 321 373 203 373 l 410 373 q 420 361 418 373 q 412 351 420 355 l 186 351 q 73 311 113 351 q 25 201 25 267 q 99 72 25 121 q 195 52 131 52 l 379 52 q 523 73 477 52 q 690 228 635 119 q 719 360 719 288 q 571 627 719 526 q 410 671 497 671 l 328 671 q 323 680 323 673 q 334 690 323 688 l 513 690 q 651 776 607 690 q 665 838 665 805 l 665 841 q 591 969 665 920 q 494 989 561 989 l 366 989 q 220 967 264 989 q 54 812 111 924 q 25 678 25 750 m 310 954 l 502 954 q 584 896 555 954 q 589 865 589 879 l 589 863 q 532 779 589 808 q 501 773 517 773 l 323 773 q 249 720 266 773 q 248 705 248 713 q 290 641 248 659 q 313 637 300 637 l 393 637 q 568 564 495 637 q 642 382 642 490 q 511 164 642 245 q 380 135 458 135 l 165 135 q 70 198 94 135 q 66 224 66 213 l 66 229 q 117 307 66 279 q 165 317 133 317 l 393 317 q 459 367 438 317 q 460 380 460 375 l 460 382 q 462 383 460 383 l 460 385 l 460 388 q 421 450 460 428 q 382 456 410 456 l 304 456 q 111 560 191 456 q 66 701 66 630 l 66 708 q 184 917 66 836 q 310 954 244 954 z "},"T":{"ha":745,"x_min":7,"x_max":766,"o":"m 177 997 l 595 997 q 690 964 640 997 q 760 863 739 930 q 766 827 766 840 l 766 808 q 720 698 766 753 q 590 638 663 638 l 566 638 l 566 195 q 527 69 566 112 q 478 26 499 35 q 397 0 435 0 l 377 0 q 269 44 323 0 q 224 104 233 79 q 207 171 207 140 l 207 638 l 182 638 q 36 719 96 638 q 7 808 7 767 l 7 827 q 39 922 7 872 q 136 991 76 972 q 177 997 164 997 m 25 839 q 108 705 25 754 q 166 690 142 690 l 224 690 q 225 689 225 690 l 225 209 q 318 63 225 106 q 374 52 348 52 q 494 113 445 52 q 523 194 523 153 l 523 689 q 524 690 523 690 l 581 690 q 688 743 639 690 q 724 839 724 785 l 724 840 q 653 966 724 919 q 554 989 622 989 l 198 989 q 102 970 130 989 q 25 839 25 922 m 153 954 l 560 954 q 643 895 614 954 q 647 865 647 877 l 647 863 q 595 782 647 810 q 542 773 581 773 l 446 773 l 446 223 q 395 144 446 174 q 357 135 376 135 q 275 187 304 135 q 267 224 267 204 l 267 773 l 170 773 q 90 805 113 773 q 66 863 66 828 l 66 865 q 130 950 66 925 q 153 954 142 954 z "},"U":{"ha":723,"x_min":7,"x_max":743,"o":"m 177 997 l 197 997 q 290 964 241 997 q 359 871 337 931 q 367 795 367 844 l 367 368 q 372 360 367 363 l 378 360 q 383 365 379 360 l 383 795 q 406 904 383 871 q 507 988 438 963 q 555 997 536 997 l 574 997 q 662 969 614 997 q 737 868 713 936 q 743 827 743 840 l 743 361 q 639 111 743 221 q 382 0 527 0 l 368 0 q 77 151 197 0 q 7 363 7 248 l 7 827 q 60 946 7 889 q 151 994 91 979 q 177 997 172 997 m 174 988 l 168 988 q 49 922 100 988 q 25 833 25 885 l 25 392 q 163 117 25 224 q 363 52 253 52 q 641 196 531 52 q 701 391 701 282 l 701 840 q 618 974 701 926 q 559 988 585 988 l 553 988 q 553 989 553 988 l 551 988 l 545 988 q 425 920 476 988 q 403 840 403 882 l 403 394 q 374 352 403 363 l 365 351 l 361 351 q 325 383 334 351 q 323 398 323 390 l 323 845 q 252 968 323 918 q 182 988 214 988 l 176 988 q 176 989 176 988 l 174 988 m 153 954 l 161 954 q 243 895 214 954 q 248 865 248 877 l 248 422 q 313 322 248 349 q 343 317 328 317 l 349 317 q 433 370 401 317 q 444 432 444 386 l 444 867 q 504 949 444 921 q 531 954 519 954 l 538 954 q 619 896 591 954 q 625 863 625 880 l 625 417 q 490 175 625 264 q 346 135 424 135 q 102 275 194 135 q 66 412 66 340 l 66 866 q 120 947 66 918 q 153 954 137 954 z "},"V":{"ha":808,"x_min":7,"x_max":828,"o":"m 183 997 l 189 997 q 321 937 265 997 q 368 847 347 910 l 417 709 l 418 709 q 491 905 477 878 q 531 954 502 926 q 646 997 584 997 l 652 997 q 783 937 725 997 q 828 819 828 882 l 828 815 q 798 703 828 774 q 579 100 587 118 q 539 47 569 77 q 423 0 484 0 l 412 0 q 269 77 331 0 q 217 205 251 102 q 11 777 18 752 q 7 815 7 796 l 7 819 q 73 958 7 897 q 183 997 127 997 m 25 839 q 55 732 25 804 q 271 137 258 167 q 310 87 279 117 q 406 52 355 52 q 522 107 472 52 q 570 218 543 130 q 781 804 768 762 q 786 840 786 821 q 724 960 786 910 q 640 988 683 988 l 633 988 q 524 938 572 988 q 477 840 501 913 l 406 643 l 405 643 q 307 909 317 890 q 222 981 283 958 q 180 988 201 988 l 172 988 q 64 941 113 988 q 25 839 25 893 m 159 955 q 234 911 203 955 q 287 770 245 890 q 387 494 293 756 l 389 494 q 537 905 391 501 q 564 937 546 921 q 612 954 593 954 l 625 954 q 691 918 661 954 q 709 863 709 892 q 682 774 709 842 q 468 182 484 222 q 387 135 438 135 q 307 186 336 135 q 185 521 300 201 q 67 849 72 830 q 66 861 66 855 l 66 866 q 102 937 66 905 q 159 955 131 955 z "},"W":{"ha":1126,"x_min":7,"x_max":1147,"o":"m 182 997 l 195 997 q 309 949 252 997 q 355 880 349 908 q 382 785 361 862 l 382 785 q 428 919 407 893 q 524 989 463 969 q 570 997 551 997 l 583 997 q 717 931 656 997 q 747 873 747 887 q 771 785 751 867 q 785 832 773 785 q 815 913 800 895 q 911 988 844 963 q 958 997 939 997 l 971 997 q 1093 946 1035 997 q 1147 825 1147 886 l 1147 810 q 1108 665 1147 782 q 938 109 951 150 q 834 11 906 39 q 779 0 804 0 l 765 0 q 629 69 690 0 q 594 151 602 109 q 577 213 593 151 l 576 213 q 534 85 552 106 q 441 9 506 35 q 389 0 412 0 l 376 0 q 255 52 311 0 q 213 117 221 89 q 9 785 21 741 q 7 810 7 802 l 7 825 q 62 947 7 888 q 143 991 100 981 q 182 997 165 997 m 371 689 l 369 689 q 311 903 319 881 q 264 959 298 932 q 183 988 220 988 l 168 988 q 78 953 125 988 q 25 840 25 903 q 54 725 25 808 q 235 136 224 166 q 273 87 247 112 q 369 52 319 52 q 499 125 449 52 q 535 244 513 150 q 564 352 537 246 l 565 352 q 595 241 567 352 q 628 131 617 155 q 663 87 637 112 q 760 52 709 52 q 882 116 833 52 q 925 231 899 135 q 1102 814 1095 783 q 1105 844 1105 827 q 1051 954 1105 903 q 961 988 1005 988 l 947 988 q 842 937 893 988 q 802 845 817 909 q 761 689 802 842 l 760 689 q 703 896 709 881 q 618 979 679 954 q 561 989 587 989 q 495 971 518 984 q 450 935 475 961 q 422 884 424 897 q 371 689 414 855 m 155 954 l 161 954 q 237 907 207 954 q 281 750 245 892 q 352 483 343 520 l 353 483 q 463 899 452 859 q 546 954 492 954 l 551 954 q 629 904 598 954 q 706 617 637 881 q 742 484 710 606 l 743 484 q 854 901 849 887 q 935 954 884 954 l 940 954 q 1009 919 979 954 q 1028 865 1028 892 q 1001 762 1028 846 q 825 187 835 216 q 741 135 795 135 q 660 188 690 135 q 548 607 654 205 l 547 607 q 435 189 439 201 q 353 135 406 135 q 269 189 299 135 q 67 851 73 825 q 66 862 66 856 l 66 865 q 115 944 66 914 q 155 954 139 954 z "},"X":{"ha":806,"x_min":7,"x_max":827,"o":"m 182 997 l 191 997 q 332 924 273 997 q 417 792 411 800 l 418 792 q 513 937 491 909 q 643 997 570 997 l 650 997 q 785 934 726 997 q 827 821 827 882 l 827 815 q 778 690 827 751 l 639 498 q 805 267 789 291 q 827 183 827 225 l 827 176 q 749 31 827 90 q 652 0 700 0 l 642 0 q 513 59 572 0 q 433 180 494 83 q 418 205 429 184 l 417 205 q 325 64 340 85 q 271 21 290 28 q 193 0 231 0 l 180 0 q 34 83 96 0 q 7 176 7 130 l 7 183 q 58 309 7 248 l 195 498 l 195 499 q 27 734 27 728 q 7 815 7 772 l 7 821 q 82 964 7 906 q 182 997 130 997 m 25 841 q 64 736 25 784 q 220 520 211 534 l 220 519 q 42 271 62 303 q 25 200 25 239 q 93 77 25 125 q 174 52 133 52 q 296 115 248 52 q 404 283 404 281 l 404 283 q 517 110 408 279 q 635 52 567 52 q 764 123 713 52 q 785 202 785 162 q 745 304 785 256 q 590 520 597 509 q 764 764 764 763 q 785 842 785 798 q 722 962 785 913 q 641 988 681 988 l 633 988 q 510 920 557 988 q 406 758 406 760 l 404 758 q 289 937 300 920 q 177 988 241 988 l 170 988 q 52 926 102 988 q 25 841 25 885 m 152 954 l 161 954 q 248 888 215 954 q 386 673 268 859 l 387 673 q 544 917 390 676 q 615 954 573 954 l 625 954 q 694 913 661 954 q 708 862 708 889 q 675 790 708 828 l 499 545 l 499 543 q 701 263 701 267 q 708 227 708 245 q 656 144 708 172 q 618 135 636 135 q 531 194 562 135 l 387 416 l 386 416 q 224 165 232 174 q 155 135 195 135 q 76 184 107 135 q 66 226 66 205 l 66 233 q 99 300 66 260 q 275 545 271 538 l 275 546 q 77 821 88 802 q 66 857 66 841 l 66 865 q 125 949 66 922 q 152 954 138 954 z "},"Y":{"ha":749,"x_min":7,"x_max":770,"o":"m 184 997 l 186 997 q 340 911 281 997 q 388 814 353 889 q 432 903 389 816 q 531 987 463 962 q 588 997 560 997 l 592 997 q 737 922 678 997 q 770 819 770 873 l 770 812 q 742 717 770 770 q 568 357 569 364 l 568 176 q 487 29 568 88 q 397 0 439 0 l 379 0 q 263 50 320 0 q 209 173 209 106 l 209 357 q 48 690 203 371 q 7 810 7 765 l 7 818 q 83 964 7 906 q 184 997 131 997 m 25 838 q 62 730 25 794 l 227 388 l 227 209 q 329 60 227 98 q 376 52 341 54 q 502 120 452 52 q 526 209 526 155 l 526 387 q 716 782 534 406 q 728 838 728 811 q 656 967 728 920 q 582 988 619 988 l 574 988 q 463 935 512 988 q 399 812 450 920 q 377 767 393 800 l 376 767 q 295 929 313 901 q 177 988 245 988 l 171 988 q 51 922 100 988 q 25 838 25 882 m 150 954 l 163 954 q 225 924 193 954 q 284 808 239 905 q 358 655 358 658 q 483 911 364 665 q 529 949 501 939 q 555 954 546 954 l 565 954 q 642 905 611 954 q 651 863 651 884 q 625 789 651 837 q 449 426 461 452 l 449 231 q 378 137 449 159 q 357 135 364 135 q 273 195 301 135 q 269 224 269 212 l 269 425 q 73 830 261 443 q 66 860 66 846 l 66 864 q 116 944 66 915 q 150 954 136 954 z "},"Z":{"ha":780,"x_min":7,"x_max":800,"o":"m 178 997 l 625 997 q 771 916 715 997 q 800 822 800 868 l 800 811 q 747 684 800 753 l 527 360 l 603 360 q 726 325 685 360 q 794 224 774 292 q 800 184 800 203 l 800 176 q 717 27 800 87 q 631 0 668 0 l 182 0 q 22 106 78 0 q 7 176 7 144 l 7 185 q 60 313 7 244 l 280 637 l 195 637 q 20 749 73 637 q 7 811 7 785 l 7 824 q 58 943 7 888 q 138 991 100 981 q 178 997 165 997 m 26 839 q 94 713 26 762 q 180 690 130 690 l 323 690 q 326 688 326 690 q 42 269 65 307 q 25 203 25 236 l 25 201 q 83 83 25 136 q 159 54 125 54 q 195 52 159 52 l 585 52 q 684 73 655 52 q 758 203 758 121 q 677 335 758 286 q 597 351 644 351 l 460 351 q 458 353 458 351 q 696 703 467 365 q 755 809 755 784 q 758 838 758 819 l 758 842 q 701 958 758 907 q 653 982 675 977 q 585 989 637 989 l 198 989 q 104 970 132 989 q 37 895 60 948 q 26 839 26 867 m 154 954 l 595 954 q 677 890 651 954 q 682 865 682 876 l 682 863 q 648 787 682 831 l 329 317 l 583 317 q 677 253 654 317 q 681 227 681 235 q 621 140 681 168 q 583 135 606 135 l 169 135 q 92 164 113 135 q 66 224 66 194 l 66 228 q 100 302 66 258 l 419 773 l 156 773 q 73 831 102 773 q 67 865 67 848 l 67 865 q 122 947 67 919 q 154 954 137 954 z "},"[":{"ha":475,"x_min":7,"x_max":495,"o":"m 163 998 l 338 998 q 436 960 387 998 q 478 907 470 928 q 495 842 495 871 l 495 824 q 457 726 495 777 q 380 675 416 684 q 338 667 356 667 l 338 175 q 449 125 395 175 q 494 35 490 78 q 495 20 495 25 l 495 1 q 465 -86 495 -41 q 372 -151 434 -132 q 338 -155 351 -155 l 163 -155 q 76 -125 122 -155 q 32 -79 42 -98 q 7 1 7 -37 l 7 843 q 41 934 7 886 q 115 988 76 975 q 163 998 143 998 m 24 847 l 24 35 q 109 -97 24 -56 q 182 -108 130 -108 l 298 -108 q 385 -91 359 -108 q 456 31 456 -47 q 389 148 456 104 q 300 168 361 168 l 300 168 q 298 169 298 168 l 298 713 q 300 715 298 715 l 302 715 q 395 739 366 715 q 456 853 456 782 q 393 968 456 925 q 300 990 363 990 l 182 990 q 101 977 125 990 q 24 847 24 936 m 161 959 l 286 959 q 356 939 339 959 q 386 878 386 913 l 386 875 q 361 816 386 841 q 299 792 337 792 l 228 792 l 228 136 l 288 136 q 357 115 338 136 q 384 73 376 101 q 386 54 386 62 l 386 52 q 326 -28 386 -4 q 298 -31 313 -31 l 150 -31 q 88 -8 111 -31 q 62 50 62 17 l 62 878 q 113 952 62 926 q 161 959 125 959 z "},"\\":{"ha":590,"x_min":7,"x_max":610,"o":"m 198 1026 l 202 1026 q 347 960 283 1026 q 395 857 376 928 q 608 170 593 220 q 610 136 610 153 l 610 132 q 545 -12 610 51 q 427 -59 485 -59 l 412 -59 q 274 4 336 -59 q 217 127 239 37 q 21 759 212 139 q 7 831 7 796 l 7 836 q 82 987 7 924 q 198 1026 136 1026 m 26 857 q 58 734 26 824 q 258 89 248 117 q 351 6 286 32 q 405 -3 381 -3 q 537 66 484 -3 q 565 157 565 111 q 537 271 565 191 q 333 925 347 887 q 292 978 322 950 q 191 1017 243 1017 l 182 1017 q 56 949 110 1017 q 26 857 26 904 m 161 980 l 175 980 q 248 941 211 980 q 280 848 260 922 q 460 269 452 300 q 483 182 483 205 q 436 100 483 134 q 384 86 411 86 q 301 134 335 86 q 260 260 290 158 q 80 840 252 284 q 71 882 71 863 l 71 886 q 125 970 71 937 q 161 980 147 980 z "},"]":{"ha":475,"x_min":7,"x_max":495,"o":"m 163 996 l 338 996 q 436 958 387 996 q 492 868 475 926 q 495 842 495 846 l 495 0 q 454 -101 495 -51 q 399 -142 425 -131 q 338 -157 364 -157 l 163 -157 q 76 -127 121 -157 q 12 -34 31 -96 q 7 0 7 -12 l 7 18 q 52 123 7 71 q 164 174 106 174 l 164 666 q 53 716 106 666 q 9 802 13 763 q 7 823 7 814 l 7 840 q 47 941 7 890 q 95 978 77 970 q 163 996 132 996 m 24 851 q 101 728 24 772 q 178 714 127 714 l 180 714 q 182 712 182 713 l 182 168 q 180 166 182 166 l 180 166 q 88 145 117 166 q 24 28 24 102 q 95 -92 24 -48 q 182 -109 121 -109 l 298 -109 q 385 -92 359 -109 q 456 31 456 -49 l 456 849 q 370 979 456 939 q 297 989 348 989 l 182 989 q 95 972 121 989 q 24 851 24 929 m 161 958 l 286 958 q 351 941 334 958 q 386 874 386 915 l 386 51 q 335 -26 386 1 q 298 -33 320 -33 l 151 -33 q 66 24 87 -33 q 62 49 62 37 l 62 53 q 115 129 62 104 q 161 134 127 134 l 219 134 l 219 791 l 147 791 q 66 844 92 791 q 62 872 62 859 l 62 874 q 125 955 62 933 q 161 958 139 958 z "},"^":{"ha":633,"x_min":9,"x_max":654,"o":"m 325 996 l 338 996 q 458 942 406 996 q 511 864 481 916 q 638 665 623 694 q 654 600 654 630 l 654 592 q 598 465 654 519 q 482 418 545 418 l 473 418 q 331 500 387 418 q 182 418 276 418 l 178 418 q 70 459 123 418 q 9 592 9 514 l 9 600 q 52 710 9 651 q 195 932 184 917 q 325 996 250 996 m 26 617 q 111 482 26 526 q 168 469 140 469 l 175 469 q 300 545 252 469 q 319 574 313 568 q 351 527 322 573 q 467 469 397 469 q 589 534 541 469 q 612 619 612 571 q 569 723 612 665 q 431 937 444 920 q 319 989 386 989 q 182 897 231 989 q 37 669 52 699 q 26 617 26 639 m 297 954 l 308 954 q 388 897 357 954 q 532 669 532 673 q 538 637 538 654 q 480 554 538 581 q 451 549 464 549 q 366 608 395 549 q 302 705 309 694 l 302 705 q 220 579 234 597 q 154 549 193 549 q 79 591 109 549 q 66 636 66 614 l 66 641 q 96 709 66 669 q 237 926 224 908 q 297 954 264 954 z "},"_":{"ha":663,"x_min":-181,"x_max":909,"o":"m -13 0 l 739 0 q 847 -44 793 0 q 893 -104 881 -76 q 909 -168 909 -142 l 909 -189 q 843 -319 909 -258 q 739 -359 789 -359 l -13 -359 q -112 -322 -60 -359 q -177 -222 -157 -289 q -181 -189 -181 -199 l -181 -168 q -149 -75 -181 -125 q -54 -7 -112 -25 q -13 0 -27 0 m -163 -158 q -90 -286 -163 -238 q 7 -307 -60 -307 l 697 -307 q 798 -282 768 -307 q 860 -203 838 -259 q 867 -157 867 -181 q 783 -23 867 -71 q 694 -8 756 -8 l 9 -8 q -91 -30 -62 -8 q -163 -158 -163 -77 m -14 -42 l 682 -42 q 753 -60 734 -42 q 790 -132 790 -90 l 790 -134 q 732 -218 790 -190 q 696 -224 713 -224 l -28 -224 q -117 -162 -92 -224 q -121 -135 -121 -149 l -121 -131 q -71 -51 -121 -80 q -14 -42 -54 -42 z "},"`":{"ha":369,"x_min":0,"x_max":369,"o":"m 155 1213 l 162 1213 q 281 1154 231 1213 q 355 1036 297 1135 q 369 972 369 1005 l 369 970 q 284 828 369 880 q 215 811 247 811 l 205 811 q 61 909 114 811 q 1 1036 1 998 q 0 1051 0 1039 l 0 1054 q 66 1183 0 1133 q 155 1213 109 1213 m 18 1074 q 52 983 18 1032 q 106 901 86 926 q 198 863 145 863 q 302 916 260 863 q 327 993 327 951 q 291 1085 327 1036 q 242 1162 260 1141 q 153 1204 200 1204 l 143 1204 q 40 1148 83 1204 q 18 1074 18 1112 m 125 1170 l 132 1170 q 204 1112 176 1170 q 250 1027 250 1041 q 251 1017 251 1024 l 251 1017 q 196 947 251 965 l 180 945 q 110 998 136 945 q 60 1088 60 1074 q 59 1095 59 1089 l 59 1100 q 109 1167 59 1147 q 125 1170 118 1170 z "},"a":{"ha":791,"x_min":7,"x_max":812,"o":"m 401 814 l 418 814 q 544 792 474 814 q 625 814 585 814 l 642 814 q 750 770 696 814 q 798 707 785 736 q 812 645 812 668 l 812 170 q 758 50 812 109 q 685 8 711 12 q 642 0 661 0 l 625 0 q 543 22 585 0 l 542 22 q 416 0 477 0 l 401 0 q 119 125 241 0 q 7 400 7 245 l 7 414 q 162 730 7 598 q 401 814 272 814 m 393 805 l 390 805 q 113 672 230 805 q 25 429 25 568 q 183 121 25 241 q 397 52 279 52 q 534 78 465 52 q 619 52 575 52 q 745 119 696 52 q 770 204 770 156 l 770 654 q 688 789 770 743 q 627 805 656 805 l 621 805 q 621 806 621 805 l 618 805 l 615 805 q 535 779 572 805 q 406 805 467 805 l 402 805 q 398 806 399 805 l 393 805 m 373 771 l 388 771 q 529 733 457 771 q 597 771 557 771 l 606 771 q 684 722 654 771 q 693 681 693 703 l 693 226 q 631 140 693 168 q 603 136 612 136 q 530 173 556 136 q 462 146 492 155 q 378 136 422 136 q 161 226 254 136 q 66 451 66 320 l 66 456 q 220 728 66 625 q 373 771 294 771 m 248 452 q 300 345 248 388 q 375 317 336 317 l 385 317 q 496 389 452 317 q 512 454 512 420 q 441 574 512 530 q 379 590 412 590 q 257 506 298 590 q 248 452 248 479 m 399 506 q 467 454 445 506 q 471 428 471 441 q 423 356 471 382 q 399 351 411 351 l 397 351 q 327 408 347 351 q 324 430 324 422 q 372 502 324 478 q 399 506 384 506 m 367 411 l 367 404 q 399 361 367 375 q 407 360 404 360 l 412 360 q 450 395 437 360 q 452 404 452 399 l 452 410 q 420 452 452 439 l 410 454 q 369 421 379 454 q 367 411 367 418 z "},"b":{"ha":789,"x_min":7,"x_max":810,"o":"m 176 997 l 195 997 q 305 952 251 997 q 366 827 366 894 l 366 810 q 407 814 379 812 q 708 677 584 814 q 810 413 810 560 l 810 399 q 643 75 810 208 q 416 0 536 0 l 401 0 q 277 26 340 0 q 191 0 234 0 l 176 0 q 58 52 117 0 q 7 170 7 111 l 7 827 q 60 946 7 888 q 108 979 91 973 q 176 997 140 996 m 173 988 l 167 988 q 58 933 106 988 q 25 836 25 893 l 25 206 q 119 62 25 105 q 167 53 146 53 l 171 53 q 174 52 173 53 q 178 53 176 53 l 179 53 q 261 83 222 53 q 395 52 329 52 q 404 53 400 53 q 694 203 574 53 q 768 427 768 303 l 768 431 q 609 738 768 616 q 397 805 512 805 q 323 796 370 805 l 323 837 q 242 972 323 926 q 182 988 210 988 l 175 988 q 174 989 174 988 l 173 988 m 153 954 l 160 954 q 237 905 208 954 q 248 865 248 886 l 248 730 q 378 770 312 770 q 646 618 545 770 q 691 452 691 545 q 550 187 691 290 q 380 135 473 135 q 231 183 300 135 l 231 183 q 156 135 201 135 q 75 188 103 135 q 66 226 66 204 l 66 865 q 129 950 66 924 q 153 954 140 954 m 248 453 q 323 328 248 372 q 374 317 351 317 l 383 317 q 485 373 442 317 q 509 448 509 408 l 509 451 q 511 452 509 452 l 509 454 l 509 458 q 445 571 509 526 q 378 589 413 589 q 260 513 302 589 q 248 453 248 484 m 397 505 q 463 462 440 505 q 469 427 469 446 q 427 358 469 383 q 397 351 414 351 l 395 351 q 327 404 349 351 q 323 428 323 416 q 373 502 323 479 q 397 505 385 505 m 366 406 q 397 361 366 374 q 406 360 400 360 l 410 360 q 449 394 437 360 q 450 403 450 399 l 450 411 q 418 452 450 440 q 409 453 413 453 l 406 453 q 368 420 380 453 q 366 406 366 408 z "},"c":{"ha":721,"x_min":7,"x_max":741,"o":"m 401 814 l 416 814 q 631 748 531 814 q 700 688 660 730 q 741 576 741 637 l 741 567 q 678 436 741 495 q 633 408 652 414 l 633 406 q 724 318 690 382 q 741 243 741 278 q 660 88 741 149 q 416 0 550 0 l 401 0 q 106 139 233 0 q 7 400 7 255 l 7 414 q 162 730 7 598 q 401 814 273 814 m 394 805 l 391 805 q 90 644 212 805 q 25 430 25 546 l 25 429 q 187 118 25 239 q 397 52 282 52 q 661 163 551 52 q 699 255 699 208 l 699 268 q 635 386 699 337 q 549 412 597 412 l 546 412 q 467 389 505 412 l 431 359 q 399 351 414 351 l 397 351 q 327 409 347 351 l 324 429 q 374 503 324 479 q 399 506 385 506 q 458 476 429 506 q 546 446 500 446 q 690 541 646 446 q 699 591 699 570 q 623 728 699 675 q 405 805 525 805 l 401 805 q 397 806 399 805 q 394 805 396 805 m 373 771 l 387 771 q 607 671 513 771 q 623 618 623 646 q 571 537 623 568 q 534 529 551 529 l 530 529 q 467 556 495 529 q 380 590 429 590 q 262 517 304 590 q 248 454 248 486 q 319 332 248 376 q 375 317 348 317 l 385 317 q 480 363 434 317 q 529 378 503 378 l 535 378 q 616 321 588 378 q 622 292 622 303 l 622 284 q 556 191 622 233 q 380 136 479 136 q 112 286 214 136 q 66 451 66 361 l 66 455 q 212 724 66 620 q 373 771 288 771 m 367 406 q 397 362 367 375 q 406 360 400 360 l 412 360 q 452 384 427 360 q 490 408 463 393 q 429 449 469 415 q 409 454 419 454 q 369 422 381 454 q 367 406 367 412 z "},"d":{"ha":790,"x_min":7,"x_max":810,"o":"m 622 997 l 642 997 q 735 964 685 997 q 804 869 785 928 q 810 827 810 843 l 810 170 q 769 64 810 117 q 719 22 742 35 q 642 0 674 0 l 628 0 q 541 26 581 0 q 415 0 477 0 l 401 0 q 118 125 241 0 q 7 399 7 245 l 7 413 q 163 729 7 598 q 410 814 273 814 l 451 811 l 451 812 q 551 979 451 923 q 622 997 589 997 m 618 988 l 614 988 q 494 922 544 988 q 470 840 470 884 l 470 797 l 469 795 q 397 805 430 805 q 91 644 211 805 q 25 428 25 547 q 183 120 25 241 q 396 52 280 52 q 533 83 463 52 q 612 53 570 53 l 616 53 q 619 52 618 53 q 623 53 621 53 l 627 53 q 730 102 683 53 q 768 203 768 144 l 768 840 q 684 974 768 928 q 627 988 653 988 l 621 988 q 620 989 620 988 l 618 988 m 598 954 l 605 954 q 688 895 659 954 q 692 863 692 878 l 692 227 q 627 138 692 163 q 602 135 616 136 q 529 183 555 135 q 493 162 527 183 q 377 135 435 135 q 159 227 253 135 q 66 450 66 321 l 66 456 q 177 695 66 597 q 378 770 265 770 q 511 730 446 770 l 511 867 q 565 947 511 918 q 598 954 582 954 m 247 453 q 314 334 247 380 q 374 317 345 317 l 384 317 q 494 385 450 317 q 511 453 511 417 q 434 577 511 534 q 379 589 406 589 q 261 514 303 589 q 247 453 247 483 m 397 505 q 467 453 446 505 q 470 427 470 441 q 428 358 470 383 q 397 351 415 351 l 396 351 q 326 407 348 351 l 323 428 q 366 498 323 473 q 397 505 379 505 m 366 409 l 366 404 q 396 361 366 376 q 406 360 399 360 l 411 360 q 450 394 437 360 q 451 403 451 399 l 451 413 q 433 445 451 429 q 410 453 423 453 l 408 453 q 368 421 380 453 q 366 409 366 414 z "},"e":{"ha":773,"x_min":7,"x_max":793,"o":"m 401 814 l 419 814 q 669 718 551 814 q 742 636 726 664 q 793 490 793 557 l 793 476 q 743 368 793 416 q 793 241 793 315 q 746 122 793 179 q 673 72 717 92 q 416 0 536 0 l 401 0 q 113 132 237 0 q 7 400 7 250 l 7 414 q 170 734 7 603 q 401 814 277 814 m 393 805 l 390 805 q 135 696 246 805 q 25 429 25 585 q 134 163 25 274 q 397 52 245 52 q 684 142 532 52 q 750 269 750 190 q 699 379 750 329 q 682 391 686 390 l 682 394 q 744 461 726 414 q 751 504 751 481 q 652 704 751 604 q 408 805 538 805 l 402 805 q 398 806 399 805 l 393 805 m 372 771 l 390 771 q 585 693 491 771 q 675 531 675 606 q 627 466 675 482 q 348 363 367 368 l 339 363 q 275 408 295 363 q 271 431 271 422 q 309 492 271 470 q 469 552 467 552 l 469 553 q 380 590 429 590 q 262 517 304 590 q 248 454 248 488 q 328 327 248 370 q 373 317 356 317 l 383 317 q 550 375 448 317 q 583 381 567 381 q 665 330 635 381 q 674 292 674 307 q 624 209 674 239 q 380 136 492 136 q 110 290 212 136 q 66 450 66 364 l 66 456 q 214 724 66 621 q 372 771 288 771 z "},"f":{"ha":565,"x_min":7,"x_max":585,"o":"m 388 997 l 416 997 q 510 964 459 997 q 553 920 537 943 q 585 827 585 871 l 585 807 q 532 688 585 747 q 505 667 511 670 q 520 596 520 630 q 424 432 520 490 l 424 181 q 323 18 424 75 q 254 0 284 0 l 233 0 q 137 35 187 0 q 64 184 64 92 l 64 460 q 16 534 24 504 q 7 582 7 566 l 7 602 q 67 728 7 668 q 117 862 81 810 q 275 979 173 945 q 388 997 334 997 m 25 614 q 82 496 25 545 l 82 222 q 108 119 82 150 q 185 60 132 79 q 224 53 207 53 l 229 53 q 233 52 231 53 q 236 53 234 53 l 240 53 q 338 96 292 53 q 376 158 367 127 q 382 216 382 180 l 382 473 q 409 488 382 474 q 467 558 451 517 q 477 607 477 585 l 477 614 q 478 614 477 614 l 477 616 l 477 621 q 452 701 477 659 l 452 701 q 529 775 503 724 q 543 839 543 806 q 469 969 543 921 q 392 989 433 989 q 107 823 182 989 q 87 746 87 769 q 79 730 85 730 q 25 614 25 684 m 359 954 l 380 954 q 459 901 430 954 q 467 863 467 883 l 467 863 q 406 777 467 805 q 347 772 391 772 q 311 753 311 766 q 305 729 309 753 l 312 729 q 395 673 368 729 q 401 642 401 659 l 401 635 q 341 553 401 581 q 314 549 326 549 l 305 549 l 305 239 q 273 157 305 181 q 215 135 248 135 q 130 193 158 135 q 123 231 123 208 l 123 555 q 66 639 66 582 l 66 642 q 116 720 66 691 q 123 723 122 723 q 221 917 123 850 q 359 954 283 954 z "},"g":{"ha":790,"x_min":7,"x_max":810,"o":"m 401 814 l 416 814 q 541 789 475 814 q 626 814 585 814 l 642 814 q 735 782 685 814 q 804 687 783 749 q 810 646 810 660 l 810 214 q 717 -37 810 79 q 416 -182 589 -182 l 398 -182 q 114 -87 247 -182 q 45 52 45 -28 l 45 54 q 94 179 45 125 q 7 416 7 288 l 7 430 q 147 721 7 597 q 401 814 261 814 m 392 806 l 389 806 q 96 657 217 806 q 25 445 25 562 q 124 199 25 304 l 124 199 q 63 74 63 149 q 111 -33 63 16 q 174 -75 132 -52 q 396 -131 278 -131 q 702 30 581 -131 q 768 244 768 126 l 768 657 q 685 791 768 744 q 627 806 651 806 l 621 806 q 620 806 620 806 l 618 806 l 615 806 q 534 776 571 806 l 533 776 q 404 806 465 806 l 401 806 q 397 806 399 806 l 392 806 m 371 772 l 389 772 q 528 725 456 772 l 529 725 q 596 772 558 772 l 605 772 q 687 713 659 772 q 692 680 692 697 l 692 269 q 564 14 692 116 q 378 -47 483 -47 q 134 33 242 -47 q 104 104 104 62 q 132 166 104 138 q 196 193 158 193 q 266 161 229 193 q 372 129 318 129 l 381 129 q 481 199 456 129 l 481 199 q 362 172 436 172 q 112 311 211 172 q 66 466 66 382 l 66 473 q 222 732 66 632 q 371 772 295 772 m 247 469 q 326 358 247 397 q 376 349 353 349 l 382 349 q 497 414 453 349 q 511 469 511 444 q 430 582 511 545 q 378 591 405 591 q 266 531 308 591 q 247 469 247 502 m 395 507 l 398 507 q 467 462 450 505 q 470 444 470 455 q 417 385 470 404 q 398 382 404 382 l 395 382 q 327 426 351 382 q 323 445 324 436 q 376 506 323 486 q 395 507 389 507 m 366 423 l 366 420 q 394 393 366 406 q 405 391 401 391 l 412 391 q 450 415 437 391 q 451 418 451 416 l 451 427 q 423 453 451 443 q 413 454 418 454 l 404 454 q 366 423 366 448 z "},"h":{"ha":754,"x_min":7,"x_max":774,"o":"m 175 997 l 195 997 q 302 955 249 997 q 366 812 366 899 l 368 812 l 375 812 q 390 814 385 812 q 706 641 581 814 q 774 415 774 534 l 774 168 q 742 75 774 125 q 691 27 711 39 q 604 0 644 0 l 584 0 q 481 39 536 0 q 432 101 444 74 q 415 197 415 136 l 415 413 q 395 453 415 437 q 391 454 393 453 q 366 414 374 454 l 366 202 q 340 89 366 123 q 245 11 307 33 q 186 1 218 1 l 185 1 q 34 84 92 1 q 7 171 7 131 l 7 827 q 58 945 7 887 q 139 991 109 987 q 175 997 160 997 m 173 988 l 166 988 q 55 930 106 988 q 25 833 25 890 l 25 207 q 115 65 25 110 q 168 54 145 54 l 180 54 q 288 106 240 54 q 323 200 323 149 l 323 423 q 366 505 323 486 l 379 507 q 430 459 411 507 q 434 424 434 446 l 434 203 q 522 65 434 111 q 583 52 555 52 q 717 134 668 52 q 732 203 732 165 l 732 428 q 584 735 732 616 q 379 805 492 805 q 324 799 343 803 l 323 800 l 323 842 q 242 973 323 923 q 183 988 209 987 l 175 988 q 174 989 174 988 l 173 988 m 151 954 l 160 954 q 242 896 212 954 q 247 865 247 879 l 247 735 q 361 770 304 770 q 607 629 512 770 q 656 450 656 553 l 656 224 q 600 142 656 170 q 565 135 583 135 q 483 188 512 135 q 475 222 475 203 l 475 433 q 451 537 475 506 q 366 589 414 589 l 356 589 q 275 543 311 589 q 247 442 247 508 l 247 226 q 196 146 247 175 q 160 137 180 137 l 153 137 q 75 189 103 137 q 66 224 66 206 l 66 865 q 126 949 66 923 q 151 954 140 954 z "},"i":{"ha":345,"x_min":7,"x_max":365,"o":"m 178 997 l 193 997 q 335 925 275 997 q 365 840 365 883 l 365 829 q 331 738 365 781 q 365 639 365 688 l 365 170 q 311 50 365 109 q 254 12 279 22 q 195 0 217 0 l 176 0 q 58 52 117 0 q 7 170 7 110 l 7 639 q 40 737 7 688 q 7 829 7 782 l 7 842 q 68 958 7 905 q 178 997 122 997 m 172 988 l 167 988 q 51 931 100 988 q 25 854 25 897 q 69 761 25 802 l 69 760 q 25 650 25 715 l 25 205 q 119 62 25 105 q 166 52 146 52 l 170 52 q 174 52 172 52 q 178 52 176 52 l 182 52 q 293 111 243 52 q 323 203 323 151 l 323 652 q 278 760 323 715 q 323 857 323 801 q 245 973 323 930 q 179 988 211 988 l 175 988 q 174 989 174 988 l 172 988 m 151 954 l 161 954 q 237 913 208 954 q 247 880 247 899 q 188 810 247 832 q 161 806 175 806 l 151 806 q 76 846 105 806 q 66 879 66 861 l 66 882 q 130 951 66 930 q 151 954 142 954 m 155 768 q 241 710 212 768 q 247 680 247 693 l 247 225 q 185 139 247 168 q 155 135 166 135 q 74 187 103 135 q 66 225 66 204 l 66 681 q 125 763 66 735 q 155 768 136 767 z "},"j":{"ha":350,"x_min":-68,"x_max":370,"o":"m 211 998 l 223 998 q 342 940 292 998 q 370 861 370 903 q 340 779 370 817 q 370 694 370 739 l 370 66 q 295 -127 370 -50 q 96 -203 216 -203 l 75 -203 q -4 -176 37 -203 q -62 -92 -46 -145 q -68 -60 -68 -72 l -68 -43 q -38 39 -68 -5 q 5 78 -11 71 q 68 100 33 96 l 68 693 q 96 777 68 739 q 66 857 66 816 l 66 863 q 140 979 66 934 q 211 998 178 998 m 205 990 l 202 990 q 127 965 163 990 q 82 879 82 929 q 120 798 82 833 l 120 796 q 83 700 83 761 l 83 94 q 82 93 83 93 l 81 93 q -13 58 22 93 q -52 -33 -52 20 q 5 -138 -52 -98 q 75 -159 37 -159 q 315 -17 253 -159 q 335 91 335 33 l 335 708 q 297 798 335 758 l 297 799 q 334 876 334 834 l 334 880 q 273 975 334 939 q 214 990 243 990 l 211 990 q 208 991 209 990 q 205 990 206 990 m 189 962 l 197 962 q 262 925 238 962 q 269 900 269 913 l 269 899 q 224 842 269 861 q 195 836 211 836 l 189 836 q 123 873 148 836 q 117 899 117 885 q 167 958 117 940 q 189 962 180 962 m 195 804 l 196 804 q 264 760 239 804 q 271 729 271 744 l 271 112 q 161 -72 271 -24 q 60 -89 118 -89 q -10 -45 14 -89 q -18 -14 -18 -31 l -18 -9 q 22 54 -18 29 q 84 64 35 64 q 113 79 110 68 q 119 125 119 89 l 119 730 q 167 800 119 776 q 195 804 182 804 z "},"k":{"ha":640,"x_min":7,"x_max":660,"o":"m 177 997 l 197 997 q 296 960 245 997 q 351 890 338 924 q 367 798 367 863 l 367 773 q 480 814 418 814 q 642 714 583 814 q 660 642 660 673 l 660 627 q 604 502 660 559 q 502 406 595 496 q 621 293 621 295 q 660 184 660 241 l 660 170 q 604 49 660 109 q 488 0 549 0 l 471 0 q 359 45 416 0 q 332 75 359 47 q 236 6 298 26 q 197 0 210 0 l 177 0 q 82 33 132 0 q 34 83 45 63 q 7 170 7 130 l 7 829 q 39 922 7 872 q 138 991 79 975 q 177 997 163 997 m 174 988 l 168 988 q 54 928 104 988 q 25 833 25 891 l 25 206 q 112 66 25 111 q 174 52 144 52 q 302 125 255 52 l 315 146 q 391 75 382 75 q 469 52 427 52 q 589 115 543 52 q 618 200 618 155 q 555 325 618 274 q 446 428 446 427 q 582 557 446 429 q 618 659 618 600 q 544 785 618 734 q 469 805 507 805 l 468 805 q 341 737 395 805 l 325 720 l 323 722 l 323 846 q 261 962 323 911 q 182 988 220 988 l 176 988 q 176 989 176 988 l 174 988 m 153 954 l 161 954 q 242 896 214 954 q 248 866 248 880 l 248 597 q 401 755 384 741 q 449 770 424 770 l 453 770 q 534 717 503 770 q 541 680 541 700 q 498 600 541 633 l 341 452 q 492 311 344 451 q 541 235 541 273 q 541 226 541 235 q 503 152 541 182 q 450 135 479 135 q 374 176 406 135 l 248 308 l 248 224 q 197 144 248 174 q 157 135 176 135 q 72 194 100 135 q 66 224 66 210 l 66 866 q 117 945 66 916 q 153 954 134 954 z "},"l":{"ha":345,"x_min":7,"x_max":366,"o":"m 177 997 l 197 997 q 290 964 240 997 q 360 865 340 930 q 366 827 366 838 l 366 170 q 324 64 366 117 q 273 22 292 29 q 197 0 232 0 l 177 0 q 82 33 132 0 q 13 130 32 69 q 7 170 7 157 l 7 827 q 39 922 7 872 q 136 991 76 972 q 177 997 164 997 m 174 988 l 168 988 q 49 922 100 988 q 25 833 25 884 l 25 206 q 66 98 25 141 q 174 52 113 52 q 296 115 248 52 q 323 201 323 154 l 323 838 q 245 971 323 925 q 182 988 211 988 l 176 988 q 175 989 175 988 l 174 988 m 153 954 l 160 954 q 243 895 214 954 q 247 865 247 877 l 247 224 q 186 140 247 167 q 157 135 167 135 q 72 194 100 135 q 66 224 66 209 l 66 866 q 121 947 66 919 q 153 954 136 954 z "},"m":{"ha":1121,"x_min":7,"x_max":1141,"o":"m 177 814 l 193 814 q 270 792 229 814 q 373 814 323 814 l 392 814 q 574 756 484 814 q 758 814 663 814 l 777 814 q 1015 713 907 814 q 1141 416 1141 585 l 1141 169 q 1109 75 1141 125 q 1054 26 1072 32 q 971 0 1011 0 l 951 0 q 842 45 897 0 q 799 102 810 75 q 781 195 781 135 l 781 412 q 768 451 781 431 l 767 451 q 754 391 754 435 l 754 170 q 691 42 754 102 q 584 0 636 0 l 564 0 q 472 31 522 0 q 402 124 425 63 q 394 170 394 153 l 394 390 q 381 450 394 437 l 381 451 l 380 451 q 367 412 367 431 l 367 197 q 332 77 367 117 q 242 9 309 36 q 188 1 213 1 l 186 1 q 33 87 90 1 q 7 171 7 132 l 7 645 q 39 739 7 689 q 138 808 79 791 q 177 814 163 814 m 174 805 l 168 805 q 54 745 104 805 q 25 650 25 708 l 25 208 q 109 68 25 114 q 168 54 141 54 l 182 54 q 294 111 243 54 q 323 196 323 155 l 323 414 q 353 500 323 479 q 370 507 358 507 q 407 465 390 507 q 412 429 412 449 l 412 209 q 505 63 412 106 q 562 52 534 52 q 694 129 644 52 q 712 205 712 161 l 712 427 q 747 505 712 481 q 757 507 751 507 q 796 460 779 507 q 801 420 801 447 l 801 195 q 853 87 801 136 q 949 52 898 52 q 1084 134 1034 52 q 1099 203 1099 165 l 1099 429 q 968 725 1099 607 q 763 805 876 805 l 760 805 q 756 806 758 805 q 752 805 754 805 l 745 805 q 563 741 652 805 l 562 741 q 379 805 473 805 l 374 805 q 370 806 371 805 l 364 805 l 362 805 q 255 780 312 805 l 254 780 q 180 805 218 805 l 176 805 q 176 806 176 805 l 174 805 m 153 771 l 162 771 q 227 728 197 771 q 344 771 288 771 l 358 771 q 544 686 460 771 q 731 771 629 771 l 743 771 q 977 627 884 771 q 1023 450 1023 552 l 1023 224 q 966 142 1023 170 q 932 135 950 135 q 850 187 879 135 q 841 243 841 202 l 841 459 q 783 576 841 530 q 739 590 760 590 q 642 501 673 590 q 635 456 635 476 l 635 226 q 572 139 635 166 q 544 135 553 135 q 459 193 488 135 q 454 224 454 210 l 454 442 q 376 587 454 553 q 351 590 358 590 q 257 510 290 590 q 248 438 248 488 l 248 224 q 195 144 248 174 q 158 136 173 136 q 75 188 104 136 q 66 224 66 205 l 66 683 q 119 763 66 734 q 153 771 135 771 z "},"n":{"ha":755,"x_min":7,"x_max":776,"o":"m 177 814 l 192 814 q 273 790 233 814 q 385 814 330 814 l 400 814 q 657 703 541 814 q 776 415 776 576 l 776 169 q 739 69 776 121 q 686 23 706 33 q 607 0 642 0 l 587 0 q 460 60 521 0 q 419 143 429 97 q 416 196 416 164 l 416 412 q 397 453 416 438 q 393 454 395 454 l 391 454 q 368 424 378 454 q 367 412 367 417 l 367 196 q 329 71 367 115 q 188 1 273 1 l 186 1 q 43 71 102 1 q 7 171 7 122 l 7 645 q 43 745 7 692 q 97 791 75 781 q 177 814 142 814 m 174 805 l 168 805 q 49 739 100 805 q 25 650 25 702 l 25 208 q 109 68 25 113 q 168 54 140 54 l 182 54 q 296 114 245 54 q 323 196 323 156 l 323 414 q 347 491 323 472 q 379 507 360 507 l 380 507 q 433 450 418 507 q 435 418 435 435 l 435 195 q 498 79 435 130 q 585 52 540 52 q 716 130 667 52 q 734 203 734 163 l 734 431 q 591 732 734 612 q 385 805 497 805 l 385 805 q 380 806 381 805 l 374 805 l 372 805 q 257 778 320 805 q 180 805 220 805 l 176 805 q 176 806 176 805 l 174 805 m 153 771 l 164 771 q 228 727 198 771 l 229 727 q 355 771 293 771 l 370 771 q 594 650 499 771 q 657 450 657 567 l 657 224 q 602 142 657 170 q 567 135 585 135 q 486 186 514 135 q 475 243 475 200 l 475 460 q 422 570 475 525 q 361 590 393 590 q 259 513 295 590 q 248 437 248 490 l 248 224 q 188 141 248 169 q 158 136 177 138 q 72 195 99 136 q 66 224 66 211 l 66 683 q 121 764 66 736 q 153 771 136 771 z "},"o":{"ha":791,"x_min":7,"x_max":812,"o":"m 401 814 l 417 814 q 719 669 589 814 q 812 414 812 553 l 812 400 q 661 89 812 218 q 417 0 550 0 l 401 0 q 119 125 241 0 q 7 400 7 245 l 7 414 q 162 730 7 598 q 401 814 272 814 m 393 805 l 390 805 q 113 672 230 805 q 25 429 25 568 q 183 121 25 241 q 397 52 279 52 q 693 199 574 52 q 770 427 770 300 l 770 430 q 603 745 770 623 q 405 805 509 805 l 402 805 q 398 806 399 805 l 393 805 m 373 771 l 387 771 q 640 633 536 771 q 693 452 693 553 q 551 187 693 290 q 379 136 475 136 q 116 281 218 136 q 66 451 66 357 l 66 456 q 220 728 66 625 q 373 771 294 771 m 248 452 q 300 345 248 388 q 375 317 336 317 l 385 317 q 496 389 452 317 q 512 454 512 420 q 441 574 512 530 q 379 590 412 590 q 257 506 298 590 q 248 452 248 479 m 399 506 q 467 454 445 506 q 471 428 471 441 q 423 356 471 382 q 399 351 411 351 l 397 351 q 327 408 347 351 q 324 430 324 422 q 372 502 324 478 q 399 506 384 506 m 367 411 l 367 404 q 399 361 367 375 q 407 360 404 360 l 412 360 q 450 395 437 360 q 452 404 452 399 l 452 410 q 420 452 452 439 l 410 454 q 369 421 379 454 q 367 411 367 418 z "},"p":{"ha":789,"x_min":7,"x_max":810,"o":"m 176 814 l 191 814 q 277 787 234 814 q 401 814 340 814 l 416 814 q 717 669 589 814 q 810 414 810 553 l 810 401 q 640 74 810 208 q 407 0 534 0 q 366 4 379 1 l 366 -12 q 311 -133 366 -75 q 254 -171 278 -161 q 195 -183 218 -183 l 176 -183 q 58 -132 117 -183 q 10 -39 14 -78 q 7 -13 7 -26 l 7 646 q 41 742 7 690 q 140 808 79 791 q 176 814 163 814 m 173 805 l 167 805 q 58 750 106 805 q 25 652 25 710 l 25 23 q 119 -121 25 -78 q 167 -130 146 -130 l 171 -130 q 174 -132 173 -130 q 178 -130 176 -130 l 182 -130 q 294 -72 243 -130 q 323 22 323 -31 l 323 61 l 324 62 q 397 53 363 53 q 702 214 581 53 q 768 428 768 310 l 768 432 q 637 715 768 598 q 404 805 533 805 l 400 805 q 397 806 398 805 q 393 805 395 805 l 388 805 q 260 774 329 805 q 179 805 223 805 l 175 805 q 174 806 174 805 l 173 805 m 153 771 l 162 771 q 227 728 198 771 q 230 722 230 724 l 231 722 q 368 771 302 771 l 385 771 q 631 641 531 771 q 691 453 691 560 q 559 194 691 296 q 382 136 478 136 q 248 177 310 136 l 248 43 q 186 -43 248 -15 q 157 -48 167 -48 q 75 5 102 -48 q 66 43 66 21 l 66 684 q 125 766 66 738 q 153 771 140 771 m 248 454 q 320 331 248 376 q 372 318 350 318 l 384 318 q 486 375 443 318 q 509 449 509 410 l 509 452 q 511 453 509 453 l 509 455 l 509 459 q 445 572 509 528 q 378 590 413 590 q 260 515 302 590 q 248 454 248 485 m 395 507 l 398 507 q 466 455 444 507 q 469 429 469 439 q 422 357 469 382 q 397 352 411 352 l 394 352 q 330 398 353 352 q 323 429 323 412 q 371 503 323 479 q 395 507 380 507 m 366 408 q 401 361 366 372 l 413 361 q 448 392 433 361 q 450 404 450 398 l 450 411 q 418 453 450 441 q 410 454 414 454 l 405 454 q 368 420 379 454 q 366 408 366 409 z "},"q":{"ha":789,"x_min":7,"x_max":810,"o":"m 401 813 l 415 813 q 539 787 477 813 q 625 813 583 813 l 640 813 q 751 768 696 813 q 798 702 788 728 q 810 645 810 666 l 810 -14 q 768 -120 810 -66 q 709 -166 734 -156 q 640 -184 671 -184 l 621 -184 q 515 -142 569 -184 q 466 -77 478 -108 q 451 -13 451 -40 l 451 3 q 410 -1 437 1 q 81 171 210 -1 q 7 400 7 277 l 7 414 q 136 706 7 580 q 401 813 254 813 m 393 804 l 389 804 q 98 653 218 804 q 25 429 25 554 q 197 111 25 233 q 395 52 288 52 q 469 62 431 52 l 469 60 l 469 25 q 562 -121 469 -77 q 618 -132 593 -132 q 750 -54 701 -132 q 768 20 768 -20 l 768 654 q 688 787 768 741 q 627 804 656 804 l 620 804 q 619 805 619 804 l 618 804 l 614 804 q 532 774 571 804 q 405 804 466 804 l 400 804 q 397 805 397 804 l 393 804 m 373 770 l 389 770 q 527 722 455 770 q 595 770 556 770 l 604 770 q 687 711 659 770 q 691 682 691 693 l 691 41 q 640 -40 691 -10 q 601 -49 620 -49 q 519 3 548 -49 q 511 40 511 20 l 511 176 l 509 176 q 376 136 448 136 q 132 259 231 136 q 66 450 66 343 l 66 456 q 220 728 66 624 q 373 770 294 770 m 248 453 q 323 330 248 373 q 374 317 351 317 l 384 317 q 494 387 450 317 q 511 453 511 419 q 450 568 511 524 q 378 589 418 589 q 261 515 304 589 q 248 453 248 486 m 397 506 l 397 506 q 466 453 445 506 q 469 428 469 442 q 422 356 469 380 q 399 351 410 351 l 395 351 q 330 397 353 351 q 323 429 323 412 q 372 502 323 479 q 397 506 381 506 m 367 412 l 367 408 q 366 407 367 407 l 367 405 l 367 402 q 401 360 367 373 l 412 360 q 450 397 438 360 q 451 407 450 407 q 420 452 451 439 q 410 453 416 453 l 406 453 q 368 420 379 453 q 367 412 367 415 z "},"r":{"ha":551,"x_min":7,"x_max":572,"o":"m 177 814 l 192 814 q 273 790 233 814 q 385 814 330 814 l 401 814 q 513 768 456 814 q 561 698 551 729 q 572 645 572 663 l 572 625 q 530 519 572 572 q 474 473 492 479 q 388 454 437 454 q 367 411 367 438 l 367 195 q 333 75 367 117 q 236 6 301 27 q 197 0 211 0 l 177 0 q 82 33 132 0 q 34 83 45 63 q 7 170 7 130 l 7 645 q 39 739 7 689 q 90 787 70 775 q 177 814 138 814 m 174 805 l 168 805 q 54 745 104 805 q 25 650 25 708 l 25 207 q 112 66 25 111 q 174 52 144 52 q 297 115 248 52 q 324 195 324 155 l 324 413 q 339 481 324 463 q 391 507 353 507 q 479 544 434 507 q 530 656 530 591 q 462 781 530 734 q 387 805 424 805 l 381 805 q 380 806 380 805 l 378 805 l 372 805 q 258 778 319 805 l 257 778 q 180 805 220 805 l 176 805 q 176 806 176 805 l 174 805 m 153 771 l 162 771 q 228 726 201 771 q 354 771 293 771 l 367 771 q 441 725 411 771 q 453 681 453 704 l 453 680 q 397 597 453 625 q 348 588 387 591 q 286 555 319 588 q 251 486 256 522 q 248 437 248 471 l 248 224 q 195 143 248 172 q 157 136 176 136 q 72 194 100 136 q 66 224 66 210 l 66 683 q 117 762 66 733 q 153 771 134 771 z "},"s":{"ha":650,"x_min":7,"x_max":671,"o":"m 294 814 l 463 814 q 569 772 515 814 q 633 634 633 715 q 580 506 633 561 q 671 302 671 415 l 671 284 q 591 92 671 179 q 386 0 500 0 l 176 0 q 83 33 132 0 q 37 78 56 53 q 7 169 7 127 l 7 189 q 46 294 7 239 q 80 326 64 313 q 7 514 7 410 l 7 530 q 90 725 7 637 q 294 814 179 814 m 25 542 q 117 341 25 423 q 75 314 93 328 q 25 201 25 267 q 98 73 25 121 q 195 52 129 52 l 339 52 q 480 78 435 52 q 614 229 578 127 q 629 315 629 268 q 522 529 629 444 q 591 655 591 579 q 519 784 591 736 q 420 806 488 806 l 317 806 q 182 783 222 806 q 46 648 92 743 q 25 542 25 597 m 405 772 q 478 752 460 772 q 514 680 514 724 q 457 595 514 625 q 421 589 439 589 l 271 589 q 248 566 248 587 q 267 545 251 545 l 332 545 q 466 507 420 545 q 552 338 552 442 q 463 171 552 236 q 342 136 413 136 l 161 136 q 70 199 95 136 q 66 226 66 212 l 66 229 q 123 311 66 281 q 172 317 140 317 l 348 317 q 371 338 367 317 q 345 364 368 364 l 262 364 q 90 468 157 364 q 66 563 66 515 l 66 571 q 169 745 66 677 q 294 772 210 772 l 405 772 z "},"t":{"ha":608,"x_min":7,"x_max":629,"o":"m 309 997 l 329 997 q 429 959 376 997 q 497 823 497 900 l 497 806 q 592 743 559 788 q 629 644 629 692 l 629 624 q 584 514 629 569 q 520 468 542 473 q 497 460 503 460 l 497 176 q 414 27 497 87 q 329 0 366 0 l 307 0 q 203 41 257 0 q 142 135 159 78 q 138 190 138 158 l 138 460 q 58 507 104 466 q 14 581 25 542 q 7 624 7 608 l 7 644 q 41 740 7 689 q 138 806 79 789 l 138 807 q 193 947 138 897 q 263 989 228 979 q 309 997 290 997 m 302 988 l 298 988 q 189 932 239 988 q 157 847 157 888 l 157 805 q 132 799 157 803 q 42 725 68 775 q 25 654 25 692 q 83 537 25 585 q 150 507 106 517 q 157 505 157 507 l 157 195 q 215 83 157 132 q 298 53 256 53 l 302 53 q 306 52 304 53 q 309 53 307 53 l 314 53 q 422 106 372 53 q 455 209 455 148 l 455 505 q 475 510 455 507 q 562 572 528 525 q 587 656 587 611 q 503 790 587 741 q 455 804 481 800 l 455 832 q 360 979 455 937 q 314 988 334 988 l 309 988 q 306 989 307 988 q 302 988 304 988 m 285 954 l 292 954 q 372 898 344 954 q 378 859 378 880 l 378 770 l 404 770 q 479 748 458 770 q 510 680 510 720 l 510 680 q 452 594 510 623 q 420 589 435 589 l 378 589 l 378 231 q 318 140 378 165 q 288 135 311 137 q 203 193 232 135 q 197 236 197 209 l 197 589 l 155 589 q 72 648 100 589 q 66 677 66 663 l 66 682 q 127 766 66 738 q 172 770 144 770 l 197 770 l 197 854 q 236 937 197 911 q 285 954 257 954 z "},"u":{"ha":734,"x_min":7,"x_max":754,"o":"m 177 814 l 197 814 q 296 778 243 814 q 340 730 326 752 q 367 623 367 688 l 367 406 q 380 363 367 381 l 381 363 q 393 399 393 382 l 393 608 q 412 711 393 682 q 510 802 441 772 q 573 813 541 813 l 575 813 q 728 727 669 813 q 754 641 754 684 l 754 169 q 722 75 754 125 q 623 6 686 26 q 584 0 599 0 l 569 0 q 491 26 528 0 q 386 0 438 0 l 371 0 q 133 101 241 0 q 7 397 7 229 l 7 645 q 49 751 7 696 q 102 793 83 785 q 177 814 142 814 m 174 805 l 168 805 q 62 754 110 805 q 25 652 25 713 l 25 429 q 122 167 25 277 q 368 52 225 52 q 481 83 424 52 l 482 83 q 562 52 519 52 q 696 134 647 52 q 712 203 712 165 l 712 653 q 627 790 712 743 q 566 804 595 804 l 557 804 q 446 749 494 804 q 412 652 412 708 l 412 429 q 376 352 412 376 l 370 351 l 367 351 q 328 397 347 351 q 325 422 325 412 l 325 633 q 302 734 325 706 q 219 799 278 777 q 182 805 199 805 l 176 805 q 176 806 176 805 l 174 805 m 153 771 l 161 771 q 240 718 212 771 q 248 684 248 701 l 248 476 q 269 372 248 401 q 346 317 302 317 l 355 317 q 441 387 406 317 q 454 469 454 414 l 454 682 q 512 765 454 735 q 543 770 529 770 l 547 770 q 631 709 603 770 q 635 680 635 693 l 635 224 q 576 140 635 169 q 546 135 558 135 q 476 189 503 135 q 347 135 416 135 q 114 275 208 135 q 66 450 66 355 l 66 683 q 117 762 66 733 q 153 771 134 771 z "},"v":{"ha":733,"x_min":7,"x_max":753,"o":"m 180 814 l 195 814 q 304 772 248 814 q 347 716 341 735 q 380 639 353 704 l 381 639 q 445 760 416 736 q 519 806 482 795 q 566 814 549 814 l 582 814 q 693 770 635 814 q 734 715 725 738 q 753 642 753 673 l 753 627 q 720 519 753 588 q 536 88 560 141 q 496 41 524 66 q 387 0 446 0 l 376 0 q 226 87 281 0 q 90 401 214 108 q 11 592 22 557 q 7 627 7 614 l 7 642 q 54 755 7 698 q 180 814 113 814 m 170 805 l 167 805 q 77 770 125 805 q 25 656 25 720 q 55 555 25 618 q 241 124 231 142 q 368 52 286 52 q 507 148 467 52 q 705 614 698 592 q 711 659 711 633 q 661 768 711 719 q 569 805 615 805 l 566 805 q 563 806 564 805 q 559 805 562 805 l 557 805 q 440 743 490 805 q 370 583 425 720 l 367 583 q 298 743 313 718 q 218 799 266 785 q 182 805 197 805 l 177 805 q 174 806 175 805 q 170 805 172 805 m 153 771 l 161 771 q 237 724 207 771 q 350 452 343 472 l 351 452 q 468 730 458 713 q 542 771 498 771 l 547 771 q 623 724 595 771 q 635 681 635 701 l 635 680 q 608 599 635 656 l 430 182 q 350 136 404 136 q 259 212 283 136 q 69 659 75 639 q 66 677 66 669 l 66 681 q 116 761 66 732 q 153 771 136 771 z "},"w":{"ha":932,"x_min":7,"x_max":952,"o":"m 182 814 l 193 814 q 321 754 262 814 l 334 739 q 480 814 391 814 q 626 739 566 814 q 724 808 659 788 q 766 814 745 814 l 777 814 q 899 762 840 814 q 952 640 952 704 l 952 633 q 926 526 952 597 q 789 104 804 146 q 744 43 781 81 q 631 0 690 0 l 620 0 q 479 74 541 0 q 384 7 439 22 q 340 0 361 0 l 328 0 q 186 75 247 0 q 138 197 165 102 q 9 601 14 577 q 7 632 7 616 l 7 642 q 57 760 7 701 q 134 806 92 793 q 182 814 162 814 m 25 659 q 52 551 25 623 q 183 143 171 179 q 258 66 207 91 q 321 52 292 52 q 454 132 406 52 q 467 167 460 145 l 468 167 q 519 86 483 115 q 614 52 563 52 q 737 117 689 52 q 758 161 749 134 q 907 629 898 594 q 910 662 910 644 q 876 751 910 705 q 798 800 838 792 q 763 805 783 805 l 755 805 q 640 745 690 805 q 615 691 618 714 l 613 691 q 554 778 595 752 q 469 805 513 805 l 467 805 q 336 727 384 805 q 322 691 326 706 l 321 691 q 275 766 308 738 q 180 805 230 805 l 172 805 q 73 766 120 805 q 25 659 25 717 m 153 771 l 161 771 q 235 727 205 771 q 269 625 246 705 q 303 511 287 566 l 304 511 q 369 722 363 709 q 450 771 399 771 q 531 721 502 771 q 596 513 539 701 l 597 513 q 661 720 650 691 q 713 766 677 753 q 738 771 727 771 l 747 771 q 806 746 774 771 q 833 680 833 717 q 802 570 833 662 q 676 183 684 202 q 595 136 647 136 q 514 188 543 136 q 450 395 504 214 l 450 395 q 385 184 393 203 q 302 136 355 136 q 227 178 256 136 q 184 301 219 189 q 67 668 67 659 q 66 677 66 671 l 66 682 q 119 763 66 734 q 153 771 142 771 z "},"x":{"ha":693,"x_min":7,"x_max":713,"o":"m 178 814 l 187 814 q 349 718 286 814 q 359 704 359 706 l 361 704 q 422 776 387 744 q 529 814 473 814 l 542 814 q 662 761 604 814 q 713 638 713 705 l 713 625 q 652 493 713 562 q 587 407 643 479 q 690 268 678 289 q 713 189 713 228 l 713 176 q 654 45 713 102 q 541 0 600 0 l 527 0 q 412 47 467 0 q 361 110 389 70 l 359 110 q 297 37 334 71 q 193 0 245 0 l 180 0 q 50 62 109 0 q 7 180 7 113 l 7 188 q 68 321 7 252 q 134 407 78 334 q 28 547 42 526 q 7 626 7 588 l 7 639 q 65 767 7 709 q 178 814 121 814 m 25 652 q 67 550 25 600 l 160 429 q 46 279 66 306 q 25 204 25 242 q 89 80 25 127 q 175 52 129 52 q 313 136 258 52 l 348 181 l 349 181 q 420 90 403 110 q 522 52 469 52 q 644 115 593 52 q 671 205 671 155 q 622 317 671 262 q 537 429 620 320 q 654 586 640 563 q 671 654 671 620 q 581 793 671 749 q 526 805 554 805 l 522 805 q 388 727 438 805 l 348 676 q 276 767 296 746 q 175 805 231 805 l 170 805 q 52 743 102 805 q 25 652 25 703 m 152 771 l 159 771 q 238 724 207 771 q 331 603 330 603 q 444 749 428 731 q 500 771 471 771 l 511 771 q 584 724 551 771 q 595 677 595 701 q 564 610 595 644 l 446 454 l 446 452 q 567 294 446 452 q 595 228 595 262 q 529 139 595 164 q 505 136 519 136 q 417 191 452 136 q 331 304 340 291 l 330 304 q 218 159 233 174 q 155 136 190 136 q 82 175 113 136 q 66 229 66 197 l 66 231 q 97 297 66 262 q 216 454 216 452 q 77 637 98 608 q 66 677 66 658 l 66 678 q 136 769 66 745 q 152 771 144 771 z "},"y":{"ha":732,"x_min":7,"x_max":753,"o":"m 180 814 l 195 814 q 293 780 241 814 q 364 677 338 749 q 379 641 379 642 l 380 641 q 448 763 418 739 q 541 811 479 797 q 565 814 557 814 l 579 814 q 703 760 645 814 q 750 665 744 713 q 753 642 753 652 l 753 628 q 714 507 753 587 q 460 -88 687 441 q 306 -183 406 -183 l 294 -183 q 169 -126 229 -183 q 121 -2 121 -70 q 155 113 121 43 q 184 180 155 114 q 15 581 22 559 q 7 628 7 608 l 7 642 q 54 756 7 698 q 180 814 113 814 m 170 805 l 167 805 q 77 770 125 805 q 25 656 25 720 q 58 550 25 617 q 205 203 205 205 q 145 58 153 79 q 140 26 140 39 l 140 13 q 185 -88 140 -40 q 290 -132 233 -132 q 437 -15 397 -132 q 702 608 688 570 q 711 659 711 628 q 661 768 711 719 q 568 805 614 805 l 566 805 q 562 806 564 805 q 559 805 561 805 l 555 805 q 448 755 499 805 q 392 641 430 734 l 369 586 l 367 586 q 299 740 313 716 q 255 782 279 767 q 182 805 215 805 l 177 805 q 174 806 175 805 q 170 805 172 805 m 153 771 l 161 771 q 235 727 205 771 q 350 458 264 661 l 351 458 q 469 732 458 713 q 540 771 500 771 l 547 771 q 623 725 593 771 q 634 680 634 701 q 608 601 634 657 q 351 -2 373 48 q 273 -48 325 -48 q 195 -6 226 -48 q 180 43 180 20 q 216 143 180 68 l 252 228 l 252 229 q 68 661 75 640 q 66 677 66 671 l 66 682 q 115 761 66 732 q 153 771 136 771 z "},"z":{"ha":735,"x_min":7,"x_max":755,"o":"m 178 814 l 580 814 q 732 724 675 814 q 755 637 755 676 l 755 627 q 688 490 755 558 q 578 360 685 486 l 583 359 l 587 359 q 689 320 634 359 q 755 180 755 261 q 682 35 755 93 q 584 0 632 0 l 182 0 q 37 79 94 0 q 7 176 7 131 l 7 186 q 73 321 7 255 q 184 454 75 326 q 37 535 98 454 q 7 635 7 582 q 94 788 7 729 q 178 814 140 814 m 27 665 l 27 660 q 26 656 27 658 q 27 653 27 655 l 27 648 q 78 543 27 591 q 181 506 119 506 l 238 506 l 238 505 q 51 284 67 306 q 25 202 25 246 q 78 87 25 139 q 140 56 104 64 q 196 52 156 52 l 541 52 q 637 73 611 52 q 700 144 682 97 q 711 194 711 170 l 711 209 q 664 312 711 264 q 590 349 627 344 q 548 351 574 351 l 503 351 q 500 353 500 351 q 687 573 675 556 q 713 654 713 611 l 713 656 q 658 773 713 721 q 613 797 632 793 q 541 806 596 806 l 199 806 q 97 783 126 806 q 33 701 54 759 q 27 665 27 679 m 155 771 l 553 771 q 627 722 598 771 q 637 677 637 698 q 595 600 637 643 l 355 317 l 535 317 q 614 285 589 317 q 635 228 635 261 l 635 223 q 578 142 635 170 q 538 136 563 136 l 164 136 q 73 193 96 136 q 66 226 66 212 l 66 231 q 107 305 66 265 q 349 590 111 311 l 156 590 q 75 644 104 590 q 67 681 67 662 q 119 762 67 733 q 155 771 135 771 z "},"{":{"ha":475,"x_min":7,"x_max":495,"o":"m 163 998 l 338 998 q 436 960 387 998 q 478 907 470 928 q 495 842 495 871 l 495 824 q 457 726 495 777 q 380 675 416 684 q 338 667 356 667 l 338 175 q 449 125 395 175 q 494 35 490 78 q 495 20 495 25 l 495 1 q 465 -86 495 -41 q 372 -151 434 -132 q 338 -155 351 -155 l 163 -155 q 76 -125 122 -155 q 32 -79 42 -98 q 7 1 7 -37 l 7 843 q 41 934 7 886 q 115 988 76 975 q 163 998 143 998 m 24 847 l 24 35 q 109 -97 24 -56 q 182 -108 130 -108 l 298 -108 q 385 -91 359 -108 q 456 31 456 -47 q 389 148 456 104 q 300 168 361 168 l 300 168 q 298 169 298 168 l 298 713 q 300 715 298 715 l 302 715 q 395 739 366 715 q 456 853 456 782 q 393 968 456 925 q 300 990 363 990 l 182 990 q 101 977 125 990 q 24 847 24 936 m 161 959 l 286 959 q 356 939 339 959 q 386 878 386 913 l 386 875 q 361 816 386 841 q 299 792 337 792 l 228 792 l 228 136 l 288 136 q 357 115 338 136 q 384 73 376 101 q 386 54 386 62 l 386 52 q 326 -28 386 -4 q 298 -31 313 -31 l 150 -31 q 88 -8 111 -31 q 62 50 62 17 l 62 878 q 113 952 62 926 q 161 959 125 959 z "},"|":{"ha":316,"x_min":7,"x_max":336,"o":"m 161 998 l 180 998 q 277 960 228 998 q 316 913 311 929 q 336 844 336 876 l 336 1 q 307 -85 336 -39 q 217 -149 273 -132 q 180 -155 192 -155 l 161 -155 q 76 -125 122 -155 q 12 -32 31 -94 q 7 1 7 -10 l 7 843 q 36 928 7 884 q 122 991 67 972 q 161 998 144 998 m 159 990 l 153 990 q 53 939 100 990 q 24 850 24 901 l 24 35 q 102 -94 24 -54 q 160 -107 133 -107 q 272 -50 228 -107 q 298 30 298 -14 l 298 852 q 219 978 298 937 q 165 990 191 990 l 161 990 q 161 991 161 990 l 159 990 m 140 959 l 148 959 q 224 904 197 959 q 228 878 228 888 l 228 52 q 178 -23 228 3 q 144 -31 161 -31 q 68 18 95 -31 q 62 52 62 33 l 62 879 q 113 953 62 928 q 140 959 126 959 z "},"}":{"ha":475,"x_min":7,"x_max":495,"o":"m 163 996 l 338 996 q 436 958 387 996 q 492 868 475 926 q 495 842 495 846 l 495 0 q 454 -101 495 -51 q 399 -142 425 -131 q 338 -157 364 -157 l 163 -157 q 76 -127 121 -157 q 12 -34 31 -96 q 7 0 7 -12 l 7 18 q 52 123 7 71 q 164 174 106 174 l 164 666 q 53 716 106 666 q 9 802 13 763 q 7 823 7 814 l 7 840 q 47 941 7 890 q 95 978 77 970 q 163 996 132 996 m 24 851 q 101 728 24 772 q 178 714 127 714 l 180 714 q 182 712 182 713 l 182 168 q 180 166 182 166 l 180 166 q 88 145 117 166 q 24 28 24 102 q 95 -92 24 -48 q 182 -109 121 -109 l 298 -109 q 385 -92 359 -109 q 456 31 456 -49 l 456 849 q 370 979 456 939 q 297 989 348 989 l 182 989 q 95 972 121 989 q 24 851 24 929 m 161 958 l 286 958 q 351 941 334 958 q 386 874 386 915 l 386 51 q 335 -26 386 1 q 298 -33 320 -33 l 151 -33 q 66 24 87 -33 q 62 49 62 37 l 62 53 q 115 129 62 104 q 161 134 127 134 l 219 134 l 219 791 l 147 791 q 66 844 92 791 q 62 872 62 859 l 62 874 q 125 955 62 933 q 161 958 139 958 z "},"~":{"ha":798,"x_min":0,"x_max":812,"o":"m 309 740 l 321 740 q 486 688 397 740 q 618 739 545 739 q 754 683 692 739 q 812 546 812 622 l 812 538 q 727 353 812 461 q 522 251 637 251 q 340 315 436 251 q 203 251 281 251 l 189 251 q 35 334 101 251 q 0 443 0 387 l 0 450 q 87 625 0 530 q 136 673 101 644 q 309 740 222 740 m 15 459 q 109 310 15 360 q 179 296 142 296 q 316 372 264 296 q 503 296 418 296 q 723 442 633 296 q 762 554 762 505 q 697 684 762 633 q 604 717 652 717 l 595 717 q 477 661 529 717 q 473 658 477 658 q 297 719 380 719 q 42 547 154 719 q 15 459 15 501 m 264 682 q 460 590 348 682 q 490 644 480 628 q 560 680 524 680 l 574 680 q 645 642 610 680 q 665 585 665 612 l 665 578 q 602 454 665 536 q 471 386 541 386 q 289 473 395 386 q 270 485 277 481 q 222 424 242 458 q 149 386 192 386 l 138 386 q 64 426 98 386 q 45 486 45 452 q 109 600 45 528 q 264 682 182 682 z "},"¡":{"ha":345,"x_min":7,"x_max":365,"o":"m 196 -183 l 176 -183 q 67 -138 121 -183 q 22 -79 35 -107 q 7 -14 7 -41 l 7 404 q 57 519 7 463 q 9 611 13 570 q 7 631 7 622 l 7 648 q 88 787 7 728 q 176 814 136 814 l 196 814 q 313 764 256 814 q 365 648 365 710 l 365 631 q 323 530 365 581 q 315 519 315 520 q 365 404 365 464 l 365 -14 q 323 -119 365 -66 q 272 -162 292 -153 q 196 -183 229 -183 m 199 -174 l 205 -174 q 316 -117 266 -174 q 347 -21 347 -77 l 347 369 q 280 497 347 452 l 280 500 q 340 576 319 523 q 347 619 347 600 q 271 744 347 699 q 199 762 234 762 q 70 692 119 762 q 49 618 49 659 q 115 498 49 547 l 115 498 q 49 372 49 449 l 49 -26 q 131 -159 49 -112 q 191 -174 164 -174 l 197 -174 q 197 -175 197 -174 l 199 -174 m 220 -140 l 212 -140 q 130 -83 159 -140 q 125 -52 125 -66 l 125 350 q 178 431 125 402 q 216 439 196 439 q 299 383 271 439 q 305 352 305 367 l 305 -53 q 256 -132 305 -102 q 220 -140 238 -140 m 220 510 l 212 510 q 128 569 157 510 q 125 594 125 585 l 125 595 q 184 674 125 647 q 216 679 202 679 q 298 630 269 679 q 305 597 305 614 l 305 591 q 256 519 305 546 q 220 510 239 510 z "},"¢":{"ha":737,"x_min":14,"x_max":724,"o":"m 684 979 q 687 977 687 979 q 611 764 611 766 q 722 694 633 753 l 722 692 q 602 505 604 507 q 532 547 543 543 l 532 546 q 418 227 421 240 l 418 227 q 553 285 477 227 l 603 315 q 724 126 724 128 q 538 21 586 33 q 427 3 474 3 l 407 3 q 338 9 372 3 q 270 -176 275 -169 l 118 -176 l 116 -176 l 202 64 q 35 276 85 136 q 14 400 14 336 l 14 420 q 163 727 14 597 q 412 815 271 815 l 423 815 q 471 812 441 815 l 532 979 l 684 979 m 212 418 l 212 402 q 256 288 212 339 l 363 589 l 362 589 q 277 552 325 587 q 212 418 212 492 z "},"£":{"ha":766,"x_min":7,"x_max":787,"o":"m 425 997 l 441 997 q 665 887 562 997 q 713 816 697 847 q 751 692 751 745 q 688 555 751 615 q 608 517 645 524 q 620 465 620 490 q 571 360 620 406 l 590 360 q 714 323 673 360 q 759 277 734 312 q 787 190 787 230 l 787 170 q 745 64 787 118 q 685 18 711 27 q 618 0 648 0 l 267 0 q 159 43 212 0 q 96 184 96 98 l 96 337 q 43 370 72 345 q 7 458 7 414 l 7 471 q 48 562 7 519 q 96 591 73 584 l 96 593 q 196 882 96 755 q 267 946 251 940 q 425 997 342 997 m 416 988 l 414 988 q 186 857 282 988 q 145 779 160 814 q 115 590 115 701 q 60 564 80 583 q 25 487 25 530 q 79 395 25 427 q 115 382 87 389 l 115 222 q 132 132 115 161 q 211 62 158 83 q 287 52 233 52 l 572 52 q 672 73 643 52 q 745 203 745 120 q 664 335 745 287 q 586 351 632 351 l 416 351 q 414 353 414 351 l 414 380 q 416 382 414 382 l 460 382 q 555 422 526 382 q 577 484 577 450 l 577 489 q 541 565 577 532 l 541 565 l 541 567 q 555 566 551 566 l 560 566 q 663 607 616 566 q 709 711 709 655 l 709 719 q 650 863 709 774 q 569 943 612 914 q 430 988 500 988 l 426 988 q 422 989 423 988 l 416 988 m 398 954 l 414 954 q 538 904 474 954 q 595 836 578 867 q 632 743 632 772 l 632 734 q 593 665 632 697 q 545 650 567 650 l 536 650 q 465 692 498 650 q 421 765 439 756 q 404 773 411 773 q 342 686 370 773 q 338 635 338 660 l 338 556 l 441 556 q 486 544 475 556 q 500 511 500 530 l 500 508 q 470 468 500 481 q 451 465 462 465 l 338 465 l 338 317 l 570 317 q 661 262 636 317 q 668 227 668 245 q 608 140 668 167 q 570 135 593 135 l 254 135 q 160 198 183 135 q 156 229 156 211 l 156 465 l 118 465 q 67 499 77 465 q 66 507 66 504 l 66 513 q 103 555 66 543 q 124 556 116 556 l 156 556 l 156 624 q 278 911 156 813 q 398 954 334 954 m 420 659 l 421 659 l 438 627 q 475 591 456 605 l 475 591 l 416 591 q 414 592 414 591 l 414 611 q 420 659 414 632 z "},"¤":{"ha":800,"x_min":7,"x_max":793,"o":"m 625 902 q 793 690 639 886 q 723 621 753 650 q 746 488 746 561 q 724 356 746 418 l 724 355 q 793 286 755 325 q 627 75 631 81 l 626 75 q 536 164 624 75 q 400 138 473 138 q 264 164 327 138 q 174 75 264 163 q 7 286 166 83 q 77 356 46 327 q 54 489 54 416 q 77 621 54 559 q 7 690 36 660 q 175 901 24 713 q 265 812 252 824 q 400 837 330 837 q 536 812 469 837 q 625 902 581 858 m 612 881 q 529 799 532 799 q 390 829 467 829 q 248 799 313 829 q 167 880 207 841 q 33 712 165 878 l 33 711 q 98 645 66 676 q 71 510 71 587 l 71 503 q 98 370 71 431 l 98 368 l 33 304 l 165 134 q 250 215 237 205 q 389 185 312 185 q 531 215 466 185 q 613 134 593 153 l 747 304 q 681 369 696 353 q 708 500 708 431 l 708 501 q 709 507 708 505 q 708 514 708 511 l 708 515 q 681 645 708 583 l 747 712 q 612 881 733 728 l 612 881 m 592 824 l 593 824 q 661 738 595 820 l 661 737 l 600 675 q 640 541 640 616 l 640 518 q 600 382 640 441 q 661 321 629 354 l 661 320 l 593 235 l 592 235 q 522 303 573 253 l 522 303 q 374 259 465 259 q 225 303 283 259 l 224 303 q 155 235 175 253 l 155 235 q 87 320 149 241 l 87 321 q 149 382 115 351 q 107 517 107 441 l 107 525 q 106 528 107 527 l 107 533 l 107 541 q 149 675 107 616 q 87 737 119 704 l 87 738 q 155 823 129 791 l 156 823 l 226 754 q 374 799 282 799 q 522 754 464 799 q 592 824 562 795 m 220 537 l 220 522 q 281 406 220 456 q 372 376 321 376 q 502 448 453 376 q 524 526 524 484 l 524 533 q 455 657 524 606 q 372 681 418 681 q 235 596 283 681 q 220 537 220 563 m 387 607 l 389 607 q 481 547 449 607 q 489 507 489 526 q 428 414 489 448 q 388 406 407 406 q 296 466 329 406 q 288 502 288 486 l 288 510 q 345 597 288 565 q 387 607 365 607 m 326 486 q 367 421 326 445 q 399 414 381 414 q 465 456 441 414 q 472 488 472 469 l 472 489 q 422 557 472 535 q 399 560 411 560 q 328 509 349 560 q 326 486 326 496 z "},"¥":{"ha":749,"x_min":7,"x_max":769,"o":"m 179 997 l 187 997 q 323 934 268 997 q 387 836 344 907 l 389 836 q 455 937 431 907 q 512 980 489 972 q 585 997 553 997 l 597 997 q 706 954 651 997 q 769 819 769 897 l 769 811 q 721 689 769 755 l 625 537 l 625 536 q 665 447 665 494 l 665 437 q 650 380 665 410 q 665 326 665 352 l 665 314 q 614 215 665 259 q 568 191 591 196 l 568 173 q 503 41 568 100 q 397 0 449 0 l 377 0 q 278 37 330 0 q 208 181 208 95 l 208 187 q 147 215 174 193 q 97 315 97 259 l 97 322 q 111 381 97 350 q 97 439 97 408 l 97 443 q 145 543 97 503 q 52 693 145 547 q 7 795 12 753 q 7 811 7 804 l 7 819 q 57 943 7 888 q 179 997 115 997 m 25 835 q 71 725 25 787 l 175 557 l 175 556 q 123 500 139 540 q 115 463 115 480 q 135 401 115 433 q 115 342 115 374 q 183 244 115 275 q 226 236 198 239 l 226 224 q 248 125 226 153 q 376 52 296 52 q 502 120 453 52 q 525 205 525 156 l 525 236 q 548 241 525 237 q 611 294 593 258 q 623 342 623 317 q 604 402 623 374 q 623 465 623 430 q 574 552 623 516 l 574 553 q 713 776 703 758 q 727 837 727 807 q 640 975 727 929 q 581 988 610 988 l 574 988 q 464 937 512 988 q 376 801 450 918 q 288 937 303 916 q 176 988 241 988 l 169 988 q 48 920 100 988 q 25 835 25 880 m 153 954 l 162 954 q 229 920 197 954 q 359 715 354 721 l 359 715 q 492 924 482 912 q 555 954 522 954 l 564 954 q 632 918 601 954 q 650 862 650 893 q 616 785 650 829 q 458 534 614 780 l 458 532 l 500 532 q 545 496 532 532 q 546 487 546 491 q 510 442 546 456 q 494 441 500 441 l 449 441 l 449 412 l 488 412 q 536 393 526 412 q 546 365 546 382 q 514 323 546 336 q 491 320 509 320 l 449 320 l 449 228 q 389 140 449 166 q 359 135 373 135 q 273 193 302 135 q 267 233 267 208 l 267 320 l 210 320 q 159 352 171 320 q 157 365 157 361 q 189 409 157 397 q 212 412 196 412 l 267 412 l 267 441 l 207 441 q 157 477 170 441 l 157 487 q 196 532 157 522 l 258 532 q 73 829 93 795 q 66 862 66 847 l 66 865 q 124 949 66 920 q 153 954 141 954 z "},"¦":{"ha":313,"x_min":7,"x_max":333,"o":"m 135 958 l 151 958 q 222 935 196 958 q 225 924 225 927 l 225 601 q 169 568 225 578 q 147 566 156 566 l 141 566 q 63 592 86 566 q 61 602 61 597 l 61 925 q 117 957 61 947 q 135 958 125 958 m 142 429 q 224 400 203 429 q 225 393 225 395 l 225 71 q 165 37 225 46 l 143 35 q 63 62 84 35 q 61 71 61 66 l 61 394 q 121 427 61 417 q 142 429 134 429 m 155 989 l 151 989 q 53 960 95 989 q 24 901 24 936 l 24 580 q 119 494 24 514 q 161 490 139 490 q 291 555 264 493 q 295 579 295 567 l 295 901 q 219 983 295 958 q 168 989 191 989 l 163 989 q 159 990 161 989 l 155 989 m 24 370 l 24 50 q 105 -34 24 -11 q 159 -41 135 -41 q 291 25 264 -38 q 295 49 295 37 l 295 371 q 206 454 295 433 q 157 459 184 459 q 43 420 84 459 q 24 370 24 399 m 161 998 l 179 998 q 307 949 256 998 q 333 884 333 918 l 333 555 q 253 456 333 492 l 248 456 l 248 454 q 321 399 298 437 q 333 355 333 376 l 333 25 q 261 -71 333 -35 q 178 -87 220 -87 l 161 -87 q 39 -45 88 -87 q 7 25 7 -13 l 7 355 q 76 449 7 414 q 92 454 90 454 l 92 456 q 47 479 82 456 q 7 555 7 513 l 7 884 q 102 989 7 958 q 161 998 136 998 z "},"§":{"ha":593,"x_min":7,"x_max":614,"o":"m 302 998 l 321 998 q 477 951 397 998 q 536 903 497 940 q 602 761 602 828 q 549 637 602 689 q 614 463 614 560 l 614 449 q 585 330 614 391 q 614 210 614 273 l 614 197 q 504 -21 614 73 q 317 -87 418 -87 l 300 -87 q 121 -24 210 -87 q 58 40 73 16 q 17 154 17 98 l 17 159 q 70 277 17 222 q 7 448 7 352 l 7 461 q 35 581 7 518 q 7 701 7 638 l 7 713 q 125 939 7 844 q 302 998 210 998 m 295 989 l 290 989 q 100 909 186 989 q 24 727 24 831 q 56 600 24 658 l 56 599 q 24 474 24 542 q 101 293 24 365 q 34 174 34 248 q 106 35 34 109 q 300 -40 193 -40 q 524 70 434 -40 q 575 223 575 138 l 575 226 q 543 351 575 292 q 575 475 575 409 q 528 625 575 562 q 496 659 521 636 l 496 659 l 496 661 q 556 737 537 682 q 564 776 564 761 q 481 925 564 852 q 412 968 444 954 q 309 989 355 989 l 304 989 q 300 990 301 989 l 295 989 m 275 958 l 290 958 q 444 895 374 958 q 492 805 492 842 l 492 798 q 445 726 492 753 q 409 718 427 718 q 334 764 361 718 q 284 792 321 792 l 283 792 q 229 758 241 790 l 228 750 q 243 725 228 731 q 353 690 277 712 q 505 499 505 640 q 460 372 505 429 q 505 243 505 323 q 396 65 505 136 q 286 37 342 37 q 100 128 172 37 q 72 193 72 170 l 72 199 q 111 267 72 240 q 153 280 132 280 l 156 280 q 236 223 209 280 q 279 203 252 203 l 286 203 q 334 231 317 203 q 338 241 338 238 l 338 249 q 316 275 338 268 q 258 292 268 292 q 155 332 193 311 q 62 496 62 389 l 62 500 q 106 624 62 566 q 62 745 62 675 l 62 752 q 176 933 62 865 q 275 958 227 958 m 228 498 q 245 473 228 477 q 294 456 254 467 q 325 470 312 460 q 338 494 338 484 l 338 501 q 316 526 338 519 q 275 541 304 531 q 241 526 258 538 q 228 498 228 512 z "},"¨":{"ha":526,"x_min":0,"x_max":526,"o":"m 144 1088 l 156 1088 q 263 1043 215 1088 q 369 1088 311 1088 l 381 1088 q 501 1027 451 1088 q 526 955 526 992 l 526 945 q 462 836 526 882 q 381 813 421 813 l 369 813 q 262 858 311 813 q 156 813 216 813 l 144 813 q 31 865 81 813 q 0 945 0 905 l 0 955 q 58 1059 0 1015 q 144 1088 100 1088 m 139 1080 l 135 1080 q 31 1025 73 1080 q 16 968 16 997 q 76 873 16 908 q 135 857 105 857 l 145 857 q 254 918 212 857 q 323 863 273 881 q 360 857 342 857 l 370 857 q 467 903 427 857 q 491 969 491 932 q 417 1072 491 1036 q 370 1080 391 1080 l 366 1080 q 366 1081 366 1080 l 364 1080 l 360 1080 q 262 1032 302 1080 q 253 1020 254 1020 q 181 1074 229 1061 q 145 1080 165 1080 l 142 1080 q 141 1081 141 1080 l 139 1080 m 121 1052 l 130 1052 q 198 1010 174 1052 q 202 989 202 999 l 202 989 q 149 929 202 947 q 126 926 138 927 q 53 970 76 926 q 50 988 50 981 l 50 991 q 100 1048 50 1030 q 121 1052 113 1052 m 347 1052 l 355 1052 q 422 1011 399 1052 q 427 991 427 1000 l 427 989 q 374 929 427 947 q 351 926 362 927 q 278 970 300 926 q 275 988 275 980 l 275 991 q 325 1048 275 1030 q 347 1052 337 1052 z "},"©":{"ha":1031,"x_min":7,"x_max":1024,"o":"m 506 1004 l 527 1004 q 875 856 723 1004 q 1024 507 1024 703 l 1024 486 q 820 86 1024 251 q 527 -14 684 -14 l 506 -14 q 156 134 307 -14 q 7 486 7 286 l 7 507 q 171 871 7 713 q 506 1004 319 1004 m 514 890 l 506 890 q 197 730 324 890 q 120 500 120 627 l 120 490 q 306 158 120 287 q 517 99 400 99 q 795 214 678 99 q 911 494 911 331 l 911 496 q 727 830 911 703 q 525 890 632 890 l 517 890 q 516 891 516 890 l 514 890 m 521 800 l 527 799 l 529 799 q 758 680 660 799 q 787 639 787 640 l 686 570 l 684 570 q 527 676 621 676 l 513 676 q 395 623 450 676 q 345 494 345 570 q 443 331 345 389 q 513 314 482 314 l 527 314 q 678 410 617 314 q 686 418 684 418 q 787 351 770 363 q 720 269 769 320 q 529 191 634 191 l 527 191 q 522 191 524 191 l 516 191 l 513 191 q 286 307 381 191 q 222 494 222 387 l 222 496 q 370 758 222 660 q 513 799 439 799 l 516 799 q 521 800 519 799 z "},"«":{"ha":616,"x_min":7,"x_max":637,"o":"m 288 818 l 296 818 q 399 753 357 818 q 456 804 448 804 q 504 818 481 818 l 515 818 q 608 764 567 818 q 637 674 637 720 l 637 661 q 592 549 637 598 q 550 509 574 532 q 610 448 608 457 q 637 356 637 406 l 637 345 q 600 243 637 293 q 513 202 562 202 l 505 202 q 419 246 459 202 l 397 267 q 296 202 360 202 l 288 202 q 219 229 254 202 q 38 409 38 406 q 7 502 7 454 l 7 517 q 73 648 7 591 q 230 799 227 799 q 288 818 262 818 m 24 530 q 81 414 24 460 q 235 264 231 264 q 282 250 260 250 q 373 326 346 250 q 376 336 376 333 l 377 336 q 452 264 449 264 q 499 250 476 250 q 592 331 565 250 q 597 372 597 352 q 548 483 597 442 l 499 530 l 499 531 q 564 592 499 531 q 597 688 597 631 l 597 689 q 553 791 597 751 q 500 810 526 810 q 431 777 462 810 q 376 724 416 762 q 333 793 361 775 q 283 810 308 810 q 216 780 245 810 q 54 618 54 621 q 24 530 24 582 m 262 778 l 269 778 q 304 741 290 778 q 309 712 309 723 q 275 638 309 663 l 184 553 q 297 445 292 452 q 309 395 309 421 q 282 332 309 353 q 264 328 271 328 q 229 352 251 328 q 77 502 77 500 q 62 551 62 523 l 62 557 q 98 625 62 597 q 254 777 250 777 q 262 778 260 778 m 479 778 l 486 778 q 524 734 509 778 q 527 709 527 720 q 489 636 527 663 l 401 553 q 513 446 509 452 q 527 395 527 422 q 499 332 527 353 q 481 328 488 328 q 447 351 468 328 q 292 505 292 502 q 279 550 279 525 l 279 556 q 317 628 279 600 q 471 776 467 776 q 479 778 476 778 z "},"¬":{"ha":755,"x_min":63,"x_max":689,"o":"m 66 668 l 686 668 q 689 665 689 667 l 689 274 q 686 272 689 272 l 543 272 q 540 274 540 272 l 540 519 l 66 519 q 63 521 63 519 l 63 665 q 66 668 64 668 z "},"®":{"ha":1031,"x_min":7,"x_max":1024,"o":"m 506 1004 l 527 1004 q 875 856 723 1004 q 1024 507 1024 703 l 1024 486 q 820 86 1024 251 q 527 -14 684 -14 l 506 -14 q 156 134 307 -14 q 7 486 7 286 l 7 507 q 171 871 7 713 q 506 1004 319 1004 m 514 890 l 506 890 q 197 730 324 890 q 120 500 120 627 l 120 490 q 306 158 120 287 q 517 99 400 99 q 795 214 678 99 q 911 494 911 331 l 911 496 q 727 830 911 703 q 525 890 632 890 l 517 890 q 516 891 516 890 l 514 890 m 334 809 l 549 809 q 707 701 655 809 q 722 621 722 665 l 722 619 q 625 455 722 503 q 590 448 608 448 l 585 448 l 585 447 l 746 183 l 744 182 l 608 182 q 458 422 602 190 l 457 422 l 457 184 q 455 182 457 182 l 334 182 q 332 184 332 182 l 332 807 q 334 809 333 809 m 457 684 l 457 558 l 488 558 q 590 583 573 558 q 597 618 597 593 l 597 619 q 566 681 597 667 q 549 684 555 684 l 457 684 z "},"¯":{"ha":648,"x_min":7,"x_max":668,"o":"m 178 1199 l 497 1199 q 591 1166 541 1199 q 663 1065 645 1126 q 668 1027 668 1038 l 668 1007 q 636 913 668 962 q 541 843 602 863 q 497 836 514 836 l 178 836 q 59 888 118 836 q 7 1007 7 947 l 7 1027 q 49 1135 7 1080 q 112 1182 90 1177 q 178 1199 146 1199 m 26 1038 q 104 907 26 955 q 197 888 132 888 l 454 888 q 557 913 526 888 q 625 1041 625 959 q 547 1173 625 1124 q 452 1192 517 1192 l 200 1192 q 99 1169 127 1192 q 33 1086 56 1147 q 26 1038 26 1062 m 177 1156 l 440 1156 q 517 1133 496 1156 q 548 1063 548 1106 q 495 981 548 1009 q 452 972 479 972 l 161 972 q 96 997 121 972 q 67 1061 67 1025 l 67 1067 q 120 1147 67 1118 q 177 1156 135 1156 z "},"°":{"ha":399,"x_min":1,"x_max":399,"o":"m 194 997 l 208 997 q 343 937 280 997 q 399 804 399 876 l 399 790 q 334 650 399 715 q 208 599 273 599 l 194 599 q 43 674 107 599 q 1 790 1 730 l 1 804 q 84 961 1 895 q 194 997 138 997 m 186 989 l 182 989 q 52 922 109 989 q 17 817 17 876 q 90 675 17 730 q 189 644 136 644 q 338 729 283 644 q 362 817 362 769 q 275 968 362 912 q 198 989 233 989 l 193 989 q 189 990 191 989 q 186 989 188 989 m 168 960 l 180 960 q 280 899 238 960 q 296 838 296 869 q 229 729 296 768 q 174 716 203 716 q 90 750 126 716 q 52 833 52 788 l 52 841 q 121 948 52 909 q 168 960 147 960 m 146 839 l 146 837 q 168 810 146 818 l 177 810 q 202 833 195 810 l 202 840 q 180 866 202 859 l 173 866 q 148 847 155 866 q 146 839 146 844 z "},"±":{"ha":562,"x_min":7,"x_max":582,"o":"m 271 884 l 276 884 q 334 844 313 884 q 338 817 338 832 l 338 724 l 428 724 q 484 700 467 724 q 498 661 498 683 l 498 659 q 460 602 498 623 q 425 596 448 596 l 338 596 l 338 505 q 291 438 338 454 q 273 435 281 435 q 227 456 246 435 q 210 509 210 472 l 210 596 l 121 596 q 54 635 71 596 q 49 660 49 644 l 49 661 q 90 720 49 700 q 119 724 100 724 l 210 724 l 210 813 q 233 869 210 852 q 271 884 249 884 m 125 313 l 417 313 q 470 296 456 313 q 492 248 492 278 q 455 191 492 211 q 425 185 444 185 l 115 185 q 68 202 87 185 q 49 247 49 222 l 49 250 q 85 307 49 286 q 125 313 96 313 m 283 909 l 281 909 q 210 876 242 909 q 180 808 180 843 l 180 749 q 180 749 180 749 l 135 749 q 54 720 80 749 q 37 701 47 715 q 20 643 20 673 q 75 550 20 583 q 121 537 99 537 l 180 537 q 180 536 180 537 l 180 477 q 225 395 180 431 q 286 376 254 376 q 373 422 338 376 q 391 489 391 447 l 391 536 q 393 537 392 537 l 452 537 q 529 576 494 537 q 552 643 552 606 q 491 739 552 705 q 437 749 470 749 l 393 749 q 391 749 391 749 l 391 796 q 344 892 391 861 q 292 909 317 909 l 288 909 q 286 909 287 909 q 283 909 285 909 m 20 231 q 75 139 20 172 q 140 126 94 126 l 427 126 q 498 143 476 126 q 546 233 546 176 q 492 324 546 290 q 425 337 470 337 l 141 337 q 71 321 90 337 q 24 264 41 306 q 20 231 20 247 m 262 343 q 213 369 239 349 q 178 416 184 397 q 167 475 167 438 l 167 500 l 131 500 q 31 552 73 500 q 7 619 7 587 l 7 633 q 48 722 7 680 q 85 745 65 736 q 146 755 108 755 l 167 755 l 167 779 q 204 877 167 842 q 271 913 225 902 q 287 915 282 915 l 302 915 q 375 886 337 915 q 421 790 421 844 l 421 755 l 443 755 q 529 730 501 755 q 566 690 553 712 q 582 633 582 660 l 582 619 q 555 548 582 585 q 458 500 513 500 l 421 500 l 421 464 q 362 359 421 401 q 326 343 343 348 l 456 343 q 522 320 487 343 q 572 250 559 292 q 575 222 575 231 l 575 209 q 553 143 575 178 q 487 95 529 109 q 456 90 469 90 l 126 90 q 43 126 84 90 q 7 209 7 167 l 7 222 q 36 298 7 259 q 80 331 64 327 q 125 343 104 343 l 262 343 z "},"´":{"ha":369,"x_min":0,"x_max":369,"o":"m 214 1213 q 302 1183 260 1213 q 369 1054 369 1133 l 369 1051 q 368 1036 369 1039 q 308 909 368 998 q 164 811 255 811 l 153 811 q 85 828 122 811 q 0 970 0 880 l 0 972 q 14 1036 0 1005 q 87 1154 72 1135 q 207 1213 138 1213 l 214 1213 m 351 1074 q 329 1148 351 1112 q 226 1204 286 1204 l 216 1204 q 126 1162 169 1204 q 77 1085 109 1141 q 42 993 42 1036 q 66 916 42 951 q 171 863 109 863 q 263 901 224 863 q 317 983 282 926 q 351 1074 351 1032 m 210 1171 q 225 1168 216 1171 q 275 1101 275 1149 l 275 1097 q 274 1089 275 1090 q 224 999 274 1075 q 155 947 199 947 l 138 948 q 83 1018 83 966 l 83 1019 q 84 1028 83 1025 q 130 1113 84 1042 q 203 1171 158 1171 l 210 1171 z "},"µ":{"ha":756,"x_min":7,"x_max":777,"o":"m 162 813 l 178 813 q 298 753 243 813 q 334 652 334 705 l 334 486 q 374 408 334 425 q 391 404 381 404 l 396 404 q 444 448 425 404 q 449 481 449 463 l 449 646 q 527 789 449 737 q 606 813 568 813 l 623 813 q 707 784 663 813 q 770 695 755 748 q 777 657 777 673 l 777 155 q 713 33 777 88 q 623 0 666 0 l 604 0 q 496 49 549 0 q 459 105 467 82 q 401 98 427 98 l 390 98 q 334 104 364 98 l 334 -37 q 259 -172 334 -119 q 178 -198 216 -198 l 161 -198 q 55 -151 107 -198 q 7 -43 7 -100 l 7 657 q 63 774 7 720 q 162 813 113 813 m 157 804 l 152 804 q 50 749 94 804 q 25 668 25 714 l 25 -9 q 115 -139 25 -101 q 158 -146 142 -146 q 272 -82 229 -146 q 292 -3 292 -52 l 292 165 l 292 167 q 376 150 336 150 l 389 150 q 468 166 426 150 q 494 106 476 130 q 601 52 538 52 q 719 122 675 52 q 734 184 734 152 l 734 672 q 660 791 734 749 q 608 804 631 804 l 603 804 q 602 805 602 804 l 600 804 l 595 804 q 492 748 536 804 q 467 653 467 718 l 467 496 q 420 406 467 439 q 384 395 402 395 l 380 395 q 296 464 323 395 q 292 499 292 483 l 292 663 q 214 793 292 755 q 165 804 188 804 l 160 804 q 159 805 159 804 l 157 804 m 135 770 l 144 770 q 211 722 189 770 q 215 694 215 708 l 215 524 q 298 377 215 427 q 361 361 329 361 l 366 361 q 493 448 446 361 q 509 526 509 485 l 509 696 q 556 766 509 742 q 580 770 568 770 l 589 770 q 652 726 627 770 q 658 696 658 713 l 658 210 q 604 138 658 159 q 583 135 592 135 q 512 186 536 135 q 509 211 509 200 l 509 300 q 365 233 441 233 q 215 300 286 233 l 215 16 q 161 -60 215 -40 q 140 -62 148 -62 q 69 -10 91 -62 q 66 9 66 1 l 66 699 q 114 766 66 743 q 135 770 125 770 z "},"¶":{"ha":724,"x_min":61,"x_max":682,"o":"m 334 992 l 680 992 q 682 990 682 991 l 682 892 q 680 890 682 890 l 623 890 l 623 2 q 621 0 623 0 l 516 0 q 513 2 513 0 l 513 890 l 439 890 l 439 2 q 437 0 439 0 l 332 0 q 329 2 329 0 l 329 406 q 233 433 308 406 q 147 492 193 449 q 61 688 61 581 l 61 709 q 183 937 61 833 q 334 992 260 992 z "},"·":{"ha":477,"x_min":7,"x_max":311,"o":"m 151 646 l 167 646 q 257 612 212 646 q 311 505 311 564 l 311 492 q 242 374 311 425 q 167 351 201 351 l 151 351 q 54 391 102 351 q 7 492 7 438 l 7 505 q 58 608 7 561 q 151 646 103 646 m 147 638 l 144 638 q 45 588 87 638 q 22 516 22 555 q 58 433 22 469 q 144 396 96 396 l 146 396 q 149 395 148 396 q 152 396 151 396 l 155 396 q 254 449 211 396 q 275 517 275 479 q 210 624 275 584 q 155 638 179 638 l 150 638 q 149 639 149 638 l 147 638 m 130 609 l 137 609 q 208 559 184 609 q 211 538 211 546 l 211 536 q 161 470 211 493 q 134 466 145 466 q 61 513 85 466 q 58 536 58 526 l 58 540 q 100 603 58 579 q 130 609 114 609 z "},"∙":{"ha":477,"x_min":7,"x_max":311,"o":"m 151 646 l 167 646 q 257 612 212 646 q 311 505 311 564 l 311 492 q 242 374 311 425 q 167 351 201 351 l 151 351 q 54 391 102 351 q 7 492 7 438 l 7 505 q 58 608 7 561 q 151 646 103 646 m 147 638 l 144 638 q 45 588 87 638 q 22 516 22 555 q 58 433 22 469 q 144 396 96 396 l 146 396 q 149 395 148 396 q 152 396 151 396 l 155 396 q 254 449 211 396 q 275 517 275 479 q 210 624 275 584 q 155 638 179 638 l 150 638 q 149 639 149 638 l 147 638 m 130 609 l 137 609 q 208 559 184 609 q 211 538 211 546 l 211 536 q 161 470 211 493 q 134 466 145 466 q 61 513 85 466 q 58 536 58 526 l 58 540 q 100 603 58 579 q 130 609 114 609 z "},"¸":{"ha":319,"x_min":0,"x_max":312,"o":"m 293 42 q 271 -72 271 -70 q 312 -174 312 -117 l 312 -184 q 243 -311 312 -258 q 158 -338 202 -338 l 148 -338 q 39 -290 90 -338 q 0 -205 0 -248 l 0 -201 q 48 -116 0 -149 q 52 -100 52 -116 l 84 42 l 293 42 m 85 -2 q 64 -104 64 -96 l 64 -111 q 45 -123 63 -113 q 13 -189 13 -149 q 64 -275 13 -234 q 145 -301 102 -301 q 255 -245 210 -301 q 282 -164 282 -210 l 282 -163 q 238 -62 282 -103 l 254 -2 l 85 -2 m 195 -2 q 179 -64 179 -62 q 228 -147 228 -90 q 179 -229 228 -198 q 130 -242 159 -242 q 54 -201 86 -242 q 43 -174 43 -184 l 43 -169 q 73 -132 43 -142 q 82 -131 78 -131 q 121 -158 106 -131 q 132 -163 126 -163 q 149 -146 149 -161 l 149 -146 q 132 -130 149 -132 q 93 -96 93 -123 l 93 -90 q 113 -2 93 -80 l 195 -2 z "},"»":{"ha":616,"x_min":7,"x_max":637,"o":"m 355 818 q 414 799 382 818 q 571 648 416 799 q 637 517 637 591 l 637 502 q 606 409 637 454 q 425 229 606 406 q 355 202 390 202 l 347 202 q 246 267 283 202 l 224 246 q 138 202 184 202 l 130 202 q 44 243 82 202 q 7 345 7 293 l 7 356 q 34 448 7 406 q 94 509 35 457 q 52 549 70 532 q 7 661 7 598 l 7 674 q 35 764 7 720 q 128 818 77 818 l 140 818 q 187 804 163 818 q 245 753 196 804 q 348 818 287 818 l 355 818 m 620 530 q 590 618 620 582 q 427 780 590 621 q 361 810 398 810 q 311 793 336 810 q 267 724 283 775 q 212 777 227 762 q 144 810 182 810 q 91 791 118 810 q 46 689 46 751 l 46 688 q 80 592 46 631 q 144 531 144 531 l 144 530 l 96 483 q 46 372 46 442 q 52 331 46 352 q 144 250 79 250 q 192 264 168 250 q 267 336 195 264 l 268 336 q 271 326 268 333 q 361 250 298 250 q 409 264 384 250 q 562 414 412 264 q 620 530 620 460 m 340 778 q 349 777 342 778 q 505 625 353 777 q 541 557 541 597 l 541 551 q 526 502 541 523 q 374 352 526 500 q 338 328 352 328 q 321 332 332 328 q 294 395 294 353 q 306 445 294 421 q 418 553 311 452 l 328 638 q 294 712 294 663 q 298 741 294 723 q 334 778 313 778 l 340 778 m 123 778 q 132 776 127 778 q 286 628 136 776 q 323 556 323 600 l 323 550 q 311 505 323 525 q 156 351 311 502 q 121 328 135 328 q 104 332 115 328 q 76 395 76 353 q 90 446 76 422 q 201 553 94 452 l 114 636 q 76 709 76 663 q 79 734 76 720 q 117 778 94 778 l 123 778 z "},"¿":{"ha":645,"x_min":7,"x_max":665,"o":"m 343 -183 l 329 -183 q 69 -48 178 -183 q 7 139 7 39 l 7 157 q 81 356 7 258 q 136 408 117 395 q 142 417 136 417 q 183 437 143 418 l 183 439 q 205 534 183 496 q 168 635 168 584 l 168 646 q 253 789 168 730 q 338 814 298 814 l 357 814 q 475 764 417 814 q 520 691 510 725 q 527 638 527 665 q 494 540 527 587 q 519 447 519 500 l 519 440 q 497 314 519 372 l 498 314 q 610 271 560 314 q 665 154 665 216 l 665 139 q 539 -114 665 -7 q 343 -183 448 -183 m 351 -174 l 357 -174 q 567 -80 473 -174 q 647 122 647 9 q 566 250 647 206 q 510 262 536 262 q 454 250 481 262 l 454 252 q 500 404 500 326 l 500 435 q 467 519 500 478 l 467 519 q 508 611 508 565 l 508 618 q 509 618 508 618 l 508 621 l 508 626 q 446 735 508 688 q 359 762 406 762 q 231 692 280 762 q 210 618 210 659 q 256 515 210 561 q 226 432 226 476 l 226 414 q 218 394 226 399 q 179 374 180 375 q 163 360 179 370 q 49 123 49 264 q 184 -126 49 -31 q 340 -174 258 -174 l 344 -174 q 347 -175 346 -174 q 351 -174 349 -174 m 339 -98 l 325 -98 q 136 1 215 -98 q 91 142 91 62 q 186 334 91 257 q 240 368 204 347 q 264 407 263 391 q 269 464 268 410 q 304 514 279 499 q 343 526 323 526 l 351 526 q 418 480 393 526 q 426 441 426 463 q 307 223 426 297 q 249 142 249 197 q 309 62 249 86 q 330 60 321 60 l 333 60 q 408 111 383 60 q 415 157 415 127 q 444 203 424 189 q 495 221 463 221 q 568 170 543 221 q 572 143 572 156 l 572 138 q 457 -63 572 16 q 339 -98 399 -98 m 317 143 l 313 143 q 290 167 292 143 l 290 168 q 316 195 290 185 q 344 213 330 203 l 345 213 l 345 212 q 337 159 337 182 q 317 143 328 143 m 347 553 l 339 553 q 260 603 289 553 q 252 639 252 619 q 309 715 252 688 q 343 722 329 722 q 427 669 399 722 q 433 637 433 651 q 380 559 433 587 q 347 553 365 553 z "},"À":{"ha":922,"x_min":7,"x_max":942,"o":"m 445 644 l 363 462 l 527 462 q 446 644 446 642 l 445 644 m 440 954 l 450 954 q 519 916 489 954 q 568 812 529 901 q 817 260 817 263 q 823 227 823 246 q 774 146 823 174 q 730 135 754 135 q 656 178 687 135 q 589 326 647 194 l 302 326 q 237 182 297 318 q 157 135 206 135 q 75 188 104 135 q 66 224 66 208 l 66 232 q 98 316 66 251 l 364 905 q 440 954 395 954 m 353 1353 l 360 1353 q 433 1295 405 1353 q 479 1210 479 1224 q 479 1200 479 1207 l 479 1200 q 425 1130 479 1148 l 408 1128 q 338 1181 364 1128 q 289 1271 289 1257 q 288 1278 288 1272 l 288 1283 q 338 1350 288 1331 q 353 1353 347 1353 m 461 988 l 458 988 q 342 928 392 988 q 282 802 328 908 q 34 251 39 264 q 25 198 25 228 q 66 99 25 146 q 128 60 98 68 q 171 52 144 54 q 302 122 254 52 q 357 242 311 140 l 568 242 q 616 137 570 240 q 662 81 627 110 q 750 52 704 52 q 854 94 807 52 q 900 200 900 141 q 873 294 900 243 q 591 916 602 896 q 505 983 564 962 q 468 988 483 988 l 464 988 q 463 989 463 988 l 461 988 m 247 1257 q 281 1166 247 1215 q 334 1084 315 1109 q 427 1046 374 1046 q 531 1099 488 1046 q 555 1176 555 1134 q 519 1268 555 1219 q 471 1345 488 1324 q 381 1387 429 1387 l 372 1387 q 269 1331 312 1387 q 247 1257 247 1295 m 470 997 l 478 997 q 616 928 557 997 q 676 807 627 921 q 933 237 916 279 q 942 182 942 209 l 942 176 q 880 43 942 102 q 769 0 825 0 l 757 0 q 623 65 684 0 q 571 167 606 83 q 559 190 561 189 l 389 190 q 345 93 388 189 q 305 44 332 71 q 191 0 252 0 l 184 0 q 43 71 102 0 q 7 176 7 121 l 7 181 q 39 290 7 229 q 318 907 300 869 q 420 989 351 964 q 442 994 431 992 l 433 994 q 290 1093 342 994 q 229 1219 229 1181 q 229 1234 229 1222 l 229 1237 q 295 1366 229 1316 q 384 1396 337 1396 l 391 1396 q 510 1337 459 1396 q 583 1219 526 1318 q 597 1155 597 1188 l 597 1153 q 513 1011 597 1063 q 470 997 490 1001 z "},"Á":{"ha":922,"x_min":7,"x_max":942,"o":"m 445 644 l 363 462 l 527 462 q 446 644 446 642 l 445 644 m 440 954 l 450 954 q 519 916 489 954 q 568 812 529 901 q 817 260 817 263 q 823 227 823 246 q 774 146 823 174 q 730 135 754 135 q 656 178 687 135 q 589 326 647 194 l 302 326 q 237 182 297 318 q 157 135 206 135 q 75 188 104 135 q 66 224 66 208 l 66 232 q 98 316 66 251 l 364 905 q 440 954 395 954 m 576 1352 q 627 1284 627 1332 l 627 1280 q 625 1272 627 1274 q 576 1182 625 1258 q 506 1130 550 1130 l 490 1131 q 435 1201 435 1149 l 435 1202 q 435 1211 435 1208 q 481 1296 435 1225 q 554 1354 509 1354 l 561 1354 q 576 1352 568 1354 m 461 988 l 458 988 q 342 928 392 988 q 282 802 328 908 q 34 251 39 264 q 25 198 25 228 q 66 99 25 146 q 128 60 98 68 q 171 52 144 54 q 302 122 254 52 q 357 242 311 140 l 568 242 q 616 137 570 240 q 662 81 627 110 q 750 52 704 52 q 854 94 807 52 q 900 200 900 141 q 873 294 900 243 q 591 916 602 896 q 505 983 564 962 q 468 988 483 988 l 464 988 q 463 989 463 988 l 461 988 m 680 1331 q 577 1387 637 1387 l 568 1387 q 478 1345 520 1387 q 429 1268 460 1324 q 393 1176 393 1219 q 418 1099 393 1134 q 522 1046 460 1046 q 614 1084 575 1046 q 668 1166 634 1109 q 702 1257 702 1215 q 680 1331 702 1295 m 509 994 q 616 928 569 983 q 676 807 627 921 q 933 237 916 279 q 942 182 942 209 l 942 176 q 880 43 942 102 q 769 0 825 0 l 757 0 q 623 65 684 0 q 571 167 606 83 q 559 190 561 189 l 389 190 q 345 93 388 189 q 305 44 332 71 q 191 0 252 0 l 184 0 q 43 71 102 0 q 7 176 7 121 l 7 181 q 39 290 7 229 q 318 907 300 869 q 420 989 351 964 q 469 997 447 997 l 479 997 q 436 1011 458 1001 q 351 1153 351 1063 l 351 1155 q 366 1219 351 1188 q 439 1337 423 1318 q 558 1396 490 1396 l 565 1396 q 654 1366 612 1396 q 720 1237 720 1316 l 720 1234 q 720 1219 720 1222 q 659 1093 720 1181 q 515 994 606 994 l 509 994 z "},"Â":{"ha":922,"x_min":7,"x_max":942,"o":"m 445 644 l 363 462 l 527 462 q 446 644 446 642 l 445 644 m 440 954 l 450 954 q 519 916 489 954 q 568 812 529 901 q 817 260 817 263 q 823 227 823 246 q 774 146 823 174 q 730 135 754 135 q 656 178 687 135 q 589 326 647 194 l 302 326 q 237 182 297 318 q 157 135 206 135 q 75 188 104 135 q 66 224 66 208 l 66 232 q 98 316 66 251 l 364 905 q 440 954 395 954 m 450 1348 l 458 1348 q 513 1308 492 1348 q 613 1151 613 1154 q 617 1129 617 1141 q 577 1072 617 1090 q 557 1068 566 1068 q 498 1108 519 1068 q 454 1175 458 1168 q 398 1088 408 1101 q 352 1068 378 1068 q 301 1097 321 1068 q 292 1128 292 1112 l 292 1131 q 313 1178 292 1150 q 410 1328 400 1315 q 450 1348 428 1348 m 461 988 l 458 988 q 342 928 392 988 q 282 802 328 908 q 34 251 39 264 q 25 198 25 228 q 66 99 25 146 q 128 60 98 68 q 171 52 144 54 q 302 122 254 52 q 357 242 311 140 l 568 242 q 616 137 570 240 q 662 81 627 110 q 750 52 704 52 q 854 94 807 52 q 900 200 900 141 q 873 294 900 243 q 591 916 602 896 q 505 983 564 962 q 468 988 483 988 l 464 988 q 463 989 463 988 l 461 988 m 264 1115 q 323 1021 264 1051 q 361 1013 343 1013 l 367 1013 q 453 1065 420 1013 q 467 1086 462 1080 q 488 1053 468 1084 q 568 1012 519 1012 q 652 1057 618 1012 q 669 1116 669 1082 q 638 1187 669 1147 q 543 1335 552 1324 q 467 1371 512 1371 q 372 1308 406 1371 q 271 1150 282 1171 q 264 1115 264 1130 m 430 991 q 469 997 451 997 l 478 997 q 515 993 497 997 q 474 1034 492 1007 q 430 991 455 1006 m 555 979 q 616 928 588 962 q 676 807 627 921 q 933 237 916 279 q 942 182 942 209 l 942 176 q 880 43 942 102 q 769 0 825 0 l 757 0 q 623 65 684 0 q 571 167 606 83 q 559 190 561 189 l 389 190 q 345 93 388 189 q 305 44 332 71 q 191 0 252 0 l 184 0 q 43 71 102 0 q 7 176 7 121 l 7 181 q 39 290 7 229 q 318 907 300 869 q 399 980 345 955 q 372 977 386 977 l 369 977 q 294 1006 331 977 q 252 1097 252 1044 l 252 1103 q 281 1179 252 1138 q 380 1332 373 1321 q 470 1376 418 1376 l 479 1376 q 562 1339 526 1376 q 599 1285 578 1320 q 686 1147 675 1168 q 696 1103 696 1124 l 696 1097 q 659 1010 696 1047 q 578 977 622 977 l 572 977 q 555 979 564 977 z "},"Ã":{"ha":922,"x_min":7,"x_max":942,"o":"m 445 644 l 363 462 l 527 462 q 446 644 446 642 l 445 644 m 440 954 l 450 954 q 519 916 489 954 q 568 812 529 901 q 817 260 817 263 q 823 227 823 246 q 774 146 823 174 q 730 135 754 135 q 656 178 687 135 q 589 326 647 194 l 302 326 q 237 182 297 318 q 157 135 206 135 q 75 188 104 135 q 66 224 66 208 l 66 232 q 98 316 66 251 l 364 905 q 440 954 395 954 m 383 1261 q 509 1202 437 1261 q 528 1237 522 1227 q 574 1260 551 1260 l 582 1260 q 628 1236 606 1260 q 641 1199 641 1217 l 641 1194 q 600 1115 641 1167 q 516 1071 562 1071 q 399 1127 467 1071 q 387 1135 391 1132 q 356 1095 369 1117 q 309 1071 336 1071 l 302 1071 q 254 1097 276 1071 q 242 1135 242 1114 q 283 1208 242 1162 q 383 1261 330 1261 m 461 988 l 458 988 q 342 928 392 988 q 282 802 328 908 q 34 251 39 264 q 25 198 25 228 q 66 99 25 146 q 128 60 98 68 q 171 52 144 54 q 302 122 254 52 q 357 242 311 140 l 568 242 q 616 137 570 240 q 662 81 627 110 q 750 52 704 52 q 854 94 807 52 q 900 200 900 141 q 873 294 900 243 q 591 916 602 896 q 505 983 564 962 q 468 988 483 988 l 464 988 q 463 989 463 988 l 461 988 m 222 1118 q 283 1022 222 1055 q 328 1013 304 1013 q 416 1061 383 1013 q 536 1013 482 1013 q 678 1107 621 1013 q 703 1179 703 1147 q 662 1263 703 1230 q 602 1284 632 1284 l 596 1284 q 519 1248 553 1284 q 517 1246 519 1246 q 404 1285 457 1285 q 240 1174 312 1285 q 222 1118 222 1145 m 543 984 q 616 928 583 967 q 676 807 627 921 q 933 237 916 279 q 942 182 942 209 l 942 176 q 880 43 942 102 q 769 0 825 0 l 757 0 q 623 65 684 0 q 571 167 606 83 q 559 190 561 189 l 389 190 q 345 93 388 189 q 305 44 332 71 q 191 0 252 0 l 184 0 q 43 71 102 0 q 7 176 7 121 l 7 181 q 39 290 7 229 q 318 907 300 869 q 420 989 351 964 q 469 997 447 997 l 485 997 q 431 1025 458 1007 q 343 984 394 984 l 334 984 q 235 1037 278 984 q 213 1107 213 1071 l 213 1112 q 269 1224 213 1163 q 300 1256 278 1237 q 412 1299 356 1299 l 420 1299 q 526 1265 468 1299 q 611 1298 563 1298 q 699 1262 659 1298 q 736 1174 736 1223 l 736 1168 q 681 1050 736 1119 q 549 984 623 984 l 543 984 z "},"Ä":{"ha":922,"x_min":7,"x_max":942,"o":"m 469 997 l 478 997 q 616 928 557 997 q 676 807 627 921 q 933 237 916 279 q 942 182 942 209 l 942 176 q 880 43 942 102 q 769 0 825 0 l 757 0 q 623 65 684 0 q 571 167 606 83 q 559 190 561 189 l 389 190 q 345 93 388 189 q 305 44 332 71 q 191 0 252 0 l 184 0 q 43 71 102 0 q 7 176 7 121 l 7 181 q 39 290 7 229 q 318 907 300 869 q 420 989 351 964 q 469 997 447 997 m 461 988 l 458 988 q 342 928 392 988 q 282 802 328 908 q 34 251 39 264 q 25 198 25 228 q 66 99 25 146 q 128 60 98 68 q 171 52 144 54 q 302 122 254 52 q 357 242 311 140 l 568 242 q 616 137 570 240 q 662 81 627 110 q 750 52 704 52 q 854 94 807 52 q 900 200 900 141 q 873 294 900 243 q 591 916 602 896 q 505 983 564 962 q 468 988 483 988 l 464 988 q 463 989 463 988 l 461 988 m 440 954 l 450 954 q 519 916 489 954 q 568 812 529 901 q 817 260 817 263 q 823 227 823 246 q 774 146 823 174 q 730 135 754 135 q 656 178 687 135 q 589 326 647 194 l 302 326 q 237 182 297 318 q 157 135 206 135 q 75 188 104 135 q 66 224 66 208 l 66 232 q 98 316 66 251 l 364 905 q 440 954 395 954 m 445 644 l 363 462 l 527 462 q 446 644 446 642 l 445 644 m 355 1271 l 368 1271 q 475 1226 426 1271 q 580 1271 522 1271 l 592 1271 q 713 1211 663 1271 q 738 1138 738 1175 l 738 1128 q 673 1019 738 1065 q 592 996 632 996 l 580 996 q 473 1041 523 996 q 368 996 427 996 l 355 996 q 242 1048 292 996 q 211 1128 211 1088 l 211 1138 q 269 1242 211 1198 q 355 1271 311 1271 m 351 1263 l 346 1263 q 242 1208 284 1263 q 227 1152 227 1180 q 287 1056 227 1091 q 346 1040 317 1040 l 357 1040 q 465 1101 422 1040 q 535 1046 484 1064 q 571 1040 553 1040 l 581 1040 q 679 1086 638 1040 q 702 1152 702 1116 q 629 1255 702 1219 q 581 1263 603 1263 l 578 1263 q 577 1264 577 1263 l 575 1263 l 571 1263 q 473 1215 514 1263 q 464 1203 465 1203 q 393 1257 439 1244 q 357 1263 376 1263 l 353 1263 q 352 1264 352 1263 l 351 1263 m 333 1235 l 341 1235 q 410 1194 385 1235 q 413 1173 413 1182 l 413 1172 q 360 1112 413 1131 q 337 1109 349 1110 q 264 1153 287 1109 q 261 1171 261 1164 l 261 1174 q 311 1232 261 1213 q 333 1235 323 1235 m 557 1235 l 566 1235 q 633 1194 610 1235 q 638 1175 638 1183 l 638 1173 q 585 1112 638 1131 q 562 1109 574 1110 q 489 1153 512 1109 q 486 1171 486 1163 l 486 1175 q 536 1232 486 1213 q 557 1235 549 1235 z "},"Å":{"ha":922,"x_min":7,"x_max":942,"o":"m 445 644 l 363 462 l 527 462 q 446 644 446 642 l 445 644 m 433 1179 l 433 1177 q 450 1156 433 1162 l 457 1156 q 477 1175 471 1156 l 477 1179 q 458 1200 477 1194 l 454 1200 q 433 1185 439 1200 q 433 1179 433 1183 m 440 954 l 450 954 q 519 916 489 954 q 568 812 529 901 q 817 260 817 263 q 823 227 823 246 q 774 146 823 174 q 730 135 754 135 q 656 178 687 135 q 589 326 647 194 l 302 326 q 237 182 297 318 q 157 135 206 135 q 75 188 104 135 q 66 224 66 208 l 66 232 q 98 316 66 251 l 364 905 q 440 954 395 954 m 450 1274 l 459 1274 q 538 1227 505 1274 q 551 1178 551 1203 q 498 1093 551 1123 q 454 1082 477 1082 q 388 1109 416 1082 q 359 1175 359 1139 l 359 1181 q 412 1265 359 1234 q 450 1274 433 1274 m 461 988 l 458 988 q 342 928 392 988 q 282 802 328 908 q 34 251 39 264 q 25 198 25 228 q 66 99 25 146 q 128 60 98 68 q 171 52 144 54 q 302 122 254 52 q 357 242 311 140 l 568 242 q 616 137 570 240 q 662 81 627 110 q 750 52 704 52 q 854 94 807 52 q 900 200 900 141 q 873 294 900 243 q 591 916 602 896 q 505 983 564 962 q 468 988 483 988 l 464 988 q 463 989 463 988 l 461 988 m 464 1297 l 461 1297 q 359 1244 403 1297 q 330 1162 330 1208 q 389 1050 330 1093 q 467 1025 425 1025 q 584 1093 540 1025 q 603 1162 603 1124 q 534 1280 603 1236 q 473 1297 501 1297 l 469 1297 q 467 1298 468 1297 q 464 1297 465 1297 m 511 994 q 616 928 570 982 q 676 807 627 921 q 933 237 916 279 q 942 182 942 209 l 942 176 q 880 43 942 102 q 769 0 825 0 l 757 0 q 623 65 684 0 q 571 167 606 83 q 559 190 561 189 l 389 190 q 345 93 388 189 q 305 44 332 71 q 191 0 252 0 l 184 0 q 43 71 102 0 q 7 176 7 121 l 7 181 q 39 290 7 229 q 318 907 300 869 q 420 989 351 964 q 439 994 429 991 q 351 1049 390 1004 q 318 1141 318 1093 l 318 1151 q 384 1275 318 1223 q 470 1303 426 1303 l 481 1303 q 587 1256 538 1303 q 631 1151 631 1208 l 631 1141 q 581 1030 631 1081 q 511 994 547 1002 z "},"Æ":{"ha":1608,"x_min":7,"x_max":1627,"o":"m 445 644 l 363 462 l 527 462 q 446 644 446 642 l 445 644 m 440 954 l 450 954 q 519 916 489 954 q 568 812 529 901 q 817 260 817 263 q 823 227 823 246 q 774 146 823 174 q 730 135 754 135 q 656 178 687 135 q 589 326 647 194 l 302 326 q 237 182 297 318 q 157 135 206 135 q 75 188 104 135 q 66 224 66 208 l 66 232 q 98 316 66 251 l 364 905 q 440 954 395 954 m 461 988 l 458 988 q 342 928 392 988 q 282 802 328 908 q 34 251 39 264 q 25 198 25 228 q 66 99 25 146 q 128 60 98 68 q 171 52 144 54 q 302 122 254 52 q 357 242 311 140 l 568 242 q 616 137 570 240 q 662 81 627 110 q 750 52 704 52 q 854 94 807 52 q 900 200 900 141 q 873 294 900 243 q 591 916 602 896 q 505 983 564 962 q 468 988 483 988 l 464 988 q 463 989 463 988 l 461 988 m 1069 954 l 1423 954 q 1502 898 1474 954 q 1508 863 1508 882 q 1453 780 1508 808 q 1404 773 1440 773 l 1163 773 l 1163 637 l 1403 637 q 1482 609 1461 637 q 1508 547 1508 584 l 1508 545 q 1455 463 1508 491 q 1416 456 1439 456 l 1163 456 l 1163 316 l 1418 316 q 1504 256 1478 316 q 1508 227 1508 240 q 1444 138 1508 165 q 1411 135 1429 135 l 1080 135 q 1012 159 1036 135 q 982 224 982 186 l 982 866 q 1038 948 982 920 q 1069 954 1053 954 m 941 203 q 942 183 942 193 q 1033 63 951 102 q 1113 52 1057 52 l 1414 52 q 1506 69 1479 52 q 1585 203 1585 117 q 1499 337 1585 290 q 1438 350 1468 350 l 1241 350 q 1239 352 1239 350 l 1239 370 q 1241 372 1240 372 l 1421 372 q 1529 405 1492 372 q 1585 522 1585 451 q 1501 656 1585 609 q 1416 671 1474 671 l 1241 671 q 1239 673 1239 671 l 1239 689 q 1241 690 1240 690 l 1444 690 q 1543 735 1495 690 q 1585 842 1585 779 q 1535 950 1585 904 q 1463 986 1502 979 q 1414 989 1445 989 l 1113 989 q 1017 970 1045 989 q 941 833 941 925 l 941 203 m 932 119 q 880 43 917 78 q 769 0 825 0 l 757 0 q 623 65 684 0 q 571 167 606 83 q 559 190 561 189 l 389 190 q 345 93 388 189 q 305 44 332 71 q 191 0 252 0 l 184 0 q 43 71 102 0 q 7 176 7 121 l 7 181 q 39 290 7 229 q 318 907 300 869 q 420 989 351 964 q 469 997 447 997 l 478 997 q 616 928 557 997 q 676 807 627 921 q 922 262 878 362 l 922 827 q 976 946 922 889 q 1052 991 1016 981 q 1090 997 1079 997 l 1457 997 q 1567 953 1512 997 q 1610 895 1601 918 q 1627 827 1627 857 l 1627 808 q 1575 690 1627 748 q 1532 659 1545 664 l 1532 659 q 1590 610 1554 650 q 1627 509 1627 558 l 1627 490 q 1584 382 1627 435 q 1531 340 1553 351 l 1531 338 q 1607 264 1575 317 q 1627 190 1627 222 l 1627 170 q 1586 64 1627 117 q 1457 0 1526 0 l 1090 0 q 998 33 1048 0 q 932 119 951 68 z "},"Ç":{"ha":949,"x_min":7,"x_max":969,"o":"m 504 996 l 526 996 q 829 888 684 996 q 969 674 969 768 l 969 660 q 912 531 969 590 q 814 482 861 488 l 811 482 l 811 481 q 899 444 855 475 q 943 391 939 407 q 969 303 969 347 l 969 288 q 831 77 969 195 q 711 6 764 27 q 695 -1 696 0 q 715 -98 715 -48 l 715 -103 q 623 -284 715 -210 q 493 -330 560 -330 l 478 -330 q 330 -273 400 -330 q 260 -135 260 -208 q 335 -5 260 -54 l 335 -1 q 254 37 297 12 q 35 307 100 136 q 7 469 7 393 l 7 492 q 124 810 7 666 q 211 895 178 871 q 504 996 347 996 m 499 987 l 492 987 q 198 876 333 987 q 26 504 26 724 q 243 98 26 254 q 359 41 300 60 l 359 40 q 354 7 354 24 l 354 -1 q 333 -13 354 -3 q 281 -108 281 -52 l 281 -117 q 349 -235 281 -176 q 472 -277 407 -277 q 644 -178 578 -277 q 671 -79 671 -130 q 636 39 671 -12 q 782 111 720 66 q 854 176 809 130 q 918 271 913 245 q 926 319 926 292 q 884 426 926 380 q 778 474 834 474 l 768 474 q 650 416 700 474 q 506 329 597 329 q 346 437 399 329 q 334 504 334 474 q 419 656 334 599 q 506 679 455 679 q 647 595 596 679 q 772 534 697 534 q 902 606 850 534 q 926 690 926 645 q 857 829 926 754 q 772 904 804 885 q 676 956 720 939 q 518 987 589 987 l 507 987 q 503 988 505 987 q 499 987 501 987 m 477 951 l 497 951 q 704 889 599 951 q 777 831 736 869 q 846 718 846 759 l 846 712 q 793 629 846 659 q 755 620 774 620 l 751 620 q 663 678 697 620 q 483 765 595 765 q 291 655 366 765 q 255 528 255 599 q 376 321 255 398 q 486 294 427 294 q 680 404 609 294 q 751 439 711 439 l 756 439 q 838 386 807 439 q 846 345 846 365 l 846 344 q 804 258 846 305 q 731 188 762 208 q 633 134 679 151 q 552 111 595 119 q 529 104 529 111 q 523 68 523 76 q 593 -50 593 26 q 530 -168 593 -122 q 451 -191 496 -191 q 338 -130 385 -191 q 322 -87 322 -105 q 364 -33 322 -47 q 380 -29 370 -29 q 435 -68 416 -29 q 453 -76 444 -76 q 477 -55 477 -73 l 477 -50 q 442 -26 477 -29 q 403 -2 412 -18 q 396 28 396 10 q 413 112 396 39 q 321 138 393 112 q 231 193 277 159 q 68 523 68 330 l 68 536 q 243 875 68 736 q 477 951 351 951 m 378 486 l 378 477 q 447 357 378 404 q 517 338 476 338 q 635 410 593 338 q 692 459 669 449 q 755 481 718 474 l 755 482 q 686 507 728 484 q 614 583 651 527 q 515 625 576 625 l 510 625 q 403 564 448 625 q 378 486 378 528 z "},"È":{"ha":691,"x_min":7,"x_max":711,"o":"m 153 954 l 507 954 q 587 898 558 954 q 593 863 593 882 q 537 780 593 808 q 488 773 525 773 l 248 773 l 248 637 l 488 637 q 567 609 545 637 q 593 547 593 584 l 593 545 q 539 463 593 491 q 500 456 524 456 l 248 456 l 248 316 l 503 316 q 589 256 562 316 q 593 227 593 240 q 529 138 593 165 q 496 135 513 135 l 165 135 q 96 159 120 135 q 66 224 66 186 l 66 866 q 123 948 66 920 q 153 954 138 954 m 238 1353 l 245 1353 q 317 1295 290 1353 q 363 1210 363 1224 q 364 1200 364 1207 l 364 1200 q 309 1130 364 1148 l 293 1128 q 223 1181 249 1128 q 174 1271 174 1257 q 172 1278 172 1272 l 172 1283 q 222 1350 172 1331 q 238 1353 231 1353 m 25 833 l 25 206 q 117 63 25 107 q 197 52 141 52 l 498 52 q 590 69 564 52 q 669 203 669 117 q 584 337 669 290 q 522 350 552 350 l 326 350 q 323 352 323 350 l 323 370 q 326 372 324 372 l 506 372 q 613 405 576 372 q 669 522 669 451 q 585 656 669 609 q 500 671 559 671 l 326 671 q 323 673 323 671 l 323 689 q 326 690 324 690 l 529 690 q 627 735 579 690 q 669 842 669 779 q 620 950 669 904 q 548 986 587 979 q 498 989 530 989 l 197 989 q 102 970 130 989 q 25 833 25 925 m 132 1257 q 165 1166 132 1215 q 219 1084 199 1109 q 311 1046 258 1046 q 416 1099 373 1046 q 440 1176 440 1134 q 404 1268 440 1219 q 355 1345 373 1324 q 266 1387 313 1387 l 256 1387 q 153 1331 197 1387 q 132 1257 132 1295 m 355 997 l 542 997 q 651 953 596 997 q 694 895 686 918 q 711 827 711 857 l 711 808 q 660 690 711 748 q 616 659 629 664 l 616 659 q 675 610 638 650 q 711 509 711 558 l 711 490 q 669 382 711 435 q 615 340 637 351 l 615 338 q 691 264 660 317 q 711 190 711 222 l 711 170 q 670 64 711 117 q 542 0 610 0 l 175 0 q 82 33 133 0 q 12 132 29 73 q 7 170 7 159 l 7 827 q 60 946 7 889 q 136 991 100 981 q 175 997 163 997 l 289 997 q 174 1093 218 1010 q 114 1219 114 1181 q 113 1234 113 1222 l 113 1237 q 180 1366 113 1316 q 269 1396 222 1396 l 275 1396 q 395 1337 344 1396 q 468 1219 410 1318 q 482 1155 482 1188 l 482 1153 q 397 1011 482 1063 q 355 997 375 1001 z "},"É":{"ha":691,"x_min":7,"x_max":711,"o":"m 153 954 l 507 954 q 587 898 558 954 q 593 863 593 882 q 537 780 593 808 q 488 773 525 773 l 248 773 l 248 637 l 488 637 q 567 609 545 637 q 593 547 593 584 l 593 545 q 539 463 593 491 q 500 456 524 456 l 248 456 l 248 316 l 503 316 q 589 256 562 316 q 593 227 593 240 q 529 138 593 165 q 496 135 513 135 l 165 135 q 96 159 120 135 q 66 224 66 186 l 66 866 q 123 948 66 920 q 153 954 138 954 m 461 1352 q 511 1284 511 1332 l 511 1280 q 510 1272 511 1274 q 460 1182 510 1258 q 391 1130 435 1130 l 374 1131 q 319 1201 319 1149 l 319 1202 q 320 1211 319 1208 q 366 1296 320 1225 q 439 1354 394 1354 l 446 1354 q 461 1352 452 1354 m 25 833 l 25 206 q 117 63 25 107 q 197 52 141 52 l 498 52 q 590 69 564 52 q 669 203 669 117 q 584 337 669 290 q 522 350 552 350 l 326 350 q 323 352 323 350 l 323 370 q 326 372 324 372 l 506 372 q 613 405 576 372 q 669 522 669 451 q 585 656 669 609 q 500 671 559 671 l 326 671 q 323 673 323 671 l 323 689 q 326 690 324 690 l 529 690 q 627 735 579 690 q 669 842 669 779 q 620 950 669 904 q 548 986 587 979 q 498 989 530 989 l 197 989 q 102 970 130 989 q 25 833 25 925 m 565 1331 q 462 1387 522 1387 l 452 1387 q 363 1345 405 1387 q 314 1268 345 1324 q 278 1176 278 1219 q 302 1099 278 1134 q 407 1046 345 1046 q 499 1084 460 1046 q 553 1166 519 1109 q 587 1257 587 1215 q 565 1331 587 1295 m 429 997 l 542 997 q 651 953 596 997 q 694 895 686 918 q 711 827 711 857 l 711 808 q 660 690 711 748 q 616 659 629 664 l 616 659 q 675 610 638 650 q 711 509 711 558 l 711 490 q 669 382 711 435 q 615 340 637 351 l 615 338 q 691 264 660 317 q 711 190 711 222 l 711 170 q 670 64 711 117 q 542 0 610 0 l 175 0 q 82 33 133 0 q 12 132 29 73 q 7 170 7 159 l 7 827 q 60 946 7 889 q 136 991 100 981 q 175 997 163 997 l 363 997 q 321 1011 343 1001 q 236 1153 236 1063 l 236 1155 q 250 1219 236 1188 q 323 1337 308 1318 q 443 1396 374 1396 l 450 1396 q 538 1366 496 1396 q 605 1237 605 1316 l 605 1234 q 604 1219 605 1222 q 544 1093 604 1181 q 429 997 500 1010 z "},"Ê":{"ha":691,"x_min":7,"x_max":711,"o":"m 153 954 l 507 954 q 587 898 558 954 q 593 863 593 882 q 537 780 593 808 q 488 773 525 773 l 248 773 l 248 637 l 488 637 q 567 609 545 637 q 593 547 593 584 l 593 545 q 539 463 593 491 q 500 456 524 456 l 248 456 l 248 316 l 503 316 q 589 256 562 316 q 593 227 593 240 q 529 138 593 165 q 496 135 513 135 l 165 135 q 96 159 120 135 q 66 224 66 186 l 66 866 q 123 948 66 920 q 153 954 138 954 m 336 1359 l 343 1359 q 398 1319 376 1359 q 498 1162 498 1166 q 502 1141 502 1152 q 462 1083 502 1101 q 441 1080 450 1080 q 383 1120 404 1080 q 340 1187 343 1179 l 339 1187 q 283 1100 292 1113 q 237 1080 264 1080 q 186 1108 206 1080 q 177 1139 177 1124 l 177 1143 q 197 1190 177 1162 q 294 1339 285 1327 q 336 1359 313 1359 m 25 833 l 25 206 q 117 63 25 107 q 197 52 141 52 l 498 52 q 590 69 564 52 q 669 203 669 117 q 584 337 669 290 q 522 350 552 350 l 326 350 q 323 352 323 350 l 323 370 q 326 372 324 372 l 506 372 q 613 405 576 372 q 669 522 669 451 q 585 656 669 609 q 500 671 559 671 l 326 671 q 323 673 323 671 l 323 689 q 326 690 324 690 l 529 690 q 627 735 579 690 q 669 842 669 779 q 620 950 669 904 q 548 986 587 979 q 498 989 530 989 l 197 989 q 102 970 130 989 q 25 833 25 925 m 149 1126 q 208 1034 149 1063 q 246 1025 228 1025 l 252 1025 q 338 1077 304 1025 q 351 1097 347 1092 q 373 1064 353 1096 q 453 1024 404 1024 q 537 1069 504 1024 q 553 1128 553 1095 q 524 1200 553 1159 q 428 1347 437 1335 q 351 1383 397 1383 q 257 1320 290 1383 q 157 1162 167 1183 q 149 1126 149 1141 m 504 997 l 542 997 q 651 953 596 997 q 694 895 686 918 q 711 827 711 857 l 711 808 q 660 690 711 748 q 616 659 629 664 l 616 659 q 675 610 638 650 q 711 509 711 558 l 711 490 q 669 382 711 435 q 615 340 637 351 l 615 338 q 691 264 660 317 q 711 190 711 222 l 711 170 q 670 64 711 117 q 542 0 610 0 l 175 0 q 82 33 133 0 q 12 132 29 73 q 7 170 7 159 l 7 827 q 60 946 7 889 q 136 991 100 981 q 175 997 163 997 l 215 997 q 179 1017 197 1004 q 137 1109 137 1055 l 137 1114 q 166 1191 137 1149 q 266 1343 258 1333 q 355 1388 303 1388 l 363 1388 q 447 1350 410 1388 q 484 1297 463 1332 q 571 1160 560 1180 q 581 1115 581 1135 l 581 1109 q 543 1021 581 1059 q 504 997 525 1005 m 300 997 l 416 997 q 359 1046 384 1010 q 300 997 334 1010 z "},"Ë":{"ha":691,"x_min":7,"x_max":711,"o":"m 153 954 l 507 954 q 587 898 558 954 q 593 863 593 882 q 537 780 593 808 q 488 773 525 773 l 248 773 l 248 637 l 488 637 q 567 609 545 637 q 593 547 593 584 l 593 545 q 539 463 593 491 q 500 456 524 456 l 248 456 l 248 316 l 503 316 q 589 256 562 316 q 593 227 593 240 q 529 138 593 165 q 496 135 513 135 l 165 135 q 96 159 120 135 q 66 224 66 186 l 66 866 q 123 948 66 920 q 153 954 138 954 m 442 1235 l 450 1235 q 518 1194 494 1235 q 523 1175 523 1183 l 523 1173 q 470 1112 523 1131 q 447 1109 458 1110 q 374 1153 397 1109 q 371 1171 371 1163 l 371 1175 q 421 1232 371 1213 q 442 1235 433 1235 m 218 1235 l 226 1235 q 294 1194 270 1235 q 298 1173 298 1182 l 298 1172 q 245 1112 298 1131 q 222 1109 234 1110 q 149 1153 172 1109 q 146 1171 146 1164 l 146 1174 q 196 1232 146 1213 q 218 1235 208 1235 m 25 833 l 25 206 q 117 63 25 107 q 197 52 141 52 l 498 52 q 590 69 564 52 q 669 203 669 117 q 584 337 669 290 q 522 350 552 350 l 326 350 q 323 352 323 350 l 323 370 q 326 372 324 372 l 506 372 q 613 405 576 372 q 669 522 669 451 q 585 656 669 609 q 500 671 559 671 l 326 671 q 323 673 323 671 l 323 689 q 326 690 324 690 l 529 690 q 627 735 579 690 q 669 842 669 779 q 620 950 669 904 q 548 986 587 979 q 498 989 530 989 l 197 989 q 102 970 130 989 q 25 833 25 925 m 235 1263 l 231 1263 q 127 1208 169 1263 q 111 1152 111 1180 q 172 1056 111 1091 q 231 1040 201 1040 l 241 1040 q 349 1101 307 1040 q 420 1046 369 1064 q 456 1040 438 1040 l 466 1040 q 564 1086 523 1040 q 587 1152 587 1116 q 513 1255 587 1219 q 466 1263 488 1263 l 463 1263 q 462 1264 462 1263 l 460 1263 l 456 1263 q 357 1215 399 1263 q 349 1203 350 1203 q 277 1257 324 1244 q 241 1263 261 1263 l 237 1263 q 237 1264 237 1263 l 235 1263 m 490 997 l 542 997 q 651 953 596 997 q 694 895 686 918 q 711 827 711 857 l 711 808 q 660 690 711 748 q 616 659 629 664 l 616 659 q 675 610 638 650 q 711 509 711 558 l 711 490 q 669 382 711 435 q 615 340 637 351 l 615 338 q 691 264 660 317 q 711 190 711 222 l 711 170 q 670 64 711 117 q 542 0 610 0 l 175 0 q 82 33 133 0 q 12 132 29 73 q 7 170 7 159 l 7 827 q 60 946 7 889 q 136 991 100 981 q 175 997 163 997 l 225 997 q 127 1048 172 1002 q 96 1128 96 1088 l 96 1138 q 153 1242 96 1198 q 239 1271 195 1271 l 252 1271 q 359 1226 311 1271 q 465 1271 407 1271 l 477 1271 q 597 1211 547 1271 q 623 1138 623 1175 l 623 1128 q 557 1019 623 1065 q 490 997 524 1000 m 267 997 l 450 997 q 358 1041 401 1002 q 267 997 317 1002 z "},"Ì":{"ha":354,"x_min":-60,"x_max":366,"o":"m 153 954 l 160 954 q 240 899 211 954 q 247 861 247 882 l 247 229 q 195 144 247 171 q 157 135 177 135 q 72 194 100 135 q 66 227 66 209 l 66 866 q 121 947 66 920 q 153 954 136 954 m 65 1353 l 72 1353 q 144 1295 117 1353 q 191 1210 191 1224 q 191 1200 191 1207 l 191 1200 q 136 1130 191 1148 l 120 1128 q 50 1181 76 1128 q 1 1271 1 1257 q -1 1278 -1 1272 l -1 1283 q 50 1350 -1 1331 q 65 1353 58 1353 m 171 988 l 166 988 q 56 931 106 988 q 25 835 25 891 l 25 209 q 127 60 25 100 q 166 53 151 53 l 171 53 q 174 52 173 53 q 178 53 176 53 l 182 53 q 292 110 242 53 q 323 205 323 149 l 323 836 q 231 978 323 934 q 182 988 203 988 l 178 988 q 174 989 176 988 q 171 988 173 988 m -41 1257 q -7 1166 -41 1215 q 46 1084 26 1109 q 138 1046 85 1046 q 243 1099 200 1046 q 267 1176 267 1134 q 231 1268 267 1219 q 182 1345 200 1324 q 93 1387 140 1387 l 83 1387 q -20 1331 24 1387 q -41 1257 -41 1295 m 182 997 l 195 997 q 308 950 252 997 q 366 827 366 892 l 366 170 q 321 60 366 115 q 261 16 290 28 q 195 0 223 0 l 177 0 q 67 45 122 0 q 22 105 33 78 q 7 170 7 144 l 7 827 q 56 941 7 886 q 153 994 90 980 l 145 994 q 1 1093 54 994 q -59 1219 -59 1181 q -60 1234 -60 1222 l -60 1237 q 7 1366 -60 1316 q 96 1396 49 1396 l 102 1396 q 222 1337 171 1396 q 295 1219 237 1318 q 309 1155 309 1188 l 309 1153 q 224 1011 309 1063 q 182 997 202 1001 z "},"Í":{"ha":345,"x_min":7,"x_max":432,"o":"m 153 954 l 160 954 q 240 899 211 954 q 247 861 247 882 l 247 229 q 195 144 247 171 q 157 135 177 135 q 72 194 100 135 q 66 227 66 209 l 66 866 q 121 947 66 920 q 153 954 136 954 m 288 1352 q 338 1284 338 1332 l 338 1280 q 337 1272 338 1274 q 288 1182 337 1258 q 218 1130 262 1130 l 201 1131 q 146 1201 146 1149 l 146 1202 q 147 1211 146 1208 q 193 1296 147 1225 q 266 1354 221 1354 l 273 1354 q 288 1352 279 1354 m 171 988 l 166 988 q 56 931 106 988 q 25 835 25 891 l 25 209 q 127 60 25 100 q 166 53 151 53 l 171 53 q 174 52 173 53 q 178 53 176 53 l 182 53 q 292 110 242 53 q 323 205 323 149 l 323 836 q 231 978 323 934 q 182 988 203 988 l 178 988 q 174 989 176 988 q 171 988 173 988 m 392 1331 q 289 1387 349 1387 l 279 1387 q 190 1345 232 1387 q 141 1268 172 1324 q 105 1176 105 1219 q 130 1099 105 1134 q 234 1046 172 1046 q 326 1084 287 1046 q 380 1166 346 1109 q 414 1257 414 1215 q 392 1331 414 1295 m 222 994 q 308 950 265 985 q 366 827 366 892 l 366 170 q 321 60 366 115 q 261 16 290 28 q 195 0 223 0 l 177 0 q 67 45 122 0 q 22 105 33 78 q 7 170 7 144 l 7 827 q 56 941 7 886 q 153 994 90 980 q 177 997 170 997 l 191 997 q 148 1011 170 1001 q 63 1153 63 1063 l 63 1155 q 77 1219 63 1188 q 151 1337 135 1318 q 270 1396 201 1396 l 277 1396 q 366 1366 323 1396 q 432 1237 432 1316 l 432 1234 q 431 1219 432 1222 q 371 1093 431 1181 q 227 994 318 994 l 222 994 z "},"Î":{"ha":356,"x_min":-36,"x_max":408,"o":"m 153 954 l 160 954 q 240 899 211 954 q 247 861 247 882 l 247 229 q 195 144 247 171 q 157 135 177 135 q 72 194 100 135 q 66 227 66 209 l 66 866 q 121 947 66 920 q 153 954 136 954 m 162 1348 l 170 1348 q 225 1308 203 1348 q 325 1151 325 1154 q 329 1129 329 1141 q 289 1072 329 1090 q 269 1068 277 1068 q 210 1108 231 1068 q 166 1175 170 1168 q 110 1088 119 1101 q 64 1068 90 1068 q 13 1097 33 1068 q 4 1128 4 1112 l 4 1131 q 24 1178 4 1150 q 121 1328 112 1315 q 162 1348 140 1348 m 171 988 l 166 988 q 56 931 106 988 q 25 835 25 891 l 25 209 q 127 60 25 100 q 166 53 151 53 l 171 53 q 174 52 173 53 q 178 53 176 53 l 182 53 q 292 110 242 53 q 323 205 323 149 l 323 836 q 231 978 323 934 q 182 988 203 988 l 178 988 q 174 989 176 988 q 171 988 173 988 m -24 1115 q 35 1021 -24 1051 q 73 1013 55 1013 l 79 1013 q 165 1065 132 1013 q 178 1086 174 1080 q 200 1053 180 1084 q 280 1012 231 1012 q 363 1057 330 1012 q 380 1116 380 1082 q 350 1187 380 1147 q 255 1335 264 1324 q 178 1371 224 1371 q 83 1308 117 1371 q -17 1150 -6 1171 q -24 1115 -24 1130 m 141 991 q 153 994 147 993 q 177 997 170 997 l 195 997 q 227 994 211 997 q 186 1034 203 1007 q 141 991 167 1006 m 266 979 q 308 950 287 968 q 366 827 366 892 l 366 170 q 321 60 366 115 q 261 16 290 28 q 195 0 223 0 l 177 0 q 67 45 122 0 q 22 105 33 78 q 7 170 7 144 l 7 827 q 56 941 7 886 q 109 979 77 965 q 83 977 96 977 l 81 977 q 6 1006 43 977 q -36 1097 -36 1044 l -36 1103 q -7 1179 -36 1138 q 92 1332 85 1321 q 182 1376 130 1376 l 191 1376 q 274 1339 237 1376 q 311 1285 290 1320 q 398 1147 387 1168 q 408 1103 408 1124 l 408 1097 q 370 1010 408 1047 q 290 977 334 977 l 284 977 q 266 979 275 977 z "},"Ï":{"ha":354,"x_min":-77,"x_max":450,"o":"m 177 997 l 195 997 q 308 950 252 997 q 366 827 366 892 l 366 170 q 321 60 366 115 q 261 16 290 28 q 195 0 223 0 l 177 0 q 67 45 122 0 q 22 105 33 78 q 7 170 7 144 l 7 827 q 56 941 7 886 q 153 994 90 980 q 177 997 170 997 m 171 988 l 166 988 q 56 931 106 988 q 25 835 25 891 l 25 209 q 127 60 25 100 q 166 53 151 53 l 171 53 q 174 52 173 53 q 178 53 176 53 l 182 53 q 292 110 242 53 q 323 205 323 149 l 323 836 q 231 978 323 934 q 182 988 203 988 l 178 988 q 174 989 176 988 q 171 988 173 988 m 153 954 l 160 954 q 240 899 211 954 q 247 861 247 882 l 247 229 q 195 144 247 171 q 157 135 177 135 q 72 194 100 135 q 66 227 66 209 l 66 866 q 121 947 66 920 q 153 954 136 954 m 66 1271 l 79 1271 q 186 1226 138 1271 q 292 1271 234 1271 l 304 1271 q 425 1211 374 1271 q 450 1138 450 1175 l 450 1128 q 385 1019 450 1065 q 304 996 344 996 l 292 996 q 185 1041 235 996 q 79 996 139 996 l 66 996 q -46 1048 4 996 q -77 1128 -77 1088 l -77 1138 q -20 1242 -77 1198 q 66 1271 22 1271 m 62 1263 l 58 1263 q -46 1208 -4 1263 q -62 1152 -62 1180 q -1 1056 -62 1091 q 58 1040 28 1040 l 68 1040 q 176 1101 134 1040 q 247 1046 196 1064 q 283 1040 265 1040 l 293 1040 q 391 1086 350 1040 q 414 1152 414 1116 q 340 1255 414 1219 q 293 1263 315 1263 l 290 1263 q 289 1264 289 1263 l 287 1263 l 283 1263 q 184 1215 226 1263 q 176 1203 177 1203 q 104 1257 151 1244 q 68 1263 88 1263 l 64 1263 q 64 1264 64 1263 l 62 1263 m 45 1235 l 53 1235 q 121 1194 97 1235 q 125 1173 125 1182 l 125 1172 q 72 1112 125 1131 q 49 1109 61 1110 q -24 1153 -1 1109 q -27 1171 -27 1164 l -27 1174 q 23 1232 -27 1213 q 45 1235 35 1235 m 269 1235 l 277 1235 q 345 1194 321 1235 q 350 1175 350 1183 l 350 1173 q 297 1112 350 1131 q 274 1109 286 1110 q 201 1153 224 1109 q 198 1171 198 1163 l 198 1175 q 248 1232 198 1213 q 269 1235 260 1235 z "},"Ð":{"ha":930,"x_min":7,"x_max":951,"o":"m 284 997 l 464 997 q 757 895 621 997 q 853 796 822 839 q 951 510 951 662 l 951 487 q 836 179 951 320 q 751 99 777 115 q 464 0 618 0 l 284 0 q 172 47 228 0 q 120 132 127 93 q 113 207 113 149 l 113 334 q 18 436 46 365 q 7 490 7 468 l 7 508 q 54 621 7 565 q 113 663 91 656 l 113 791 q 134 901 113 870 q 232 986 166 962 q 284 997 261 997 m 132 833 l 132 663 q 106 652 130 661 q 25 517 25 604 q 111 382 25 431 q 132 373 132 375 l 132 203 q 225 60 132 104 q 281 50 254 50 l 446 50 q 804 222 654 50 q 909 514 909 353 l 909 522 q 705 905 909 753 q 434 986 589 986 l 290 986 q 140 886 181 986 q 132 833 132 862 m 260 954 l 431 954 q 754 786 621 954 q 832 546 832 680 l 832 543 q 646 201 832 333 q 553 155 600 171 q 404 135 496 135 l 272 135 q 177 199 200 135 q 174 224 174 212 l 174 454 l 157 454 q 72 513 98 454 q 66 543 66 528 l 66 547 q 121 629 66 600 q 156 635 138 635 l 174 635 l 174 866 q 226 946 174 918 q 260 954 241 954 m 354 773 l 354 635 l 429 635 q 508 585 479 635 q 517 546 517 566 l 517 544 q 458 460 517 488 q 428 454 442 454 l 354 454 l 354 317 l 425 317 q 626 439 553 317 q 651 541 651 489 l 651 549 q 581 709 651 641 q 414 773 518 773 l 354 773 z "},"Ñ":{"ha":714,"x_min":7,"x_max":734,"o":"m 158 954 q 235 908 204 954 l 434 522 l 435 522 l 435 865 q 460 926 435 900 q 522 954 488 954 l 529 954 q 606 907 576 954 q 616 865 616 886 l 616 230 q 551 141 616 167 q 528 138 539 138 l 522 138 q 449 180 479 138 q 248 569 248 568 l 248 569 l 248 241 q 224 166 248 187 q 156 135 195 135 q 75 188 104 135 q 66 226 66 204 l 66 865 q 117 944 66 913 q 158 954 138 954 m 279 1261 q 405 1202 333 1261 q 425 1237 418 1227 q 470 1260 447 1260 l 478 1260 q 524 1236 502 1260 q 537 1199 537 1217 l 537 1194 q 496 1115 537 1167 q 412 1071 458 1071 q 295 1127 363 1071 q 283 1135 288 1132 q 252 1095 265 1117 q 205 1071 233 1071 l 198 1071 q 151 1097 172 1071 q 138 1135 138 1114 q 179 1208 138 1162 q 279 1261 227 1261 m 540 988 l 534 988 q 437 944 484 988 q 400 883 409 913 q 394 827 394 861 l 394 741 l 392 741 q 292 931 304 916 q 176 988 242 988 q 51 922 99 988 q 25 836 25 884 l 25 208 q 127 60 25 100 q 167 53 151 53 l 171 53 q 174 52 173 53 q 178 53 176 53 l 183 53 q 290 106 239 53 q 315 153 310 134 q 323 218 323 171 l 323 302 l 326 302 q 404 149 338 277 q 445 92 416 119 q 543 54 490 54 l 543 54 q 671 126 622 54 q 692 201 692 165 l 692 837 q 652 941 692 899 q 551 988 604 988 l 547 988 q 543 989 545 988 q 540 988 542 988 m 119 1118 q 180 1022 119 1055 q 224 1013 201 1013 q 313 1061 279 1013 q 433 1013 378 1013 q 574 1107 517 1013 q 600 1179 600 1147 q 558 1263 600 1230 q 498 1284 528 1284 l 492 1284 q 416 1248 450 1284 q 414 1246 416 1246 q 300 1285 353 1285 q 136 1174 208 1285 q 119 1118 119 1145 m 252 985 q 313 944 283 971 q 376 841 338 922 q 380 863 377 841 q 424 941 393 906 q 517 994 459 979 q 546 997 536 997 l 564 997 q 677 950 621 997 q 722 884 715 909 q 734 827 734 852 l 734 175 q 680 53 734 110 q 553 2 626 2 q 434 48 490 2 q 389 113 404 79 l 366 158 q 361 138 364 158 q 300 41 344 76 q 195 0 247 0 l 176 0 q 82 33 133 0 q 37 78 56 53 q 7 168 7 127 l 7 822 q 79 961 7 901 q 179 997 124 994 q 132 1037 153 1010 q 109 1107 109 1071 l 109 1112 q 165 1224 109 1163 q 197 1256 174 1237 q 308 1299 252 1299 l 316 1299 q 422 1265 364 1299 q 507 1298 459 1298 q 595 1262 555 1298 q 632 1174 632 1223 l 632 1168 q 577 1050 632 1119 q 445 984 519 984 q 328 1025 390 984 q 252 985 295 989 z "}}}
